<svg width="20" height="54" viewBox="0 0 20 54" fill="none" xmlns="http://www.w3.org/2000/svg">
<path fill-rule="evenodd" clip-rule="evenodd" d="M12.2782 21.497C16.7033 19.5072 20 11.847 20 2.70082C20 -2.20879 19.0501 0.305009 17.4856 4.44508C16.0502 8.24342 14.0975 13.4108 11.8865 15.4701C11.96 13.9824 12 12.3817 12 10.7143C12 2.82454 11.1046 1.6112e-05 10 1.6112e-05C8.89543 1.6112e-05 8 2.82454 8 10.7143C8 12.3817 8.03999 13.9824 8.11349 15.4701C5.9025 13.4108 3.94981 8.24342 2.51443 4.44508C0.949936 0.305009 0 -2.20879 0 2.70082C0 11.847 3.29666 19.5072 7.72185 21.497C7.27187 23.5391 7 27.2515 7 34C7 45.0457 8.34314 54 10 54C11.6569 54 13 45.0457 13 34C13 27.2515 12.7281 23.5391 12.2782 21.497Z" fill="#D9D9D9"/>
</svg>
