<svg width="13" height="80" viewBox="0 0 13 80" fill="none" xmlns="http://www.w3.org/2000/svg">
<rect width="3.10077" height="80.1152" transform="matrix(-0.993425 -0.114487 -0.114487 0.993425 12.2526 0.35498)" fill="#FFE8E8"/>
<path fill-rule="evenodd" clip-rule="evenodd" d="M10.8781 12.2815L11.3306 8.35465L8.36873 6.97164L7.91618 10.8985L10.8781 12.2815ZM9.99703 19.9267L10.4496 15.9998L7.48767 14.6168L7.03512 18.5437L9.99703 19.9267ZM9.11601 27.5715L9.56856 23.6447L6.60665 22.2617L6.15409 26.1885L9.11601 27.5715ZM8.23496 35.2166L8.68751 31.2897L5.7256 29.9067L5.27305 33.8336L8.23496 35.2166ZM7.35392 42.8616L7.80647 38.9347L4.84456 37.5517L4.39201 41.4785L7.35392 42.8616ZM6.47287 50.5066L6.92542 46.5797L3.96351 45.1967L3.51096 49.1236L6.47287 50.5066ZM5.59183 58.1516L6.04438 54.2247L3.08247 52.8417L2.62992 56.7685L5.59183 58.1516ZM4.71079 65.7965L5.16334 61.8697L2.20143 60.4867L1.74888 64.4135L4.71079 65.7965ZM3.82974 73.4416L4.2823 69.5147L1.32038 68.1317L0.867831 72.0586L3.82974 73.4416ZM0.439353 75.7766L5.39917e-05 79.5884L3.08044 79.9434L3.40127 77.1596L0.439353 75.7766ZM8.79722 3.25358L11.7591 4.63659L12.2117 0.709716L11.1896 0.232482L9.17218 -1.67257e-05L8.79722 3.25358Z" fill="#F76464"/>
</svg>
