<svg width="90" height="93" viewBox="0 0 90 93" fill="none" xmlns="http://www.w3.org/2000/svg">
<ellipse cx="45" cy="69.2448" rx="45" ry="22.69" fill="#EEF2E0"/>
<path d="M87.2 69.2448C87.2 74.2715 82.8532 79.1249 75.1196 82.7806C67.463 86.3999 56.8153 88.6659 45 88.6659C33.1847 88.6659 22.5369 86.3999 14.8803 82.7806C7.1468 79.1249 2.79999 74.2715 2.79999 69.2448C2.79999 64.2182 7.1468 59.3648 14.8803 55.7091C22.5369 52.0897 33.1847 49.8238 45 49.8238C56.8153 49.8238 67.463 52.0897 75.1196 55.7091C82.8532 59.3648 87.2 64.2182 87.2 69.2448Z" stroke="#889A6B" stroke-width="2"/>
<path d="M89.5 69.2448C89.5 75.2213 84.6834 80.7641 76.5947 84.8426C68.5347 88.9066 57.365 91.4348 45 91.4348C32.635 91.4348 21.4653 88.9066 13.4053 84.8426C5.31661 80.7641 0.5 75.2213 0.5 69.2448C0.5 63.2683 5.31661 57.7255 13.4053 53.647C21.4653 49.5829 32.635 47.0547 45 47.0547C57.365 47.0547 68.5347 49.5829 76.5947 53.647C84.6834 57.7255 89.5 63.2683 89.5 69.2448Z" stroke="#889A6B"/>
<path d="M45.9852 64.1235C47.3577 64.5091 48.0183 62.5809 46.7935 61.764V61.764C46.4538 61.5373 46.2212 61.1614 46.1661 60.7494L45.7728 57.8129C45.6356 56.7886 44.8192 55.9661 43.8568 55.8826L39.8973 55.5392C39.2415 55.4823 38.6049 55.191 38.0913 54.7127L33.7923 50.71C33.0212 49.9919 31.9131 49.9639 31.2183 50.6448L29.9857 51.8528C29.545 52.2847 28.8966 52.4029 28.2983 52.1604L26.5945 51.4698C25.2867 50.9397 24.3503 52.6085 25.3555 53.6778V53.6778C26.1634 54.5372 25.7308 55.9321 24.6418 55.9789L24.5444 55.9831C23.1677 56.0423 22.9342 58.0396 24.229 58.6811L27.3335 60.2195C27.8325 60.4667 28.2299 60.9154 28.4316 61.4591L29.2384 63.6348C29.5998 64.6094 30.5562 65.2127 31.4872 65.0535L36.0918 64.2658C36.5667 64.1846 37.0678 64.3012 37.4942 64.5923L41.2347 67.1456C42.3375 67.8984 43.5571 66.7089 42.9395 65.4828V65.4828C42.4218 64.4552 43.2144 63.3451 44.2567 63.6379L45.9852 64.1235Z" fill="#77C065"/>
<path d="M35.9781 65.3627C34.6384 65.9427 34.979 67.9762 36.396 67.8579V67.8579C36.7911 67.8249 37.1645 67.9877 37.4031 68.297L39.088 70.4815C39.6806 71.2497 40.7607 71.4006 41.6148 70.8345L45.0362 68.5667C45.622 68.1785 46.3038 68.0023 46.9677 68.0677L52.3658 68.5994C53.3573 68.6971 54.3132 67.99 54.5782 66.963L55.0405 65.1712C55.2085 64.5198 55.7029 63.9929 56.3251 63.8019L58.0331 63.2775C59.389 62.8613 59.4066 60.8594 58.0566 60.6201V60.6201C56.975 60.4284 56.6904 58.9904 57.5845 58.235L57.6639 58.168C58.7975 57.2104 58.0579 55.3988 56.6613 55.7119L53.3819 56.4472C52.8422 56.5682 52.2945 56.4525 51.8707 56.128L50.2081 54.855C49.4463 54.2717 48.3462 54.3969 47.6327 55.1481L44.1872 58.7757C43.8222 59.16 43.3394 59.3942 42.8382 59.4301L38.5798 59.7355C37.2924 59.8278 36.8073 61.6162 37.9002 62.2411V62.2411C38.8138 62.7634 38.6586 64.2023 37.6412 64.6427L35.9781 65.3627Z" fill="#889A6B"/>
<path d="M33.7991 52.8646C32.3548 53.0224 32.2419 55.0794 33.66 55.3989V55.3989C34.0585 55.4887 34.3909 55.7622 34.556 56.1359L35.7059 58.7394C36.1153 59.6664 37.1526 60.1422 38.1209 59.8472L41.8429 58.7131C42.5134 58.5088 43.2346 58.546 43.8814 58.8181L48.9117 60.935C49.8698 61.3383 50.9759 60.9412 51.4572 60.0213L52.2758 58.4568C52.581 57.8736 53.1861 57.5098 53.8447 57.5136L55.553 57.5234C56.9819 57.5316 57.4471 55.6096 56.1736 54.9594V54.9594C55.1582 54.4411 55.1938 52.9786 56.2331 52.5136L56.3242 52.4728C57.6474 51.8808 57.3107 49.9143 55.8652 49.7919L52.5787 49.5137C52.0178 49.4662 51.5025 49.1847 51.1593 48.7381L49.8531 47.039C49.2336 46.233 48.109 46.0184 47.2383 46.5401L43.1847 48.9687C42.7376 49.2365 42.2032 49.319 41.6955 49.1983L37.5896 48.2228C36.2993 47.9163 35.4153 49.4891 36.3469 50.4339V50.4339C37.1224 51.2203 36.6498 52.553 35.553 52.6729L33.7991 52.8646Z" fill="#A9CCA1"/>
<path d="M56.9989 64.1305C57.9769 64.4485 58.4614 63.0438 57.5677 62.4816V62.4816C57.3432 62.3404 57.1805 62.105 57.123 61.8385L56.7038 59.8948C56.5113 59.0017 55.8086 58.2981 54.9683 58.1567L51.455 57.5656C50.939 57.4788 50.4428 57.2469 50.0179 56.8939L46.0781 53.621C45.3826 53.0431 44.4531 52.9891 43.7865 53.4878L42.8313 54.2022C42.5127 54.4405 42.0915 54.485 41.7053 54.3212L39.782 53.5051C38.8721 53.1191 38.2441 54.3328 38.9932 55.0297V55.0297C39.6246 55.617 39.2871 56.6704 38.4835 56.6208L38.3993 56.6156C37.4252 56.5555 37.1948 57.9742 38.1054 58.4254L41.1297 59.9237C41.4717 60.0931 41.7555 60.3839 41.9295 60.743L42.7222 62.3797C43.1006 63.1607 43.8698 63.6519 44.6593 63.6166L48.6896 63.4367C49.0615 63.4201 49.4387 63.5255 49.7716 63.7389L53.5191 66.1413C54.295 66.6387 55.0866 65.7354 54.5803 64.9304V64.9304C54.1384 64.2278 54.6945 63.3811 55.439 63.6232L56.9989 64.1305Z" fill="#77C065"/>
<path d="M58.0893 57.0088C58.9837 56.0813 59.7181 54.8724 60.8207 54.3082C61.2846 54.0708 61.7985 53.9501 62.3312 53.964C70.8696 54.1869 77.6583 52.9254 80.4336 62.496C80.6577 63.2686 80.691 64.0742 80.5441 64.8247C80.3405 65.8651 79.6659 66.6395 79.0248 67.3806L64.373 84.3171C64.3055 84.3951 64.245 84.4811 64.1839 84.566C63.5538 85.4431 62.4418 85.6235 61.557 85.0036C61.4299 84.9145 61.3029 84.8238 61.1674 84.7548L45.0336 76.5411C44.2587 76.1466 43.739 75.1746 43.3569 74.2926C43.0793 73.6519 42.8068 73.0747 43.1798 72.4697L58.0893 57.0088Z" fill="#C48027"/>
<path d="M58.1944 56.7597C59.0673 55.8464 59.7853 54.6433 60.8861 54.1432C61.2596 53.9734 61.6656 53.885 62.0854 53.8888C70.0179 53.9596 76.2911 52.2518 78.76 61.1847C78.933 61.8108 78.9688 62.4586 78.8743 63.0717C78.7096 64.1402 78.0122 64.9273 77.3597 65.6778L62.8696 82.3428C62.8353 82.3823 62.8045 82.4259 62.7735 82.469C62.4583 82.9067 61.9028 82.9965 61.4607 82.6868C61.3972 82.6423 61.3337 82.5969 61.2659 82.5624L43.819 73.6802C43.7513 73.6458 43.687 73.6021 43.6268 73.5513C43.1951 73.1877 42.8749 72.9642 43.1798 72.4697L58.1944 56.7597Z" fill="url(#paint0_radial_208_1338)"/>
<path d="M11.7442 67.5276C11.8667 67.0297 12.336 66.7392 12.8307 66.855L22.892 69.2113C22.99 69.2342 23.0853 69.2725 23.1746 69.3249L33.1 75.1477C33.2188 75.2174 33.3479 75.262 33.4797 75.2789L44.4906 76.6915C44.5896 76.7042 44.6874 76.7325 44.7805 76.7756L54.3333 81.1978C54.803 81.4152 55.0669 81.9591 54.9443 82.4571L53.7449 87.33C53.6033 87.9055 53.0083 88.1873 52.4656 87.936L43.1006 83.6008C43.0075 83.5577 42.9097 83.5293 42.8107 83.5166L31.7998 82.1041C31.668 82.0872 31.5388 82.0426 31.4201 81.9729L21.4947 76.1501C21.4054 76.0977 21.3101 76.0594 21.2121 76.0364L11.3485 73.7265C10.7769 73.5926 10.4031 72.9761 10.5447 72.4006L11.7442 67.5276Z" fill="#DB6363"/>
<path d="M11.7499 67.5043L22.7599 70.3835L33.14 75.8221L44.36 77.8482L54.9501 82.4337L53.6901 87.5526L43.1001 82.9671L31.88 80.941L21.5 75.5024L10.49 72.6232L11.7499 67.5043Z" fill="#FAA3A3"/>
<path d="M11.5399 68.3573L22.48 71.5209L33 76.3908L44.08 78.9856L54.7401 83.2868L53.9001 86.6994L43.2401 82.3982L32.1601 79.8034L21.64 74.9335L10.7 71.7699L11.5399 68.3573Z" fill="#FFC9C9"/>
<path d="M11.3299 69.2105L22.2 72.6585L32.86 76.9596L43.8 80.1232L54.5301 84.14L54.1101 85.8462L43.3801 81.8295L32.44 78.6659L21.78 74.3648L10.91 70.9168L11.3299 69.2105Z" fill="#FFE1E1"/>
<path d="M4.1556 66.3033C4.30832 65.8132 4.79234 65.5585 5.27561 65.714L15.1822 68.9001C15.2765 68.9304 15.3673 68.9755 15.4514 69.0339L25.0158 75.6685C25.1278 75.7462 25.2512 75.8002 25.3789 75.8274L36.2871 78.1494C36.383 78.1698 36.4767 78.2054 36.5651 78.255L45.8421 83.4616C46.2946 83.7156 46.5228 84.2819 46.3701 84.772L44.8899 89.5223C44.7138 90.0876 44.1076 90.324 43.5857 90.0311L34.4869 84.9245C34.3985 84.8749 34.3048 84.8393 34.2089 84.8189L23.3007 82.4968C23.173 82.4696 23.0496 82.4156 22.9376 82.338L13.3732 75.7033C13.2891 75.645 13.1983 75.5999 13.104 75.5695L3.38773 72.4446C2.83036 72.2654 2.4993 71.6189 2.67543 71.0536L4.1556 66.3033Z" fill="#DB6363"/>
<path d="M4.16476 66.2739L14.9782 70.0574L25.0122 76.3419L36.0854 79.2917L46.3793 84.7426L44.8206 89.7447L34.5268 84.2938L23.4536 81.344L13.4195 75.0595L2.60612 71.276L4.16476 66.2739Z" fill="#FAA3A3"/>
<path d="M3.905 67.1076L14.6318 71.169L24.8391 76.8977L35.7391 80.4033L46.1195 85.5763L45.0804 88.911L34.7 83.7381L23.8 80.2325L13.5927 74.5037L2.86591 70.4423L3.905 67.1076Z" fill="#FFC9C9"/>
<path d="M3.64522 67.9412L14.2854 72.2805L24.6659 77.4535L35.3927 81.5149L45.8597 86.4099L45.3402 88.0773L34.8731 83.1822L24.1463 79.1208L13.7659 73.9479L3.12567 69.6086L3.64522 67.9412Z" fill="#FFE1E1"/>
<path d="M58.7463 69.8356C58.3626 70.2691 58.686 70.9643 59.198 70.8065L59.2299 70.7967C59.3989 70.7446 59.5737 70.7886 59.6978 70.9144L60.0365 71.2576C60.4392 71.6658 61.0895 71.5587 61.4311 71.0281V71.0281C61.7076 70.5987 62.1392 70.3324 62.5914 70.3123L63.1295 70.2884C63.646 70.2655 64.0513 69.7151 63.9749 69.1405L63.947 68.93C63.9124 68.6698 64.0261 68.401 64.2315 68.2572L64.3573 68.1692C64.7942 67.8634 64.6684 67.1252 64.1746 67.0968V67.0968C63.8157 67.0763 63.6143 66.6469 63.7878 66.2724L63.8013 66.2432C64.041 65.726 63.5979 65.1978 63.1357 65.4496L62.6245 65.728C62.4054 65.8473 62.1565 65.8415 61.9574 65.7123L61.8912 65.6693C61.4217 65.3647 60.7938 65.6511 60.5959 66.26L60.4404 66.7385C60.3194 67.1112 60.0402 67.3983 59.7043 67.4956L58.9872 67.7034C58.4986 67.8449 58.3193 68.5491 58.6806 68.9073L58.7504 68.9765C58.9683 69.1924 58.9663 69.587 58.7463 69.8356V69.8356Z" fill="#FFDE6A"/>
<path d="M61 61.9588L64.7077 64.3231L64.8652 65.0805C64.9288 65.3867 64.8766 65.7041 64.722 65.95L61.7448 70.6859C61.7154 70.7326 61.658 70.7409 61.6166 70.7044L57.9693 67.4851C57.7892 67.3262 57.6612 67.0994 57.6086 66.8462L57.4325 65.9991L61 61.9588Z" fill="#F3D057"/>
<path d="M61 61.9588L64 64.3286L64.2985 64.9741L61.4339 69.5309L61.6622 70.6289C61.6723 70.6778 61.6256 70.7123 61.5909 70.6816L57.9073 67.4304C57.7073 67.2539 57.5724 66.9945 57.5324 66.71L57.4325 65.9991L61 61.9588Z" fill="#EDC94F"/>
<path d="M61 61.9588L64.7077 64.3231L61.4871 69.4463C61.4577 69.493 61.4003 69.5013 61.3589 69.4648L57.4325 65.9991L61 61.9588Z" fill="#FFDE6A"/>
<path fill-rule="evenodd" clip-rule="evenodd" d="M37.8361 50.7454C37.7743 50.6262 37.6153 50.727 37.6375 50.8657C37.9469 52.7961 37.0906 54.9762 35.3895 56.2141C33.6885 57.4519 31.6602 57.3709 30.3472 56.1709C30.2528 56.0847 30.1051 56.2071 30.1668 56.3263V56.3263C31.2873 58.4881 33.9124 58.9913 36.0302 57.4502C38.148 55.909 38.9565 52.9072 37.8361 50.7454V50.7454Z" fill="#FFFEF5" fill-opacity="0.92"/>
<path fill-rule="evenodd" clip-rule="evenodd" d="M53.1611 56.3859C53.1491 56.5111 52.9733 56.4996 52.9395 56.3769C52.5002 54.7818 50.9218 53.4605 48.9367 53.1947C46.9517 52.9289 45.1642 53.7997 44.4356 55.2384C44.3796 55.3491 44.206 55.3137 44.218 55.1886V55.1886C44.4175 53.0959 46.5813 51.6675 49.0508 51.9981C51.5204 52.3288 53.3606 54.2933 53.1611 56.3859V56.3859Z" fill="#FFFEF5" fill-opacity="0.92"/>
<path fill-rule="evenodd" clip-rule="evenodd" d="M47.1828 65.7405C47.1087 65.8495 46.969 65.7344 46.9986 65.598C47.3526 63.9717 46.6182 61.8502 45.061 60.363C43.5037 58.8758 41.5982 58.4761 40.3322 59.2313C40.2261 59.2946 40.1014 59.1573 40.1756 59.0483V59.0483C41.2909 57.4086 43.7637 57.5775 45.6987 59.4255C47.6337 61.2735 48.2982 64.1008 47.1828 65.7405V65.7405Z" fill="#FFFEF5" fill-opacity="0.92"/>
<mask id="path-24-inside-1_208_1338" fill="white">
<ellipse cx="49.5" cy="60.1814" rx="1.5" ry="1.77739"/>
</mask>
<path d="M49 60.1814C49 60.2219 48.9853 60.2038 49.0322 60.1483C49.0827 60.0884 49.2406 59.9588 49.5 59.9588V63.9588C51.7376 63.9588 53 61.9361 53 60.1814H49ZM49.5 59.9588C49.7594 59.9588 49.9173 60.0884 49.9678 60.1483C50.0147 60.2038 50 60.2219 50 60.1814H46C46 61.9361 47.2624 63.9588 49.5 63.9588V59.9588ZM50 60.1814C50 60.1408 50.0147 60.1589 49.9678 60.2145C49.9173 60.2743 49.7594 60.404 49.5 60.404V56.404C47.2624 56.404 46 58.4267 46 60.1814H50ZM49.5 60.404C49.2406 60.404 49.0827 60.2743 49.0322 60.2145C48.9853 60.1589 49 60.1408 49 60.1814H53C53 58.4267 51.7376 56.404 49.5 56.404V60.404Z" fill="#444444" mask="url(#path-24-inside-1_208_1338)"/>
<mask id="path-26-inside-2_208_1338" fill="white">
<ellipse cx="43.5" cy="54.2568" rx="1.5" ry="1.77739"/>
</mask>
<path d="M43 54.2568C43 54.2973 42.9853 54.2792 43.0322 54.2236C43.0827 54.1638 43.2406 54.0341 43.5 54.0341V58.0341C45.7376 58.0341 47 56.0115 47 54.2568H43ZM43.5 54.0341C43.7594 54.0341 43.9173 54.1638 43.9678 54.2236C44.0147 54.2792 44 54.2973 44 54.2568H40C40 56.0115 41.2624 58.0341 43.5 58.0341V54.0341ZM44 54.2568C44 54.2162 44.0147 54.2343 43.9678 54.2899C43.9173 54.3497 43.7594 54.4794 43.5 54.4794V50.4794C41.2624 50.4794 40 52.502 40 54.2568H44ZM43.5 54.4794C43.2406 54.4794 43.0827 54.3497 43.0322 54.2899C42.9853 54.2343 43 54.2162 43 54.2568H47C47 52.502 45.7376 50.4794 43.5 50.4794V54.4794Z" fill="#444444" mask="url(#path-26-inside-2_208_1338)"/>
<mask id="path-28-inside-3_208_1338" fill="white">
<ellipse cx="33.5" cy="60.1814" rx="1.5" ry="1.77739"/>
</mask>
<path d="M33 60.1814C33 60.2219 32.9853 60.2038 33.0322 60.1483C33.0827 60.0884 33.2406 59.9588 33.5 59.9588V63.9588C35.7376 63.9588 37 61.9361 37 60.1814H33ZM33.5 59.9588C33.7594 59.9588 33.9173 60.0884 33.9678 60.1483C34.0147 60.2038 34 60.2219 34 60.1814H30C30 61.9361 31.2624 63.9588 33.5 63.9588V59.9588ZM34 60.1814C34 60.1408 34.0147 60.1589 33.9678 60.2145C33.9173 60.2743 33.7594 60.404 33.5 60.404V56.404C31.2624 56.404 30 58.4267 30 60.1814H34ZM33.5 60.404C33.2406 60.404 33.0827 60.2743 33.0322 60.2145C32.9853 60.1589 33 60.1408 33 60.1814H37C37 58.4267 35.7376 56.404 33.5 56.404V60.404Z" fill="#444444" mask="url(#path-28-inside-3_208_1338)"/>
<ellipse cx="6.35972" cy="8.06814" rx="6.35972" ry="8.06814" transform="matrix(0.172732 -1.04126 0.912129 0.212446 11.9544 66.8441)" fill="#EDE9C7"/>
<ellipse cx="5.58302" cy="7.97716" rx="5.58302" ry="7.97716" transform="matrix(0.172732 -1.04126 0.912129 0.212446 12.3371 65.2534)" fill="#FFFEF2"/>
<ellipse cx="4.46641" cy="4.84088" rx="4.46641" ry="4.84088" transform="matrix(0.172732 -1.04126 0.912129 0.212446 13.3968 64.2925)" fill="#FFDE6A"/>
<ellipse cx="6.15277" cy="8.34175" rx="6.15277" ry="8.34175" transform="matrix(-0.397305 -0.990713 0.81207 -0.457246 31.1094 77.3239)" fill="#EDE9C7"/>
<ellipse cx="5.40135" cy="8.24769" rx="5.40135" ry="8.24769" transform="matrix(-0.397305 -0.990713 0.81207 -0.457246 30.6176 75.7758)" fill="#FFFEF2"/>
<ellipse cx="4.32108" cy="5.00505" rx="4.32108" ry="5.00505" transform="matrix(-0.397305 -0.990713 0.81207 -0.457246 30.9864 74.2562)" fill="#FFDE6A"/>
<path d="M50.7873 47.114C50.9065 47.763 50.5351 48.5232 50.2612 48.5938C49.9873 48.6644 49.9147 48.0187 49.7955 47.3697C49.6763 46.7206 49.7778 46.0066 50.0517 45.936C50.3255 45.8654 50.6682 46.4649 50.7873 47.114Z" fill="#36652A"/>
<path d="M49.641 48.1437C49.7602 48.7928 49.3888 49.5529 49.1149 49.6235C48.841 49.6941 48.7684 49.0485 48.6492 48.3994C48.53 47.7503 48.6315 47.0363 48.9054 46.9657C49.1792 46.8951 49.5219 47.4946 49.641 48.1437Z" fill="#36652A"/>
<path d="M48.4947 49.1734C48.6138 49.8225 48.2424 50.5826 47.9685 50.6532C47.6946 50.7238 47.622 50.0782 47.5028 49.4291C47.3837 48.78 47.4851 48.0661 47.759 47.9954C48.0329 47.9248 48.3755 48.5244 48.4947 49.1734Z" fill="#36652A"/>
<path d="M51.532 47.9652C51.0001 47.7554 50.3226 48.1117 50.2341 48.4269C50.1455 48.742 50.6795 48.8966 51.2114 49.1064C51.7433 49.3162 52.3533 49.273 52.4418 48.9579C52.5303 48.6428 52.0639 48.175 51.532 47.9652Z" fill="#36652A"/>
<path d="M50.3857 48.9949C49.8538 48.7851 49.1763 49.1414 49.0877 49.4565C48.9992 49.7716 49.5332 49.9262 50.0651 50.136C50.597 50.3458 51.2069 50.3027 51.2955 49.9875C51.384 49.6724 50.9176 49.2047 50.3857 48.9949Z" fill="#36652A"/>
<path d="M49.2393 50.0244C48.7074 49.8146 48.0298 50.1709 47.9413 50.4861C47.8528 50.8012 48.3868 50.9558 48.9187 51.1656C49.4506 51.3754 50.0605 51.3322 50.149 51.0171C50.2376 50.702 49.7712 50.2342 49.2393 50.0244Z" fill="#36652A"/>
<path d="M49.4531 49.6504C49.9924 49.4692 50.3833 48.7229 50.3068 48.4034C50.2304 48.0838 49.9058 49.1683 49.3665 49.3495C48.8271 49.5307 47.9694 50.3663 48.0459 50.6858C48.1224 51.0053 48.9138 49.8316 49.4531 49.6504Z" fill="#36652A"/>
<path d="M30.419 51.3311C30.2998 51.9802 30.6713 52.7403 30.9451 52.8109C31.219 52.8816 31.2916 52.2359 31.4108 51.5868C31.53 50.9378 31.4286 50.2238 31.1547 50.1532C30.8808 50.0826 30.5382 50.6821 30.419 51.3311Z" fill="#36652A"/>
<path d="M31.5653 52.3609C31.4461 53.0099 31.8176 53.7701 32.0914 53.8407C32.3653 53.9113 32.4379 53.2656 32.5571 52.6166C32.6763 51.9675 32.5749 51.2535 32.301 51.1829C32.0271 51.1123 31.6845 51.7118 31.5653 52.3609Z" fill="#36652A"/>
<path d="M32.7117 53.3906C32.5925 54.0396 32.9639 54.7998 33.2378 54.8704C33.5117 54.941 33.5843 54.2953 33.7035 53.6463C33.8227 52.9972 33.7212 52.2832 33.4473 52.2126C33.1735 52.142 32.8308 52.7415 32.7117 53.3906Z" fill="#36652A"/>
<path d="M29.6743 52.1824C30.2062 51.9726 30.8837 52.329 30.9723 52.6441C31.0608 52.9592 30.5268 53.1138 29.9949 53.3236C29.463 53.5334 28.8531 53.4902 28.7645 53.1751C28.676 52.86 29.1424 52.3922 29.6743 52.1824Z" fill="#36652A"/>
<path d="M30.8206 53.212C31.3525 53.0022 32.0301 53.3586 32.1186 53.6737C32.2071 53.9888 31.6731 54.1434 31.1412 54.3532C30.6093 54.563 29.9994 54.5198 29.9109 54.2047C29.8223 53.8896 30.2887 53.4218 30.8206 53.212Z" fill="#36652A"/>
<path d="M31.9671 54.2416C32.4989 54.0318 33.1765 54.3881 33.265 54.7032C33.3536 55.0184 32.8195 55.1729 32.2877 55.3827C31.7558 55.5925 31.1458 55.5494 31.0573 55.2343C30.9688 54.9191 31.4352 54.4514 31.9671 54.2416Z" fill="#36652A"/>
<path d="M31.7532 53.8676C31.2139 53.6864 30.823 52.9401 30.8995 52.6206C30.9759 52.301 31.3006 53.3855 31.8399 53.5667C32.3792 53.7479 33.2369 54.5835 33.1604 54.903C33.084 55.2225 32.2925 54.0488 31.7532 53.8676Z" fill="#36652A"/>
<ellipse cx="3.33742" cy="3.14524" rx="3.33742" ry="3.14524" transform="matrix(0.988143 -0.153534 0.109992 0.993932 35.0881 53.1163)" fill="#F76464"/>
<path d="M38.13 52.8514C38.2662 52.4302 38.8218 52.3438 39.0451 52.7092L39.0791 52.7649C39.1604 52.8979 39.3129 52.9676 39.4697 52.9432L39.7137 52.9053C40.0729 52.8495 40.2433 53.3168 39.942 53.5315V53.5315C39.7884 53.641 39.7422 53.85 39.8372 54.0055L39.8501 54.0267C40.0316 54.3237 39.7299 54.7014 39.4009 54.589L39.0107 54.4557C38.8556 54.4027 38.6816 54.4298 38.5432 54.5284L38.1952 54.7764C37.9018 54.9855 37.5281 54.7127 37.6388 54.3703L37.6467 54.3459C37.7047 54.1665 37.6146 53.9788 37.4423 53.9199V53.9199C37.1045 53.8045 37.1675 53.3009 37.5266 53.2451L37.7707 53.2072C37.9274 53.1829 38.0596 53.069 38.1092 52.9156L38.13 52.8514Z" fill="#3A6130"/>
<ellipse cx="3.45738" cy="3.06119" rx="3.45738" ry="3.06119" transform="matrix(0.860861 0.50884 -0.388005 0.921657 46.3755 52.0136)" fill="#F66464"/>
<path d="M49.0293 53.8031C49.3496 53.5369 49.8353 53.8239 49.8484 54.2873L49.8508 54.371C49.8554 54.5324 49.9421 54.6843 50.0742 54.7625L50.3247 54.9105C50.6318 55.092 50.5395 55.5931 50.2028 55.5725V55.5725C50.0272 55.5617 49.8888 55.7122 49.8944 55.9078L49.8952 55.9365C49.9055 56.2986 49.4994 56.4343 49.2905 56.1385L48.9879 55.7103C48.8889 55.5702 48.7415 55.483 48.5875 55.4736L48.1168 55.4448C47.7917 55.4249 47.639 54.9589 47.8893 54.7508L47.9091 54.7343C48.0444 54.6219 48.0625 54.4005 47.9497 54.2407V54.2407C47.7333 53.9344 48.0156 53.5456 48.3226 53.7271L48.5731 53.8752C48.7053 53.9533 48.8599 53.944 48.9715 53.8512L49.0293 53.8031Z" fill="#3A6130"/>
<path d="M71.5772 75.9759C71.2371 75.5553 71.3479 74.8738 71.7665 74.5135C73.6936 72.8549 73.84 72.7289 76.6087 70.346C79.4093 67.9356 79.2969 68.0183 81.4531 66.1727C81.8715 65.8145 82.4496 65.9024 82.6816 66.4144C84.2478 69.8715 83.3877 74.3204 80.5447 76.7672C77.7026 79.2133 73.8676 78.8076 71.5772 75.9759Z" fill="#F69D5C"/>
<path d="M72.0292 75.5859C71.6848 75.1701 71.7953 74.4887 72.2139 74.1284C73.6037 72.9323 74.1618 72.4519 76.6087 70.346C79.2797 68.0472 77.5156 69.5309 81.005 66.5559C81.4235 66.1992 82.0015 66.287 82.2282 66.8016C83.6246 69.9715 82.8255 74.0195 80.2298 76.2535C77.6355 78.4864 74.1418 78.1363 72.0292 75.5859Z" fill="#FBE2B4"/>
<path d="M76.7032 71.0275C76.6896 70.8777 76.8222 70.7636 76.9382 70.8252L81.5788 73.2895C81.6678 73.3368 81.6988 73.4664 81.6447 73.5656L81.3323 74.139C80.5642 75.5483 79.3723 76.5741 78.0037 77.0037L77.4469 77.1785C77.3505 77.2088 77.2561 77.1338 77.2457 77.0188L76.7032 71.0275Z" fill="#F69D5C"/>
<path d="M77.2441 70.5425C77.1307 70.4833 77.1175 70.3005 77.2204 70.212L81.2191 66.7704C81.3021 66.699 81.4175 66.7299 81.4616 66.8353L81.7347 67.4891C82.3635 68.9946 82.4505 70.7498 81.9765 72.371L81.8735 72.7231C81.8415 72.8328 81.736 72.8884 81.6476 72.8422L77.2441 70.5425Z" fill="#F69D5C"/>
<path d="M76.3448 71.3128C76.3328 71.1672 76.1914 71.0952 76.0882 71.1821L72.0718 74.5658C71.9876 74.6367 71.976 74.7775 72.0475 74.8603L72.4863 75.3685C73.5001 76.5428 74.8818 77.1836 76.3296 77.1508L76.6444 77.1437C76.7422 77.1415 76.8194 77.0402 76.81 76.9265L76.3448 71.3128Z" fill="#F69D5C"/>
<defs>
<radialGradient id="paint0_radial_208_1338" cx="0" cy="0" r="1" gradientUnits="userSpaceOnUse" gradientTransform="translate(61.021 67.2299) rotate(121.655) scale(19.8044 20.3928)">
<stop offset="0.28125" stop-color="#FEECAA"/>
<stop offset="0.625" stop-color="#FBCD89"/>
<stop offset="1" stop-color="#D99F5B"/>
</radialGradient>
</defs>
</svg>
