<svg width="92" height="110" viewBox="0 0 92 110" fill="none" xmlns="http://www.w3.org/2000/svg">
<ellipse cx="46" cy="82.5" rx="46" ry="27.5" fill="#EE8B8B"/>
<ellipse cx="46" cy="81" rx="39" ry="22" fill="#FFB7B7"/>
<path fill-rule="evenodd" clip-rule="evenodd" d="M71.7531 62.8283H16.5521V90.2853C16.552 90.3015 16.552 90.3177 16.5521 90.3339V90.3914H16.5535C16.5881 91.3141 17.2064 92.2125 18.2916 92.3886C18.4062 92.4072 18.5213 92.4272 18.6324 92.4611C34.1473 97.1889 50.4647 98.6965 66.5832 96.8916L67.3025 96.811C67.51 96.7878 67.7192 96.779 67.9284 96.7702C68.2069 96.7586 68.4854 96.7469 68.7596 96.7011C69.8187 96.5241 70.7181 95.7659 71.0463 94.7028C71.4878 93.2726 71.7165 91.8236 71.7489 90.3914H71.7531V62.8283Z" fill="#FCE2AF"/>
<path d="M18.4653 65.4446C16.3108 65.2568 15.8208 62.3283 17.7972 61.4514L48.2225 47.9529C52.1573 46.2072 56.642 46.1736 60.6025 47.8603L62.1101 48.5023C69.5816 51.6841 73.4389 59.9869 71.0463 67.7372C70.6447 69.038 69.3881 69.8823 68.03 69.764H67.1602C50.8329 69.764 34.5377 68.3185 18.4653 65.4446V65.4446Z" fill="#FFF9F4"/>
<path fill-rule="evenodd" clip-rule="evenodd" d="M71.7529 74.3113L43.1811 73.4351L16.552 69.357V74.5586L43.1811 78.5145L71.7529 79.4653V74.3113Z" fill="#FFF6EE"/>
<path fill-rule="evenodd" clip-rule="evenodd" d="M71.7529 83.2039L43.1885 82.7077L16.552 79.1411V88.1126L43.1885 92.1213L71.7529 92.8096V83.2039Z" fill="#FFF6EE"/>
<path d="M64.237 84.777C67.9503 85.1203 68.9591 88.1355 68.6286 91.7094C64.7982 91.5944 66.4956 91.8772 62.7823 91.5338C59.0689 91.1905 58.9744 91.4194 53.8859 90.4044C54.2163 86.8305 60.5237 84.4336 64.237 84.777Z" fill="#F76464"/>
<path d="M28.2332 81.9385C31.9466 82.2818 32.9553 85.297 32.6249 88.8709C28.7944 88.7559 30.4918 89.0387 26.7785 88.6953C23.0652 88.352 22.9707 88.5809 17.8821 87.5659C18.2126 83.992 24.5199 81.5951 28.2332 81.9385Z" fill="#F76464"/>
<path d="M45.6554 90.23C49.3724 90.5313 50.8854 87.7349 51.1754 84.1576C47.3823 83.6112 49.1031 83.6249 45.3861 83.3236C41.6692 83.0222 41.6155 82.7804 36.4282 82.9039C36.1382 86.4812 41.9385 89.9287 45.6554 90.23Z" fill="#F76464"/>
<path d="M59.2787 46.971C59.2787 49.0811 57.4895 49.6069 55.2824 49.6069C53.0753 49.6069 51.2861 49.0811 51.2861 46.971C51.2861 45.193 52.8601 42.7078 54.4203 40.3213C54.8216 39.7073 55.7337 39.7127 56.1313 40.3291C57.5337 42.5035 59.2787 45.2395 59.2787 46.971Z" fill="url(#paint0_radial_125_591)"/>
<path d="M65.7771 52.2745C65.7771 54.3845 63.9879 54.9104 61.7808 54.9104C59.5737 54.9104 57.7845 54.3845 57.7845 52.2745C57.7845 50.8245 58.8313 48.9042 60.0637 46.9506C60.8464 45.7099 62.7012 45.7189 63.4777 46.9635C64.6489 48.8405 65.7771 50.8822 65.7771 52.2745Z" fill="url(#paint1_radial_125_591)"/>
<path d="M69.8108 58.9225C69.8108 61.0326 68.0216 61.5584 65.8145 61.5584C63.6074 61.5584 61.8182 61.0326 61.8182 58.9225C61.8182 57.4725 62.865 55.5522 64.0974 53.5987C64.8801 52.3579 66.7349 52.3669 67.5114 53.6115C68.6826 55.4885 69.8108 57.5302 69.8108 58.9225Z" fill="url(#paint2_radial_125_591)"/>
<path d="M69.3627 66.1681C69.3627 68.2782 67.5735 68.804 65.3664 68.804C63.1593 68.804 61.3701 68.2782 61.3701 66.1681C61.3701 64.39 62.9441 61.9048 64.5043 59.5183C64.9056 58.9044 65.8177 58.9098 66.2153 59.5262C67.6177 61.7005 69.3627 64.4366 69.3627 66.1681Z" fill="url(#paint3_radial_125_591)"/>
<path d="M57.1873 57.2195C57.1873 60.9486 54.2778 62.2307 50.6887 62.2307C47.0996 62.2307 44.1901 60.9486 44.1901 57.2195C44.1901 53.4903 47.0996 47.5154 50.6887 47.5154C54.2778 47.5154 57.1873 53.4903 57.1873 57.2195Z" fill="#F76464"/>
<defs>
<radialGradient id="paint0_radial_125_591" cx="0" cy="0" r="1" gradientUnits="userSpaceOnUse" gradientTransform="translate(55.2451 41.4276) rotate(89.7384) scale(8.17938 6.16334)">
<stop stop-color="#FFF5F0"/>
<stop offset="0.0001" stop-color="#FFF5F0"/>
<stop offset="1" stop-color="#FFECE2"/>
</radialGradient>
<radialGradient id="paint1_radial_125_591" cx="0" cy="0" r="1" gradientUnits="userSpaceOnUse" gradientTransform="translate(61.7435 46.7311) rotate(89.7384) scale(8.17938 6.16334)">
<stop stop-color="#FFF5F0"/>
<stop offset="0.0001" stop-color="#FFF5F0"/>
<stop offset="1" stop-color="#FFECE2"/>
</radialGradient>
<radialGradient id="paint2_radial_125_591" cx="0" cy="0" r="1" gradientUnits="userSpaceOnUse" gradientTransform="translate(65.7772 53.3791) rotate(89.7384) scale(8.17938 6.16334)">
<stop stop-color="#FFF5F0"/>
<stop offset="0.0001" stop-color="#FFF5F0"/>
<stop offset="1" stop-color="#FFECE2"/>
</radialGradient>
<radialGradient id="paint3_radial_125_591" cx="0" cy="0" r="1" gradientUnits="userSpaceOnUse" gradientTransform="translate(65.329 60.6247) rotate(89.7384) scale(8.17938 6.16334)">
<stop stop-color="#FFF5F0"/>
<stop offset="0.0001" stop-color="#FFF5F0"/>
<stop offset="1" stop-color="#FFECE2"/>
</radialGradient>
</defs>
</svg>
