<svg width="100" height="58" viewBox="0 0 100 58" fill="none" xmlns="http://www.w3.org/2000/svg">
<path d="M97.9 38C97.9 39.9979 96.8964 42.1138 94.6278 44.2591C92.3549 46.4087 88.9531 48.4413 84.5754 50.1923C75.8317 53.6898 63.6084 55.9 50 55.9C36.3916 55.9 24.1683 53.6898 15.4246 50.1923C11.0469 48.4413 7.64515 46.4087 5.37217 44.2591C3.10363 42.1138 2.1 39.9979 2.1 38C2.1 36.0021 3.10363 33.8862 5.37217 31.7409C7.64515 29.5913 11.0469 27.5587 15.4246 25.8077C24.1683 22.3102 36.3916 20.1 50 20.1C63.6084 20.1 75.8317 22.3102 84.5754 25.8077C88.9531 27.5587 92.3549 29.5913 94.6278 31.7409C96.8964 33.8862 97.9 36.0021 97.9 38Z" fill="#FFECE2" stroke="#F76464" stroke-width="4.2"/>
<path d="M84.9781 49.9016C84.4454 50.447 83.2953 51.1287 82.942 51.2121C82.5886 51.2956 83.1658 50.7492 83.6986 50.2038C84.2313 49.6585 85.0567 49.039 85.4101 48.9555C85.7634 48.872 85.5108 49.3562 84.9781 49.9016Z" fill="#FFFCE4"/>
<path d="M82.7579 50.8791C82.2252 51.4244 81.0751 52.1061 80.7217 52.1896C80.3684 52.2731 80.9456 51.7267 81.4783 51.1813C82.0111 50.6359 82.8365 50.0165 83.1899 49.933C83.5432 49.8495 83.2906 50.3337 82.7579 50.8791Z" fill="#FFFCE4"/>
<path d="M80.5376 51.8566C80.0049 52.402 78.8548 53.0837 78.5014 53.1671C78.1481 53.2506 78.7253 52.7042 79.258 52.1588C79.7907 51.6135 80.6162 50.994 80.9695 50.9105C81.3229 50.8271 81.0703 51.3112 80.5376 51.8566Z" fill="#FFFCE4"/>
<path d="M84.8853 50.5673C84.5494 50.4325 83.4918 50.7944 83.0824 51.0715C82.6731 51.3486 83.0669 51.436 83.4027 51.5707C83.7386 51.7055 84.4103 51.6172 84.8197 51.3401C85.2291 51.063 85.2211 50.7021 84.8853 50.5673Z" fill="#FFFCE4"/>
<path d="M82.665 51.5448C82.3292 51.41 81.2716 51.772 80.8622 52.0491C80.4528 52.3262 80.8467 52.4135 81.1825 52.5483C81.5184 52.683 82.1901 52.5948 82.5995 52.3177C83.0089 52.0406 83.0009 51.6796 82.665 51.5448Z" fill="#FFFCE4"/>
<path d="M80.4448 52.5222C80.109 52.3875 79.0514 52.7494 78.642 53.0265C78.2326 53.3036 78.6264 53.3909 78.9623 53.5257C79.2982 53.6605 79.9699 53.5722 80.3793 53.2951C80.7887 53.018 80.7807 52.657 80.4448 52.5222Z" fill="#FFFCE4"/>
<path d="M81.0427 52.1842C81.7811 51.9838 82.9373 51.3123 83.1812 51.0453C83.4251 50.7783 81.9958 51.7336 81.2574 51.934C80.519 52.1345 78.792 52.9216 78.548 53.1886C78.3041 53.4556 80.3043 52.3847 81.0427 52.1842Z" fill="#FFFCE4"/>
<path d="M72.1295 53.2175C71.509 53.6473 70.2578 54.0883 69.8959 54.1001C69.534 54.1118 70.1984 53.6899 70.8189 53.2601C71.4394 52.8303 72.3606 52.3859 72.7226 52.3741C73.0845 52.3624 72.75 52.7877 72.1295 53.2175Z" fill="#FFFCE4"/>
<path d="M69.7747 53.7365C69.1542 54.1662 67.903 54.6073 67.5411 54.619C67.1792 54.6308 67.8436 54.2089 68.464 53.7791C69.0845 53.3493 70.0058 52.9049 70.3677 52.8931C70.7296 52.8813 70.3952 53.3067 69.7747 53.7365Z" fill="#FFFCE4"/>
<path d="M67.4194 54.2554C66.7989 54.6852 65.5478 55.1263 65.1858 55.138C64.8239 55.1498 65.4883 54.7279 66.1088 54.2981C66.7293 53.8683 67.6506 53.4239 68.0125 53.4121C68.3744 53.4003 68.0399 53.8257 67.4194 54.2554Z" fill="#FFFCE4"/>
<path d="M71.9197 53.853C71.6139 53.6539 70.5107 53.7992 70.0591 53.99C69.6076 54.1809 69.9788 54.3449 70.2846 54.544C70.5905 54.743 71.2659 54.7898 71.7174 54.599C72.1689 54.4082 72.2255 54.0521 71.9197 53.853Z" fill="#FFFCE4"/>
<path d="M69.5647 54.3719C69.2589 54.1728 68.1557 54.3182 67.7042 54.509C67.2527 54.6998 67.6238 54.8638 67.9297 55.0629C68.2355 55.262 68.9109 55.3087 69.3624 55.1179C69.8139 54.9271 69.8705 54.571 69.5647 54.3719Z" fill="#FFFCE4"/>
<path d="M67.2099 54.8908C66.904 54.6917 65.8008 54.837 65.3493 55.0278C64.8978 55.2186 65.269 55.3827 65.5748 55.5817C65.8806 55.7808 66.5561 55.8276 67.0076 55.6368C67.4591 55.446 67.5157 55.0898 67.2099 54.8908Z" fill="#FFFCE4"/>
<path d="M67.8573 54.6775C68.6182 54.6274 69.8735 54.1975 70.1607 53.9838C70.4479 53.77 68.8737 54.4243 68.1128 54.4744C67.3518 54.5246 65.5152 54.9546 65.228 55.1683C64.9408 55.3821 67.0963 54.7277 67.8573 54.6775Z" fill="#FFFCE4"/>
<path d="M57.9008 55.2715C57.2067 55.5491 55.8947 55.6933 55.5389 55.6219C55.1832 55.5506 55.9185 55.2908 56.6126 55.0132C57.3067 54.7357 58.2973 54.5127 58.6531 54.584C59.0088 54.6553 58.5949 54.994 57.9008 55.2715Z" fill="#FFFCE4"/>
<path d="M55.4951 55.2391C54.8011 55.5167 53.489 55.6609 53.1333 55.5895C52.7776 55.5182 53.5129 55.2583 54.207 54.9808C54.901 54.7033 55.8917 54.4803 56.2474 54.5516C56.6031 54.6229 56.1892 54.9616 55.4951 55.2391Z" fill="#FFFCE4"/>
<path d="M53.0895 55.2067C52.3954 55.4843 51.0834 55.6284 50.7277 55.5571C50.3719 55.4858 51.1072 55.2259 51.8013 54.9484C52.4954 54.6708 53.4861 54.4478 53.8418 54.5192C54.1975 54.5905 53.7836 54.9292 53.0895 55.2067Z" fill="#FFFCE4"/>
<path d="M57.5652 55.8437C57.3076 55.5794 56.2008 55.4688 55.7208 55.5517C55.2408 55.6347 55.5695 55.8797 55.8271 56.1441C56.0847 56.4084 56.7344 56.6086 57.2144 56.5257C57.6944 56.4428 57.8229 56.1081 57.5652 55.8437Z" fill="#FFFCE4"/>
<path d="M55.1597 55.8114C54.9021 55.5471 53.7953 55.4365 53.3153 55.5194C52.8353 55.6024 53.164 55.8474 53.4216 56.1118C53.6792 56.3761 54.3289 56.5763 54.8089 56.4934C55.2889 56.4105 55.4173 56.0758 55.1597 55.8114Z" fill="#FFFCE4"/>
<path d="M52.7541 55.7789C52.4965 55.5146 51.3896 55.404 50.9097 55.4869C50.4297 55.5698 50.7583 55.8149 51.0159 56.0792C51.2735 56.3436 51.9233 56.5438 52.4033 56.4609C52.8833 56.3779 53.0117 56.0432 52.7541 55.7789Z" fill="#FFFCE4"/>
<path d="M53.4302 55.719C54.1833 55.8442 55.4971 55.7119 55.8214 55.569C56.1457 55.4261 54.4744 55.7044 53.7213 55.5792C52.9682 55.454 51.0869 55.4535 50.7626 55.5964C50.4383 55.7393 52.677 55.5938 53.4302 55.719Z" fill="#FFFCE4"/>
<path d="M44.7189 55.6902C43.9963 55.869 42.6776 55.8299 42.3339 55.7098C41.9901 55.5897 42.7515 55.4342 43.4741 55.2554C44.1967 55.0765 45.2066 54.9929 45.5503 55.113C45.8941 55.2331 45.4415 55.5114 44.7189 55.6902Z" fill="#FFFCE4"/>
<path d="M42.3382 55.3243C41.6155 55.5031 40.2969 55.464 39.9531 55.3439C39.6094 55.2238 40.3707 55.0683 41.0934 54.8895C41.816 54.7106 42.8258 54.627 43.1696 54.7471C43.5133 54.8672 43.0608 55.1455 42.3382 55.3243Z" fill="#FFFCE4"/>
<path d="M39.9574 54.9585C39.2348 55.1373 37.9162 55.0981 37.5724 54.9781C37.2287 54.858 37.99 54.7024 38.7126 54.5236C39.4353 54.3448 40.4451 54.2612 40.7888 54.3813C41.1326 54.5013 40.6801 54.7796 39.9574 54.9585Z" fill="#FFFCE4"/>
<path d="M44.3149 56.2109C44.0925 55.9131 43.009 55.6499 42.5229 55.6655C42.0367 55.6811 42.332 55.9697 42.5544 56.2675C42.7768 56.5652 43.396 56.8539 43.8821 56.8383C44.3683 56.8227 44.5373 56.5087 44.3149 56.2109Z" fill="#FFFCE4"/>
<path d="M41.9344 55.8451C41.712 55.5473 40.6286 55.2841 40.1424 55.2997C39.6563 55.3153 39.9515 55.6038 40.1739 55.9016C40.3963 56.1994 41.0155 56.4881 41.5017 56.4724C41.9878 56.4568 42.1568 56.1429 41.9344 55.8451Z" fill="#FFFCE4"/>
<path d="M39.5537 55.4791C39.3313 55.1813 38.2478 54.9181 37.7617 54.9337C37.2755 54.9493 37.5708 55.2379 37.7932 55.5356C38.0156 55.8334 38.6348 56.1221 39.1209 56.1065C39.6071 56.0909 39.7761 55.7769 39.5537 55.4791Z" fill="#FFFCE4"/>
<path d="M40.2313 55.5134C40.9623 55.742 42.2811 55.7932 42.6204 55.6965C42.9597 55.5998 41.2683 55.6439 40.5373 55.4153C39.8063 55.1867 37.9414 54.925 37.6021 55.0217C37.2628 55.1184 39.5003 55.2849 40.2313 55.5134Z" fill="#FFFCE4"/>
<path d="M31.5288 54.2522C30.789 54.3155 29.4906 54.0695 29.1676 53.8967C28.8447 53.724 29.6194 53.6898 30.3592 53.6266C31.0991 53.5634 32.1095 53.6394 32.4324 53.8122C32.7554 53.985 32.2686 54.189 31.5288 54.2522Z" fill="#FFFCE4"/>
<path d="M29.2263 53.5163C28.4865 53.5795 27.1881 53.3335 26.8651 53.1608C26.5422 52.988 27.3169 52.9539 28.0568 52.8906C28.7966 52.8274 29.807 52.9035 30.1299 53.0762C30.4529 53.249 29.9661 53.453 29.2263 53.5163Z" fill="#FFFCE4"/>
<path d="M26.9239 52.7802C26.1841 52.8434 24.8857 52.5975 24.5627 52.4247C24.2398 52.2519 25.0146 52.2178 25.7544 52.1545C26.4942 52.0913 27.5046 52.1674 27.8276 52.3402C28.1505 52.5129 27.6637 52.717 26.9239 52.7802Z" fill="#FFFCE4"/>
<path d="M31.056 54.7037C30.8781 54.3742 29.8439 53.9436 29.361 53.8827C28.8781 53.8217 29.1293 54.1534 29.3072 54.4828C29.4851 54.8123 30.0566 55.195 30.5395 55.256C31.0224 55.317 31.2339 55.0331 31.056 54.7037Z" fill="#FFFCE4"/>
<path d="M28.7535 53.9677C28.5756 53.6383 27.5414 53.2077 27.0585 53.1467C26.5756 53.0857 26.8268 53.4175 27.0047 53.7469C27.1826 54.0763 27.7541 54.4591 28.237 54.52C28.7199 54.581 28.9314 54.2971 28.7535 53.9677Z" fill="#FFFCE4"/>
<path d="M26.4511 53.2317C26.2732 52.9023 25.2391 52.4717 24.7561 52.4107C24.2732 52.3497 24.5244 52.6814 24.7023 53.0109C24.8802 53.3403 25.4517 53.723 25.9346 53.784C26.4176 53.845 26.629 53.5611 26.4511 53.2317Z" fill="#FFFCE4"/>
<path d="M27.1163 53.3722C27.8069 53.7131 29.1038 53.9711 29.453 53.9288C29.8021 53.8865 28.1233 53.6642 27.4328 53.3232C26.7422 52.9823 24.9351 52.4304 24.5859 52.4727C24.2368 52.515 26.4257 53.0312 27.1163 53.3722Z" fill="#FFFCE4"/>
<path d="M19.3472 51.1144C18.6059 51.0757 17.3488 50.6538 17.0499 50.4382C16.7509 50.2226 17.5233 50.295 18.2647 50.3337C19.006 50.3725 19.9985 50.5864 20.2974 50.802C20.5963 51.0176 20.0886 51.1531 19.3472 51.1144Z" fill="#FFFCE4"/>
<path d="M17.1551 50.069C16.4138 50.0303 15.1567 49.6084 14.8577 49.3928C14.5588 49.1772 15.3312 49.2496 16.0725 49.2883C16.8139 49.327 17.8063 49.541 18.1053 49.7566C18.4042 49.9721 17.8964 50.1077 17.1551 50.069Z" fill="#FFFCE4"/>
<path d="M14.9627 49.0235C14.2214 48.9848 12.9643 48.5629 12.6653 48.3473C12.3664 48.1318 13.1388 48.2041 13.8801 48.2429C14.6215 48.2816 15.6139 48.4955 15.9129 48.7111C16.2118 48.9267 15.704 49.0623 14.9627 49.0235Z" fill="#FFFCE4"/>
<path d="M18.8229 51.4972C18.6871 51.1462 17.7147 50.5774 17.2433 50.4508C16.772 50.3241 16.9802 50.6874 17.1161 51.0385C17.2519 51.3895 17.7714 51.8473 18.2427 51.974C18.7141 52.1007 18.9587 51.8482 18.8229 51.4972Z" fill="#FFFCE4"/>
<path d="M16.6306 50.4518C16.4948 50.1007 15.5224 49.532 15.0511 49.4053C14.5797 49.2787 14.788 49.642 14.9238 49.9931C15.0596 50.3441 15.5792 50.8019 16.0505 50.9286C16.5218 51.0553 16.7665 50.8028 16.6306 50.4518Z" fill="#FFFCE4"/>
<path d="M14.4385 49.4064C14.3027 49.0553 13.3303 48.4866 12.8589 48.3599C12.3876 48.2333 12.5958 48.5966 12.7317 48.9476C12.8675 49.2987 13.387 49.7565 13.8583 49.8832C14.3297 50.0099 14.5743 49.7574 14.4385 49.4064Z" fill="#FFFCE4"/>
<path d="M15.0805 49.6368C15.7232 50.0695 16.9774 50.503 17.3288 50.509C17.6802 50.5149 16.0431 50.0643 15.4004 49.6316C14.7576 49.1989 13.0338 48.404 12.6824 48.398C12.3309 48.3921 14.4378 49.204 15.0805 49.6368Z" fill="#FFFCE4"/>
<path d="M8.6326 45.7403C7.94559 45.4439 6.89279 44.6052 6.67873 44.297C6.46466 43.9889 7.17039 44.328 7.8574 44.6244C8.54442 44.9209 9.4131 45.4707 9.62716 45.7788C9.84123 46.087 9.31961 46.0368 8.6326 45.7403Z" fill="#FFFCE4"/>
<path d="M6.89419 43.9856C6.20718 43.6891 5.15439 42.8504 4.94032 42.5423C4.72626 42.2341 5.43199 42.5732 6.119 42.8697C6.80601 43.1661 7.6747 43.7159 7.88876 44.0241C8.10282 44.3322 7.58121 44.282 6.89419 43.9856Z" fill="#FFFCE4"/>
<path d="M5.15567 42.2308C4.46866 41.9344 3.41586 41.0957 3.2018 40.7875C2.98773 40.4794 3.69346 40.8185 4.38047 41.1149C5.06749 41.4114 5.93617 41.9611 6.15023 42.2693C6.3643 42.5774 5.84268 42.5273 5.15567 42.2308Z" fill="#FFFCE4"/>
<path d="M8.01747 45.9174C7.9999 45.5387 7.26186 44.6613 6.85721 44.3766C6.45256 44.0919 6.53453 44.5076 6.55209 44.8863C6.56966 45.265 6.91547 45.879 7.32012 46.1637C7.72477 46.4485 8.03503 46.2961 8.01747 45.9174Z" fill="#FFFCE4"/>
<path d="M6.27906 44.1627C6.2615 43.784 5.52346 42.9066 5.11881 42.6219C4.71415 42.3372 4.79612 42.7529 4.81369 43.1316C4.83125 43.5103 5.17706 44.1243 5.58171 44.409C5.98637 44.6938 6.29663 44.5414 6.27906 44.1627Z" fill="#FFFCE4"/>
<path d="M4.54054 42.408C4.52297 42.0293 3.78493 41.1519 3.38028 40.8672C2.97563 40.5825 3.0576 40.9982 3.07516 41.3769C3.09273 41.7556 3.43854 42.3696 3.84319 42.6543C4.24784 42.9391 4.5581 42.7867 4.54054 42.408Z" fill="#FFFCE4"/>
<path d="M5.07361 42.8505C5.54353 43.484 6.58992 44.3327 6.91948 44.4615C7.24905 44.5903 5.84682 43.5913 5.3769 42.9578C4.90698 42.3243 3.53141 40.9701 3.20185 40.8413C2.87228 40.7124 4.60369 42.217 5.07361 42.8505Z" fill="#FFFCE4"/>
<path d="M96.374 43.0458C95.9636 43.6984 94.9776 44.623 94.6492 44.784C94.3208 44.945 94.7745 44.2814 95.1848 43.6287C95.5952 42.9761 96.2766 42.1853 96.605 42.0243C96.9334 41.8633 96.7844 42.3932 96.374 43.0458Z" fill="#FFFCE4"/>
<path d="M94.4022 44.5C93.9918 45.1526 93.0058 46.0772 92.6774 46.2382C92.349 46.3992 92.8027 45.7356 93.213 45.083C93.6234 44.4304 94.3048 43.6395 94.6332 43.4785C94.9616 43.3176 94.8126 43.8474 94.4022 44.5Z" fill="#FFFCE4"/>
<path d="M92.4301 45.9543C92.0198 46.6069 91.0337 47.5315 90.7053 47.6925C90.377 47.8535 90.8306 47.1899 91.241 46.5373C91.6513 45.8846 92.3328 45.0938 92.6612 44.9328C92.9895 44.7718 92.8405 45.3017 92.4301 45.9543Z" fill="#FFFCE4"/>
<path d="M96.4178 43.7171C96.0625 43.6609 95.1023 44.2523 94.7582 44.615C94.4142 44.9778 94.8166 44.9746 95.172 45.0308C95.5273 45.087 96.1658 44.8497 96.5098 44.4869C96.8539 44.1242 96.7732 43.7733 96.4178 43.7171Z" fill="#FFFCE4"/>
<path d="M94.446 45.1713C94.0907 45.1151 93.1305 45.7064 92.7864 46.0692C92.4424 46.432 92.8448 46.4288 93.2002 46.485C93.5555 46.5411 94.194 46.3039 94.538 45.9411C94.8821 45.5783 94.8014 45.2274 94.446 45.1713Z" fill="#FFFCE4"/>
<path d="M92.4741 46.6254C92.1187 46.5692 91.1585 47.1606 90.8145 47.5234C90.4705 47.8861 90.8729 47.8829 91.2282 47.9391C91.5836 47.9953 92.2221 47.758 92.5661 47.3953C92.9102 47.0325 92.8295 46.6816 92.4741 46.6254Z" fill="#FFFCE4"/>
<path d="M92.99 46.1608C93.671 45.7989 94.665 44.8829 94.8494 44.5672C95.0339 44.2515 93.8302 45.5062 93.1492 45.868C92.4683 46.2298 90.9398 47.3872 90.7554 47.7029C90.571 48.0186 92.3091 46.5226 92.99 46.1608Z" fill="#FFFCE4"/>
<path d="M84.9781 26.2024C84.4454 25.6571 83.2953 24.9754 82.942 24.8919C82.5886 24.8084 83.1658 25.3548 83.6986 25.9002C84.2313 26.4455 85.0567 27.065 85.4101 27.1485C85.7634 27.232 85.5108 26.7478 84.9781 26.2024Z" fill="#FFFCE4"/>
<path d="M82.7579 25.2249C82.2252 24.6795 81.0751 23.9978 80.7217 23.9143C80.3684 23.8309 80.9456 24.3773 81.4783 24.9226C82.0111 25.468 82.8365 26.0875 83.1899 26.171C83.5432 26.2544 83.2906 25.7703 82.7579 25.2249Z" fill="#FFFCE4"/>
<path d="M80.5376 24.2473C80.0049 23.702 78.8548 23.0203 78.5014 22.9368C78.1481 22.8533 78.7253 23.3997 79.258 23.9451C79.7907 24.4905 80.6162 25.11 80.9695 25.1934C81.3229 25.2769 81.0703 24.7927 80.5376 24.2473Z" fill="#FFFCE4"/>
<path d="M84.8853 25.5367C84.5494 25.6714 83.4918 25.3095 83.0824 25.0324C82.6731 24.7553 83.0669 24.668 83.4027 24.5332C83.7386 24.3984 84.4103 24.4867 84.8197 24.7638C85.2291 25.0409 85.2211 25.4019 84.8853 25.5367Z" fill="#FFFCE4"/>
<path d="M82.665 24.5592C82.3292 24.694 81.2716 24.332 80.8622 24.0549C80.4528 23.7779 80.8467 23.6905 81.1825 23.5557C81.5184 23.421 82.1901 23.5092 82.5995 23.7863C83.0089 24.0634 83.0009 24.4244 82.665 24.5592Z" fill="#FFFCE4"/>
<path d="M80.4448 23.5818C80.109 23.7165 79.0514 23.3546 78.642 23.0775C78.2326 22.8004 78.6264 22.7131 78.9623 22.5783C79.2982 22.4435 79.9699 22.5318 80.3793 22.8089C80.7887 23.086 80.7807 23.447 80.4448 23.5818Z" fill="#FFFCE4"/>
<path d="M81.0427 23.9198C81.7811 24.1202 82.9373 24.7917 83.1812 25.0587C83.4251 25.3257 81.9958 24.3704 81.2574 24.17C80.519 23.9695 78.792 23.1824 78.548 22.9154C78.3041 22.6484 80.3043 23.7193 81.0427 23.9198Z" fill="#FFFCE4"/>
<path d="M72.1295 23.0366C71.509 22.6068 70.2578 22.1657 69.8959 22.154C69.534 22.1422 70.1984 22.5641 70.8189 22.9939C71.4394 23.4237 72.3606 23.8681 72.7226 23.8799C73.0845 23.8917 72.75 23.4663 72.1295 23.0366Z" fill="#FFFCE4"/>
<path d="M69.7747 22.5176C69.1542 22.0878 67.903 21.6468 67.5411 21.635C67.1792 21.6232 67.8436 22.0451 68.464 22.4749C69.0845 22.9047 70.0058 23.3491 70.3677 23.3609C70.7296 23.3727 70.3952 22.9474 69.7747 22.5176Z" fill="#FFFCE4"/>
<path d="M67.4194 21.9986C66.7989 21.5689 65.5478 21.1278 65.1858 21.1161C64.8239 21.1043 65.4883 21.5262 66.1088 21.956C66.7293 22.3858 67.6506 22.8302 68.0125 22.842C68.3744 22.8538 68.0399 22.4284 67.4194 21.9986Z" fill="#FFFCE4"/>
<path d="M71.9197 22.4011C71.6139 22.6002 70.5107 22.4549 70.0591 22.264C69.6076 22.0732 69.9788 21.9092 70.2846 21.7101C70.5905 21.511 71.2659 21.4643 71.7174 21.6551C72.1689 21.8459 72.2255 22.202 71.9197 22.4011Z" fill="#FFFCE4"/>
<path d="M69.5647 21.8822C69.2589 22.0813 68.1557 21.9359 67.7042 21.7451C67.2527 21.5543 67.6238 21.3903 67.9297 21.1912C68.2355 20.9921 68.9109 20.9454 69.3624 21.1362C69.8139 21.327 69.8705 21.6831 69.5647 21.8822Z" fill="#FFFCE4"/>
<path d="M67.2099 21.3633C66.904 21.5624 65.8008 21.4171 65.3493 21.2263C64.8978 21.0354 65.269 20.8714 65.5748 20.6723C65.8806 20.4733 66.5561 20.4265 67.0076 20.6173C67.4591 20.8081 67.5157 21.1642 67.2099 21.3633Z" fill="#FFFCE4"/>
<path d="M67.8573 21.5765C68.6182 21.6267 69.8735 22.0565 70.1607 22.2702C70.4479 22.484 68.8737 21.8298 68.1128 21.7796C67.3518 21.7294 65.5152 21.2994 65.228 21.0857C64.9408 20.8719 67.0963 21.5263 67.8573 21.5765Z" fill="#FFFCE4"/>
<path d="M58.9997 20.9826C58.3056 20.705 56.9935 20.5608 56.6378 20.6322C56.2821 20.7035 57.0174 20.9633 57.7115 21.2409C58.4056 21.5184 59.3962 21.7414 59.7519 21.6701C60.1077 21.5988 59.6937 21.2601 58.9997 20.9826Z" fill="#FFFCE4"/>
<path d="M56.5941 21.015C55.9001 20.7374 54.588 20.5932 54.2323 20.6646C53.8766 20.7359 54.6119 20.9957 55.306 21.2733C56 21.5508 56.9907 21.7738 57.3464 21.7025C57.7021 21.6312 57.2882 21.2925 56.5941 21.015Z" fill="#FFFCE4"/>
<path d="M54.1884 21.0473C53.4943 20.7698 52.1823 20.6256 51.8265 20.6969C51.4708 20.7683 52.2061 21.0281 52.9002 21.3056C53.5943 21.5832 54.5849 21.8062 54.9407 21.7349C55.2964 21.6635 54.8825 21.3249 54.1884 21.0473Z" fill="#FFFCE4"/>
<path d="M58.6641 20.4104C58.4065 20.6747 57.2997 20.7853 56.8197 20.7024C56.3397 20.6194 56.6683 20.3744 56.926 20.11C57.1836 19.8457 57.8333 19.6455 58.3133 19.7284C58.7933 19.8113 58.9217 20.146 58.6641 20.4104Z" fill="#FFFCE4"/>
<path d="M56.2586 20.4427C56.001 20.707 54.8942 20.8176 54.4142 20.7347C53.9342 20.6517 54.2628 20.4067 54.5204 20.1423C54.778 19.878 55.4278 19.6778 55.9078 19.7607C56.3878 19.8436 56.5162 20.1783 56.2586 20.4427Z" fill="#FFFCE4"/>
<path d="M53.8531 20.4751C53.5955 20.7395 52.4886 20.8501 52.0087 20.7671C51.5287 20.6842 51.8573 20.4391 52.1149 20.1748C52.3725 19.9105 53.0223 19.7102 53.5023 19.7932C53.9823 19.8761 54.1107 20.2108 53.8531 20.4751Z" fill="#FFFCE4"/>
<path d="M54.529 20.535C55.2822 20.4098 56.596 20.5421 56.9203 20.685C57.2446 20.828 55.5733 20.5496 54.8202 20.6748C54.067 20.8 52.1857 20.8006 51.8614 20.6576C51.5371 20.5147 53.7759 20.6602 54.529 20.535Z" fill="#FFFCE4"/>
<path d="M45.8178 20.5638C45.0951 20.385 43.7765 20.4241 43.4328 20.5442C43.089 20.6643 43.8503 20.8198 44.573 20.9987C45.2956 21.1775 46.3055 21.2611 46.6492 21.141C46.9929 21.0209 46.5404 20.7427 45.8178 20.5638Z" fill="#FFFCE4"/>
<path d="M43.4372 20.9298C42.7145 20.751 41.3959 20.7901 41.0521 20.9102C40.7084 21.0303 41.4697 21.1858 42.1924 21.3646C42.915 21.5435 43.9248 21.6271 44.2686 21.507C44.6123 21.3869 44.1598 21.1086 43.4372 20.9298Z" fill="#FFFCE4"/>
<path d="M41.0563 21.2956C40.3337 21.1168 39.015 21.156 38.6713 21.276C38.3275 21.3961 39.0889 21.5517 39.8115 21.7305C40.5341 21.9093 41.544 21.9929 41.8877 21.8728C42.2315 21.7527 41.7789 21.4745 41.0563 21.2956Z" fill="#FFFCE4"/>
<path d="M45.4138 20.0431C45.1914 20.3409 44.1079 20.6041 43.6218 20.5885C43.1356 20.5729 43.4309 20.2844 43.6533 19.9866C43.8757 19.6888 44.4949 19.4001 44.981 19.4157C45.4672 19.4314 45.6362 19.7453 45.4138 20.0431Z" fill="#FFFCE4"/>
<path d="M43.0333 20.409C42.8109 20.7068 41.7274 20.97 41.2413 20.9544C40.7551 20.9388 41.0504 20.6503 41.2728 20.3525C41.4952 20.0547 42.1144 19.766 42.6005 19.7816C43.0867 19.7973 43.2557 20.1112 43.0333 20.409Z" fill="#FFFCE4"/>
<path d="M40.6527 20.775C40.4303 21.0728 39.3468 21.336 38.8607 21.3204C38.3745 21.3048 38.6698 21.0162 38.8922 20.7184C39.1146 20.4207 39.7338 20.132 40.2199 20.1476C40.7061 20.1632 40.8751 20.4772 40.6527 20.775Z" fill="#FFFCE4"/>
<path d="M41.3301 20.7406C42.0611 20.512 43.38 20.4609 43.7193 20.5576C44.0586 20.6542 42.3672 20.6102 41.6362 20.8388C40.9052 21.0674 39.0403 21.329 38.701 21.2324C38.3617 21.1357 40.5992 20.9692 41.3301 20.7406Z" fill="#FFFCE4"/>
<path d="M32.6276 21.663C31.8878 21.5998 30.5894 21.8458 30.2665 22.0185C29.9435 22.1913 30.7183 22.2255 31.4581 22.2887C32.1979 22.3519 33.2083 22.2759 33.5313 22.1031C33.8542 21.9303 33.3675 21.7263 32.6276 21.663Z" fill="#FFFCE4"/>
<path d="M30.3253 22.3991C29.5855 22.3358 28.2871 22.5818 27.9641 22.7546C27.6412 22.9273 28.4159 22.9615 29.1558 23.0247C29.8956 23.088 30.906 23.0119 31.2289 22.8391C31.5519 22.6663 31.0651 22.4623 30.3253 22.3991Z" fill="#FFFCE4"/>
<path d="M28.0228 23.1351C27.283 23.0718 25.9846 23.3178 25.6616 23.4906C25.3387 23.6634 26.1134 23.6975 26.8533 23.7607C27.5931 23.824 28.6035 23.7479 28.9264 23.5751C29.2494 23.4024 28.7626 23.1983 28.0228 23.1351Z" fill="#FFFCE4"/>
<path d="M32.1549 21.2116C31.977 21.541 30.9428 21.9716 30.4599 22.0326C29.9769 22.0936 30.2281 21.7619 30.406 21.4324C30.5839 21.103 31.1554 20.7203 31.6384 20.6593C32.1213 20.5983 32.3328 20.8822 32.1549 21.2116Z" fill="#FFFCE4"/>
<path d="M29.8524 21.9476C29.6745 22.2771 28.6403 22.7077 28.1574 22.7686C27.6744 22.8296 27.9256 22.4979 28.1036 22.1685C28.2815 21.839 28.853 21.4563 29.3359 21.3953C29.8188 21.3343 30.0303 21.6182 29.8524 21.9476Z" fill="#FFFCE4"/>
<path d="M27.55 22.6837C27.3721 23.0131 26.3379 23.4437 25.855 23.5047C25.3721 23.5656 25.6233 23.2339 25.8012 22.9045C25.9791 22.5751 26.5506 22.1923 27.0335 22.1313C27.5164 22.0703 27.7279 22.3542 27.55 22.6837Z" fill="#FFFCE4"/>
<path d="M28.2152 22.5432C28.9057 22.2023 30.2027 21.9443 30.5518 21.9866C30.901 22.0289 29.2222 22.2512 28.5317 22.5922C27.8411 22.9331 26.034 23.485 25.6848 23.4427C25.3356 23.4004 27.5246 22.8842 28.2152 22.5432Z" fill="#FFFCE4"/>
<path d="M20.4462 24.1334C19.7049 24.1721 18.4478 24.594 18.1489 24.8096C17.8499 25.0252 18.6223 24.9528 19.3637 24.9141C20.105 24.8753 21.0975 24.6614 21.3964 24.4458C21.6953 24.2302 21.1876 24.0947 20.4462 24.1334Z" fill="#FFFCE4"/>
<path d="M18.254 25.1788C17.5126 25.2175 16.2555 25.6394 15.9566 25.855C15.6577 26.0706 16.4301 25.9982 17.1714 25.9595C17.9127 25.9208 18.9052 25.7068 19.2041 25.4912C19.5031 25.2757 18.9953 25.1401 18.254 25.1788Z" fill="#FFFCE4"/>
<path d="M16.0616 26.2243C15.3203 26.263 14.0632 26.6849 13.7642 26.9005C13.4653 27.116 14.2377 27.0437 14.979 27.0049C15.7204 26.9662 16.7128 26.7523 17.0118 26.5367C17.3107 26.3211 16.8029 26.1855 16.0616 26.2243Z" fill="#FFFCE4"/>
<path d="M19.9218 23.7506C19.7859 24.1017 18.8135 24.6704 18.3422 24.797C17.8709 24.9237 18.0791 24.5604 18.2149 24.2093C18.3508 23.8583 18.8703 23.4005 19.3416 23.2738C19.8129 23.1471 20.0576 23.3996 19.9218 23.7506Z" fill="#FFFCE4"/>
<path d="M17.7295 24.796C17.5937 25.147 16.6213 25.7157 16.1499 25.8424C15.6786 25.9691 15.8868 25.6057 16.0227 25.2547C16.1585 24.9037 16.678 24.4458 17.1494 24.3191C17.6207 24.1925 17.8653 24.445 17.7295 24.796Z" fill="#FFFCE4"/>
<path d="M15.5374 25.8414C15.4015 26.1924 14.4291 26.7611 13.9578 26.8878C13.4865 27.0145 13.6947 26.6511 13.8305 26.3001C13.9664 25.9491 14.4859 25.4912 14.9572 25.3645C15.4285 25.2379 15.6732 25.4904 15.5374 25.8414Z" fill="#FFFCE4"/>
<path d="M16.1795 25.611C16.8222 25.1782 18.0764 24.7447 18.4278 24.7388C18.7792 24.7328 17.1421 25.1834 16.4994 25.6161C15.8566 26.0489 14.1328 26.8438 13.7814 26.8497C13.4299 26.8557 15.5368 26.0437 16.1795 25.611Z" fill="#FFFCE4"/>
<path d="M8.6326 30.188C7.94559 30.4845 6.89279 31.3232 6.67873 31.6313C6.46466 31.9395 7.17039 31.6004 7.8574 31.3039C8.54442 31.0075 9.4131 30.4577 9.62716 30.1495C9.84123 29.8414 9.31961 29.8916 8.6326 30.188Z" fill="#FFFCE4"/>
<path d="M6.89419 31.9427C6.20718 32.2392 5.15439 33.0779 4.94032 33.386C4.72626 33.6942 5.43199 33.3551 6.119 33.0586C6.80601 32.7622 7.6747 32.2124 7.88876 31.9042C8.10282 31.5961 7.58121 31.6462 6.89419 31.9427Z" fill="#FFFCE4"/>
<path d="M5.15567 33.6975C4.46866 33.9939 3.41586 34.8326 3.2018 35.1408C2.98773 35.4489 3.69346 35.1098 4.38047 34.8134C5.06749 34.5169 5.93617 33.9671 6.15023 33.659C6.3643 33.3508 5.84268 33.401 5.15567 33.6975Z" fill="#FFFCE4"/>
<path d="M8.01747 30.0109C7.9999 30.3896 7.26186 31.2669 6.85721 31.5517C6.45256 31.8364 6.53453 31.4207 6.55209 31.042C6.56966 30.6633 6.91547 30.0493 7.32012 29.7645C7.72477 29.4798 8.03503 29.6322 8.01747 30.0109Z" fill="#FFFCE4"/>
<path d="M6.27906 31.7656C6.2615 32.1443 5.52346 33.0216 5.11881 33.3064C4.71415 33.5911 4.79612 33.1754 4.81369 32.7967C4.83125 32.418 5.17706 31.804 5.58171 31.5192C5.98637 31.2345 6.29663 31.3869 6.27906 31.7656Z" fill="#FFFCE4"/>
<path d="M4.54054 33.5203C4.52297 33.899 3.78493 34.7764 3.38028 35.0611C2.97563 35.3459 3.0576 34.9301 3.07516 34.5514C3.09273 34.1727 3.43854 33.5587 3.84319 33.274C4.24784 32.9893 4.5581 33.1416 4.54054 33.5203Z" fill="#FFFCE4"/>
<path d="M5.07361 33.0778C5.54353 32.4443 6.58992 31.5956 6.91948 31.4668C7.24905 31.338 5.84682 32.337 5.3769 32.9705C4.90698 33.604 3.53141 34.9582 3.20185 35.087C2.87228 35.2159 4.60369 33.7113 5.07361 33.0778Z" fill="#FFFCE4"/>
<path d="M96.374 33.23C95.9636 32.5774 94.9776 31.6528 94.6492 31.4918C94.3208 31.3309 94.7745 31.9945 95.1848 32.6471C95.5952 33.2997 96.2766 34.0905 96.605 34.2515C96.9334 34.4125 96.7844 33.8826 96.374 33.23Z" fill="#FFFCE4"/>
<path d="M94.4022 31.7759C93.9918 31.1233 93.0058 30.1987 92.6774 30.0377C92.349 29.8767 92.8027 30.5403 93.213 31.1929C93.6234 31.8455 94.3048 32.6364 94.6332 32.7973C94.9616 32.9583 94.8126 32.4285 94.4022 31.7759Z" fill="#FFFCE4"/>
<path d="M92.4301 30.3217C92.0198 29.669 91.0337 28.7444 90.7053 28.5835C90.377 28.4225 90.8306 29.0861 91.241 29.7387C91.6513 30.3913 92.3328 31.1821 92.6612 31.3431C92.9895 31.5041 92.8405 30.9743 92.4301 30.3217Z" fill="#FFFCE4"/>
<path d="M96.4178 32.5587C96.0625 32.6149 95.1023 32.0235 94.7582 31.6608C94.4142 31.298 94.8166 31.3012 95.172 31.245C95.5273 31.1889 96.1658 31.4261 96.5098 31.7889C96.8539 32.1516 96.7732 32.5026 96.4178 32.5587Z" fill="#FFFCE4"/>
<path d="M94.446 31.1046C94.0907 31.1608 93.1305 30.5694 92.7864 30.2067C92.4424 29.8439 92.8448 29.8471 93.2002 29.7909C93.5555 29.7348 94.194 29.972 94.538 30.3348C94.8821 30.6975 94.8014 31.0485 94.446 31.1046Z" fill="#FFFCE4"/>
<path d="M92.4741 29.6505C92.1187 29.7066 91.1585 29.1153 90.8145 28.7525C90.4705 28.3897 90.8729 28.3929 91.2282 28.3368C91.5836 28.2806 92.2221 28.5178 92.5661 28.8806C92.9102 29.2434 92.8295 29.5943 92.4741 29.6505Z" fill="#FFFCE4"/>
<path d="M92.99 30.1151C93.671 30.4769 94.665 31.393 94.8494 31.7087C95.0339 32.0243 93.8302 30.7697 93.1492 30.4079C92.4683 30.046 90.9398 28.8887 90.7554 28.573C90.571 28.2573 92.3091 29.7533 92.99 30.1151Z" fill="#FFFCE4"/>
<ellipse cx="49.5" cy="38" rx="27.5" ry="11" fill="#FAE2D5"/>
<path fill-rule="evenodd" clip-rule="evenodd" d="M76.8879 39C76.9621 38.6706 77 38.3371 77 38C77 31.9249 64.6878 27 49.5 27C34.3122 27 22 31.9249 22 38C22 38.3371 22.0379 38.6706 22.1121 39C23.3752 33.3935 35.1549 29 49.5 29C63.8451 29 75.6248 33.3935 76.8879 39Z" fill="#F8DACA"/>
<path fill-rule="evenodd" clip-rule="evenodd" d="M65.3079 30.052C65.1081 29.9827 64.892 29.9827 64.6921 30.052L41.6631 38.0411C41.2022 38.201 40.994 38.6021 41.0001 39.0001H41V41.0001C41 41.5523 41.4477 42.0001 42 42.0001H88C88.5523 42.0001 89 41.5523 89 41.0001V39.0001H88.9999C89.006 38.6021 88.7978 38.201 88.3369 38.0411L65.3079 30.052Z" fill="#FBCD89"/>
<path d="M65 28.5001C71.6013 28.5001 77.5621 29.1137 81.8589 30.0983C84.0113 30.5916 85.7187 31.1719 86.8758 31.7988C87.4546 32.1125 87.8721 32.4252 88.1395 32.7246C88.4041 33.021 88.5 33.2782 88.5 33.5001C88.5 33.7219 88.4041 33.9791 88.1395 34.2755C87.8721 34.5749 87.4546 34.8877 86.8758 35.2013C85.7187 35.8282 84.0113 36.4085 81.8589 36.9018C77.5621 37.8865 71.6013 38.5001 65 38.5001C58.3987 38.5001 52.4379 37.8865 48.1411 36.9018C45.9887 36.4085 44.2813 35.8282 43.1242 35.2013C42.5454 34.8877 42.1279 34.5749 41.8606 34.2755C41.5959 33.9791 41.5 33.7219 41.5 33.5001C41.5 33.2782 41.5959 33.021 41.8606 32.7246C42.1279 32.4252 42.5454 32.1125 43.1242 31.7988C44.2813 31.1719 45.9887 30.5916 48.1411 30.0983C52.4379 29.1137 58.3987 28.5001 65 28.5001Z" fill="#DB6363" stroke="#894211"/>
<path d="M40.4046 37.5C40.4046 41.25 42.5474 34.8215 64.8331 36.1571C76.6542 36.8655 89.1429 40.1786 88.5 37.5C87.8571 34.8215 76.6678 28.9286 64.8331 28.9286C52.9984 28.9286 40.4046 25.1786 40.4046 37.5Z" fill="#FFDE6A"/>
<path d="M89.5 37.0001C89.5 40.7501 86.2857 33.3215 64 34.6571C52.1789 35.3655 39.7856 36 40.4285 33.3215C41.0714 30.6429 52.1653 27.4286 64 27.4286C75.8347 27.4286 89.5 24.6786 89.5 37.0001Z" fill="#FEFBB1"/>
<path d="M41.8424 30.6838C40.7969 30.6033 40.7447 29.0896 41.7821 28.9373C42.0282 28.9012 42.2474 28.7625 42.3855 28.5557L43.5688 26.7839C44.0217 26.1058 44.8409 25.7706 45.6392 25.9366L50.0553 26.855C50.5231 26.9522 51.0073 26.9364 51.4677 26.8087L57.2114 25.2161C57.9942 24.999 58.8306 25.2771 59.3277 25.9197L60.2686 27.136C60.5126 27.4514 60.8888 27.636 61.2876 27.636L63.8192 27.636C64.8079 27.636 65.035 29.0206 64.098 29.3364C63.2931 29.6077 63.3103 30.7522 64.1231 30.9991L64.216 31.0273C65.1846 31.3216 65.0118 32.742 64.0009 32.7954L60.0914 33.0018C59.7392 33.0204 59.4032 33.1554 59.1361 33.3857L57.526 34.7737C56.9578 35.2634 56.1634 35.3941 55.4683 35.1121L50.8465 33.2371C50.5132 33.1019 50.1495 33.0596 49.794 33.1147L44.7079 33.903C43.8163 34.0412 43.3591 32.8719 44.108 32.3687C44.7723 31.9223 44.5001 30.8884 43.7021 30.8269L41.8424 30.6838Z" fill="#77C065"/>
<path d="M86.1576 28.8877C87.2031 28.9682 87.2553 30.4818 86.2179 30.6342C85.9718 30.6703 85.7526 30.8089 85.6145 31.0157L84.4312 32.7875C83.9783 33.4656 83.1591 33.8009 82.3608 33.6349L77.9447 32.7165C77.4769 32.6192 76.9927 32.6351 76.5323 32.7627L70.7886 34.3554C70.0058 34.5724 69.1694 34.2944 68.6723 33.6518L67.7314 32.4355C67.4874 32.1201 67.1112 31.9355 66.7124 31.9355H64.1808C63.1921 31.9355 62.965 30.5509 63.902 30.2351C64.7069 29.9637 64.6897 28.8192 63.8769 28.5723L63.784 28.5441C62.8154 28.2499 62.9882 26.8295 63.9991 26.7761L67.9086 26.5697C68.2608 26.5511 68.5968 26.4161 68.8639 26.1858L70.474 24.7978C71.0422 24.308 71.8366 24.1773 72.5317 24.4594L77.1535 26.3344C77.4868 26.4696 77.8505 26.5119 78.206 26.4568L83.2921 25.6685C84.1837 25.5303 84.6409 26.6995 83.892 27.2028C83.2277 27.6491 83.4999 28.6831 84.2979 28.7445L86.1576 28.8877Z" fill="#77C065"/>
<path d="M55.1636 24.7916C61.3377 24.1624 62.0109 24.0938 66.3429 23.6524C66.7399 27.5478 62.0565 31.2157 55.8823 31.8449C49.7081 32.4741 44.3812 29.8263 43.9842 25.9309C50.4738 25.2696 48.9894 25.4208 55.1636 24.7916Z" fill="#DE2E2E"/>
<path fill-rule="evenodd" clip-rule="evenodd" d="M48.0001 29.8306C46.5427 28.7982 45.5908 27.3955 45.4262 25.7801L55.1606 24.7881L64.895 23.7961C65.06 25.4149 64.4075 26.984 63.1833 28.2908C61.3088 29.6557 58.7165 30.6371 55.7892 30.9355C52.8556 31.2344 50.1132 30.7935 48.0001 29.8306Z" fill="#FAA3A3"/>
<path fill-rule="evenodd" clip-rule="evenodd" d="M46.4366 26.6689C46.3095 26.3425 46.7131 26.0097 47.2535 25.9546L52.5911 25.4107C53.3127 25.3372 53.8139 25.784 53.4933 26.2151L51.1223 29.4027C50.8818 29.7259 50.2776 29.8805 49.8408 29.7033C48.1764 29.0278 46.9424 27.967 46.4366 26.6689ZM52.6231 30.4089C52.1034 30.3438 51.885 29.9812 52.1252 29.6583L54.4383 26.5485C54.759 26.1174 55.661 26.0255 56.0619 26.383L58.9802 28.9849C59.2832 29.2551 59.1367 29.6582 58.6333 29.8239C57.7323 30.1204 56.7531 30.3314 55.7219 30.4365C54.6455 30.5462 53.6013 30.5314 52.6231 30.4089ZM59.9333 28.5522C60.2313 28.8179 60.8469 28.8498 61.2408 28.5936C62.7867 27.588 63.818 26.2752 64.0563 24.8733C64.1151 24.528 63.6526 24.2835 63.1122 24.3385L57.6417 24.896C56.9201 24.9695 56.5193 25.5083 56.9203 25.8659L59.9333 28.5522Z" fill="#F66464"/>
<path d="M71.422 24.761C64.7606 24.2804 64.0343 24.228 59.3605 23.8908C59.0825 27.7436 64.2573 31.2566 70.9186 31.7372C77.58 32.2178 83.2055 29.4841 83.4835 25.6313C76.4818 25.1261 78.0834 25.2417 71.422 24.761Z" fill="#DE2E2E"/>
<path fill-rule="evenodd" clip-rule="evenodd" d="M79.3158 29.57C80.8428 28.5182 81.8123 27.1126 81.9276 25.5151L71.4251 24.7573L60.9225 23.9995C60.807 25.6008 61.5685 27.1344 62.9348 28.3962C65.0019 29.7003 67.8258 30.6096 70.9838 30.8375C74.1493 31.0659 77.0808 30.5684 79.3158 29.57Z" fill="#FAA3A3"/>
<path fill-rule="evenodd" clip-rule="evenodd" d="M80.8753 26.4153C80.9995 26.0903 80.5529 25.7711 79.9698 25.7291L74.2111 25.3136C73.4325 25.2574 72.9108 25.7097 73.2719 26.1278L75.9425 29.2193C76.2133 29.5328 76.8688 29.6716 77.3316 29.4868C79.0951 28.7825 80.3811 27.7077 80.8753 26.4153ZM74.3676 30.2463C74.9237 30.1702 75.1447 29.8075 74.8742 29.4944L72.2687 26.4782C71.9076 26.0602 70.9344 25.9899 70.517 26.3518L67.4792 28.9855C67.1638 29.259 67.3366 29.6535 67.8841 29.8055C68.8641 30.0776 69.9248 30.2636 71.0373 30.3439C72.1986 30.4277 73.3206 30.3894 74.3676 30.2463ZM66.4381 28.5802C66.1278 28.8491 65.4672 28.8946 65.0341 28.6507C63.3338 27.6936 62.175 26.4216 61.8652 25.0436C61.7889 24.7042 62.2768 24.4524 62.8598 24.4945L68.7619 24.9204C69.5405 24.9766 69.9919 25.4991 69.5745 25.861L66.4381 28.5802Z" fill="#F66464"/>
<path fill-rule="evenodd" clip-rule="evenodd" d="M65.3079 17.052C65.1081 16.9827 64.8919 16.9827 64.6921 17.052L41.6631 25.041C41.2022 25.2009 40.994 25.6021 41.0001 26H41V28C41 28.5523 41.4477 29 42 29H88C88.5523 29 89 28.5523 89 28V26H88.9998C89.0059 25.6021 88.7978 25.2009 88.3369 25.041L65.3079 17.052Z" fill="#FBCD89"/>
<path fill-rule="evenodd" clip-rule="evenodd" d="M34.5085 24.1772C34.6658 24.0358 34.865 23.9519 35.0761 23.9383L59.4008 22.366C59.8876 22.3345 60.2351 22.6235 60.3839 22.9926L60.384 22.9925L61.16 24.8359C61.3743 25.3449 61.1354 25.9312 60.6264 26.1455L18.2302 43.9938C17.7212 44.2081 17.1348 43.9692 16.9205 43.4602L16.1445 41.6169L16.1446 41.6168C15.9846 41.2524 16.0208 40.8019 16.3836 40.4757L34.5085 24.1772Z" fill="#FBCD89"/>
<path d="M34.1902 22.6273C28.106 25.1886 22.8503 28.067 19.2722 30.6417C17.4798 31.9315 16.1314 33.1288 15.3082 34.1556C14.8964 34.6692 14.633 35.1194 14.5027 35.4991C14.3738 35.875 14.3852 36.1492 14.4713 36.3537C14.5574 36.5582 14.7456 36.758 15.1045 36.9285C15.467 37.1007 15.9732 37.227 16.6284 37.2914C17.9381 37.4203 19.7368 37.2927 21.912 36.9121C26.2542 36.1525 31.9861 34.4052 38.0702 31.8438C44.1544 29.2825 49.4101 26.4041 52.9882 23.8294C54.7806 22.5396 56.129 21.3423 56.9522 20.3155C57.3641 19.8019 57.6275 19.3516 57.7577 18.972C57.8866 18.5961 57.8752 18.3219 57.7891 18.1174C57.7031 17.9129 57.5149 17.7131 57.156 17.5426C56.7934 17.3704 56.2873 17.2441 55.6321 17.1796C54.3224 17.0508 52.5236 17.1784 50.3484 17.559C46.0062 18.3186 40.2743 20.0659 34.1902 22.6273Z" fill="#DB6363" stroke="#894211"/>
<path d="M60.3508 21.379C61.8058 24.8352 57.3366 19.7417 37.315 29.6197C26.6949 34.8593 16.4701 42.7585 16.0233 40.0403C15.5766 37.3222 23.6028 27.5495 34.5103 22.9575C45.4178 18.3656 55.57 10.0229 60.3508 21.379Z" fill="#FFDE6A"/>
<path d="M14.9077 39.9675C16.3627 43.4237 16.4428 35.33 37.5008 27.9139C48.6707 23.9802 60.3392 19.7563 58.7074 17.5371C57.0756 15.3178 45.6036 16.6598 34.6961 21.2518C23.7886 25.8437 10.1269 28.6114 14.9077 39.9675Z" fill="#FEFBB1"/>
<path d="M56.3809 15.6546C57.3131 15.1748 56.774 13.7595 55.7587 14.0216C55.5179 14.0838 55.2621 14.0411 55.0546 13.9041L53.2765 12.7302C52.596 12.2809 51.7109 12.2898 51.0395 12.7526L47.3257 15.3125C46.9324 15.5836 46.4799 15.7569 46.006 15.8179L40.0944 16.5786C39.2887 16.6823 38.6257 17.2631 38.4169 18.0482L38.0216 19.5343C37.9191 19.9196 37.644 20.2358 37.2765 20.3905L34.9432 21.3728C34.032 21.7564 34.3599 23.1207 35.346 23.0482C36.1932 22.9859 36.6213 24.0475 35.968 24.5904L35.8933 24.6524C35.1148 25.2994 35.8252 26.5415 36.7776 26.1985L40.4609 24.8718C40.7927 24.7523 41.1548 24.7464 41.4903 24.8549L43.5128 25.5095C44.2265 25.7404 45.0095 25.5526 45.5407 25.023L49.0728 21.5016C49.3276 21.2476 49.6464 21.0675 49.9953 20.9804L54.9889 19.7335C55.8643 19.5149 55.8319 18.2599 54.9464 18.0866C54.161 17.933 54.0107 16.8744 54.7223 16.5082L56.3809 15.6546Z" fill="#77C065"/>
<path d="M14.8405 31.194C13.9082 31.6738 14.4474 33.0891 15.4626 32.827C15.7034 32.7648 15.9593 32.8075 16.1668 32.9445L17.9449 34.1184C18.6254 34.5676 19.5105 34.5588 20.1819 34.096L23.8956 31.5361C24.289 31.265 24.7415 31.0917 25.2153 31.0307L31.1269 30.27C31.9327 30.1663 32.5957 29.5855 32.8045 28.8004L33.1998 27.3143C33.3022 26.9289 33.5774 26.6128 33.9449 26.4581L36.2781 25.4758C37.1894 25.0921 36.8615 23.7279 35.8754 23.8004C35.0282 23.8627 34.6001 22.8011 35.2534 22.2582L35.328 22.1962C36.1066 21.5492 35.3962 20.3071 34.4438 20.6501L30.7605 21.9768C30.4287 22.0963 30.0666 22.1022 29.7311 21.9936L27.7085 21.3391C26.9948 21.1081 26.2119 21.296 25.6807 21.8256L22.1485 25.347C21.8938 25.6009 21.575 25.7811 21.226 25.8682L16.2325 27.1151C15.3571 27.3337 15.3894 28.5887 16.2749 28.7619C17.0603 28.9156 17.2106 29.9742 16.4991 30.3404L14.8405 31.194Z" fill="#77C065"/>
<path d="M41.7781 15.2654C35.8435 17.0811 35.1965 17.2791 31.0326 18.5531C32.1997 22.3677 37.9567 23.9881 43.8913 22.1724C49.826 20.3566 53.6908 15.7924 52.5237 11.9777C46.2859 13.8862 47.7127 13.4497 41.7781 15.2654Z" fill="#DE2E2E"/>
<path fill-rule="evenodd" clip-rule="evenodd" d="M50.3594 17.2069C51.2954 15.6688 51.6202 13.98 51.1363 12.3982L41.7796 15.261L32.4229 18.1237C32.9079 19.709 34.1264 20.9289 35.7684 21.6795C38.032 22.231 40.8057 22.1425 43.6193 21.2817C46.4392 20.4189 48.7919 18.9355 50.3594 17.2069Z" fill="#FAA3A3"/>
<path fill-rule="evenodd" clip-rule="evenodd" d="M50.5551 13.6271C50.5438 13.2709 50.0411 13.1156 49.5217 13.2745L44.3912 14.8442C43.6976 15.0564 43.4118 15.6717 43.8767 15.9517L47.3149 18.0223C47.6636 18.2322 48.2809 18.1419 48.6135 17.8051C49.8808 16.5217 50.6001 15.044 50.5551 13.6271ZM46.3284 19.5527C46.7815 19.2889 46.84 18.8631 46.4917 18.6534L43.1374 16.6333C42.6725 16.3533 41.8055 16.6186 41.5768 17.1108L39.9126 20.693C39.7398 21.0649 40.0333 21.3866 40.5622 21.346C41.5088 21.2733 42.4938 21.0899 43.4849 20.7866C44.5196 20.4701 45.4756 20.0491 46.3284 19.5527ZM38.8644 20.658C38.6945 21.0238 38.14 21.2937 37.6764 21.2066C35.8568 20.8644 34.3903 20.0331 33.6191 18.8088C33.4292 18.5072 33.759 18.0972 34.2784 17.9383L39.5366 16.3295C40.2302 16.1173 40.8113 16.4673 40.5827 16.9595L38.8644 20.658Z" fill="#F66464"/>
<path d="M26.5364 21.1142C32.4893 18.0866 33.1384 17.7565 37.3152 15.6322C39.2233 19.3839 35.9443 24.8797 29.9913 27.9074C24.0383 30.935 17.6656 30.348 15.7575 26.5962C22.0146 23.4139 20.5834 24.1419 26.5364 21.1142Z" fill="#DE2E2E"/>
<path fill-rule="evenodd" clip-rule="evenodd" d="M21.2983 28.9471C19.4359 28.4775 17.9373 27.4407 17.1462 25.8852L26.5319 21.1117L35.9176 16.3382C36.7105 17.8974 36.6637 19.7241 35.9414 21.5097C34.589 23.6058 32.3677 25.596 29.5454 27.0314C26.7164 28.4701 23.7927 29.0926 21.2983 28.9471Z" fill="#FAA3A3"/>
<path fill-rule="evenodd" clip-rule="evenodd" d="M18.5049 26.3843C18.2507 26.1064 18.5269 25.616 19.048 25.351L24.1943 22.7336C24.8901 22.3798 25.5663 22.6333 25.4116 23.19L24.2672 27.3066C24.1512 27.724 23.6047 28.1135 23.0976 28.1054C21.1653 28.0742 19.5156 27.4896 18.5049 26.3843ZM26.1635 27.7328C25.6167 27.8693 25.257 27.5905 25.3729 27.1735L26.4893 23.1574C26.6441 22.6007 27.5137 22.1584 28.0548 22.3612L31.9921 23.8372C32.4009 23.9905 32.4101 24.4516 31.9691 24.8131C31.1796 25.4602 30.2787 26.0519 29.2844 26.5576C28.2466 27.0854 27.1928 27.4759 26.1635 27.7328ZM32.781 23.0334C33.1831 23.1841 33.8133 22.9771 34.1093 22.5673C35.2712 20.959 35.7975 19.2423 35.4934 17.7441C35.4185 17.375 34.8595 17.3094 34.3385 17.5744L29.064 20.257C28.3683 20.6108 28.1748 21.3066 28.7158 21.5094L32.781 23.0334Z" fill="#F66464"/>
<path fill-rule="evenodd" clip-rule="evenodd" d="M29.4645 12.1956C29.6217 12.0542 29.821 11.9703 30.032 11.9567L54.3567 10.3844C54.8435 10.3529 55.191 10.6419 55.3398 11.0111L55.3399 11.011L56.1159 12.8543C56.3302 13.3633 56.0913 13.9497 55.5823 14.164L13.1861 32.0123C12.6771 32.2266 12.0907 31.9877 11.8764 31.4787L11.1004 29.6353L11.1006 29.6353C10.9405 29.2709 10.9767 28.8204 11.3395 28.4942L29.4645 12.1956Z" fill="#FBCD89"/>
<path fill-rule="evenodd" clip-rule="evenodd" d="M56.2659 44.453L42.4753 45.1103L42.6232 48.2132C42.6232 48.2132 42.6232 48.2132 42.6232 48.2132C42.714 50.1172 45.8747 51.5136 49.6828 51.3321C53.4909 51.1506 56.5045 49.46 56.4137 47.5559L56.2659 44.453Z" fill="#FFDE6A"/>
<ellipse cx="49.3711" cy="44.7911" rx="6.90308" ry="3.45154" transform="rotate(-2.7287 49.3711 44.7911)" fill="#E0CA92"/>
<path fill-rule="evenodd" clip-rule="evenodd" d="M42.6946 45.8997C43.4644 44.4279 46.0606 43.2561 49.1951 43.1067C52.4605 42.951 55.2499 43.9557 56.0358 45.4457C55.266 46.9174 52.6699 48.0893 49.5354 48.2387C46.2699 48.3943 43.4805 47.3897 42.6946 45.8997Z" fill="#DE2E2E"/>
<path fill-rule="evenodd" clip-rule="evenodd" d="M39.2659 42.453L25.4753 43.1103L25.6232 46.2132C25.6232 46.2132 25.6232 46.2132 25.6232 46.2132C25.714 48.1172 28.8747 49.5136 32.6828 49.3321C36.4909 49.1506 39.5045 47.46 39.4137 45.5559L39.2659 42.453Z" fill="#FFDE6A"/>
<ellipse cx="32.3711" cy="42.7911" rx="6.90308" ry="3.45154" transform="rotate(-2.7287 32.3711 42.7911)" fill="#E0CA92"/>
<path fill-rule="evenodd" clip-rule="evenodd" d="M25.6946 43.8997C26.4644 42.4279 29.0606 41.2561 32.1951 41.1067C35.4605 40.951 38.2499 41.9557 39.0358 43.4457C38.266 44.9174 35.6699 46.0893 32.5354 46.2387C29.2699 46.3943 26.4805 45.3897 25.6946 43.8997Z" fill="#FFFCE4"/>
<path fill-rule="evenodd" clip-rule="evenodd" d="M69.7385 10.1443C69.211 10.0203 68.6882 10.367 68.5974 10.9012L66.6569 22.3083C66.7969 22.3364 66.938 22.3663 67.0799 22.3981L70.4228 11.3304C70.5795 10.8117 70.266 10.2683 69.7385 10.1443Z" fill="#894211"/>
<ellipse rx="3.70563" ry="2.08343" transform="matrix(0.965897 0.258928 -0.201956 0.979395 68.0001 18)" fill="#B1CF7F"/>
<path fill-rule="evenodd" clip-rule="evenodd" d="M71.0378 19.7539C70.864 19.4234 70.7977 19.0868 70.8635 18.7675C70.9294 18.4483 71.1203 18.1806 71.405 17.973C71.5788 18.3036 71.6451 18.6402 71.5793 18.9594C71.5135 19.2787 71.3226 19.5463 71.0378 19.7539Z" fill="#F76464"/>
<path fill-rule="evenodd" clip-rule="evenodd" d="M26.8 8.49252C26.3386 8.77661 26.2125 9.39113 26.5248 9.83397L31.1582 16.4036C31.3871 16.2305 31.6271 16.0629 31.8774 15.902L28.1217 8.85087C27.867 8.37259 27.2615 8.20843 26.8 8.49252ZM35.1041 21.9599C35.0975 21.9634 35.091 21.967 35.0844 21.9705L35.1881 22.1175L35.1041 21.9599Z" fill="#894211"/>
</svg>
