<svg width="109" height="114" viewBox="0 0 109 114" fill="none" xmlns="http://www.w3.org/2000/svg">
<g clip-path="url(#clip0_125_591)">
<path d="M88.4168 51.8297C88.3647 51.7156 88.3249 51.5963 88.2891 51.476C87.7634 49.7134 86.0438 48.6322 84.3639 49.0439L2.1451 61.6103C0.457931 62.0237 -0.568623 63.7909 -0.206354 65.6051C-0.18489 65.7125 -0.148913 65.8165 -0.105762 65.9173L19.3645 111.381C19.4076 111.481 19.4413 111.586 19.472 111.691C19.9895 113.467 21.7167 114.56 23.4039 114.146L105.834 99.1992C107.514 98.7876 108.539 97.0338 108.19 95.2279C108.166 95.1047 108.123 94.9862 108.071 94.8721L88.4168 51.8297Z" fill="#FFF5F0"/>
<path fill-rule="evenodd" clip-rule="evenodd" d="M8.82832 59.9726L6.86262 60.4543L7.95654 64.9185L5.99083 65.4002L4.89694 60.9361L2.93122 61.4178L4.02511 65.8819L0.0938725 66.8452L0.641079 69.0783L4.57232 68.115L5.11918 70.3467L1.18794 71.31L1.73514 73.5431L5.66638 72.5798L21.4547 102.791L17.5232 103.754L18.0704 105.987L22.0019 105.024L22.5487 107.256L18.6175 108.219L19.1647 110.452L23.0959 109.489L24.19 113.954L26.1557 113.472L25.0616 109.007L27.0273 108.525L28.1214 112.99L30.0871 112.509L28.993 108.044L98.0564 96.3721L99.1505 100.837L101.116 100.355L100.022 95.8905L101.988 95.4088L103.082 99.8738L105.047 99.3921L103.953 94.9271L107.885 93.9637L107.338 91.7306L103.406 92.694L102.859 90.4624L106.791 89.499L106.244 87.2659L102.312 88.2293L86.3124 60.3988L90.2442 59.4354L89.697 57.2022L85.7652 58.1657L85.2184 55.934L89.1502 54.9705L88.603 52.7374L84.6712 53.7009L83.5773 49.2367L81.6116 49.7184L82.7055 54.1825L80.7399 54.6642L79.646 50.2L77.6803 50.6817L78.7742 55.1458L9.92224 64.4368L8.82832 59.9726ZM10.4694 66.67L79.3214 57.379L79.8683 59.6107L11.0163 68.9017L10.4694 66.67ZM81.2871 56.8973L83.2527 56.4157L83.7995 58.6474L81.834 59.129L81.2871 56.8973ZM6.53804 67.6333L8.50374 67.1516L9.0506 69.3833L7.0849 69.865L6.53804 67.6333ZM7.63211 72.0981L23.4204 102.309L25.3861 101.828L9.59781 71.6165L7.63211 72.0981ZM11.5635 71.1348L27.3518 101.346L96.4151 89.6743L80.4155 61.8438L11.5635 71.1348ZM27.899 103.579L96.9623 91.9074L97.5091 94.139L28.4458 105.811L27.899 103.579ZM82.3812 61.3621L98.3808 89.1926L100.346 88.711L84.3467 60.8805L82.3812 61.3621ZM98.928 91.4257L100.894 90.9441L101.44 93.1757L99.4749 93.6573L98.928 91.4257ZM23.9676 104.542L25.9333 104.061L26.4801 106.292L24.5144 106.774L23.9676 104.542Z" fill="#FAE3D7"/>
<path fill-rule="evenodd" clip-rule="evenodd" d="M39 58.2935H62.6413C64.4529 62.5206 64.4529 67.3055 62.6413 71.5326L62.6221 71.5402C62.1179 77.8458 51.7348 82.8804 39 82.8804C26.2652 82.8804 15.8821 77.8458 15.3779 71.5402L15.3587 71.5326C13.5471 67.3055 13.5471 62.5206 15.3587 58.2935H39Z" fill="url(#paint0_radial_125_591)"/>
<ellipse rx="23.6413" ry="11.8206" transform="matrix(-1 0 0 1 39.0001 58.7663)" fill="#EECA9B"/>
<path d="M15.3588 58.7663C15.3588 65.2947 25.9434 70.587 39.0001 70.587C52.0568 70.587 62.6414 65.2947 62.6414 58.7663C62.6414 52.238 52.0568 46.9457 39.0001 46.9457C25.9434 46.9457 15.3588 52.238 15.3588 58.7663ZM48.9436 58.7663C48.9436 61.5121 44.4917 63.7381 39.0001 63.7381C33.5084 63.7381 29.0566 61.5121 29.0566 58.7663C29.0566 56.0205 33.5084 53.7946 39.0001 53.7946C44.4917 53.7946 48.9436 56.0205 48.9436 58.7663Z" fill="#F7DBB3"/>
<path d="M15.3588 58.7663C15.3588 59.7116 15.3644 62.8644 16 63.5C17 64.5 17.4676 63.7927 18.6686 64.8019C19.3628 65.3853 18.7361 69.1284 19.6142 69.6413C20.7403 70.299 19.6142 65.8587 24.813 68.2228C28.7646 69.7073 33.6769 70.5869 39.0001 70.5869C42.3598 70.5869 43.6068 73.6347 46.5 73C50.4979 72.123 50.225 75.395 52.712 74.8424C55.199 74.2897 55.0761 71.8872 56.4946 71.5326C60.2772 70.5869 58.1691 65.7788 59.3316 64.8019C61.4339 63.0352 62.6414 60.9713 62.6414 58.7663C62.6414 52.2379 52.0568 46 39.0001 46C25.9434 46 15.3588 52.2379 15.3588 58.7663ZM48.9436 58.7663C48.9436 61.5121 44.4319 63.0217 38.9403 63.0217C33.4486 63.0217 29.0566 61.5121 29.0566 58.7663C29.0566 56.0205 33.5084 53.7945 39.0001 53.7945C42.7827 53.7945 40.4186 56.4022 42.7827 56.4022C44.674 56.4022 42.3099 54.038 45.5477 55.0245C47.6292 55.9358 48.9436 57.2743 48.9436 58.7663Z" fill="#B1CF7F"/>
<ellipse cx="49.8424" cy="62.6032" rx="1.41848" ry="0.472826" fill="#82A579"/>
<ellipse cx="47.0054" cy="65.4402" rx="1.41848" ry="0.472826" transform="rotate(33.4313 47.0054 65.4402)" fill="#DEF3BB"/>
<ellipse cx="51.7595" cy="65.1978" rx="1.41848" ry="0.472826" transform="rotate(-49.257 51.7595 65.1978)" fill="#77C065"/>
<ellipse rx="1.41848" ry="0.472826" transform="matrix(0.314252 -0.94934 -0.94934 -0.314252 53.7806 57.2331)" fill="#82A579"/>
<ellipse rx="1.41848" ry="0.472826" transform="matrix(-0.804732 -0.593638 -0.593638 0.804732 42.3182 64.9084)" fill="#82A579"/>
<ellipse rx="1.41848" ry="0.472826" transform="matrix(-0.804732 -0.593638 -0.593638 0.804732 47.3571 50.1138)" fill="#82A579"/>
<ellipse rx="1.41848" ry="0.472826" transform="matrix(0.766396 -0.642368 -0.642368 -0.766396 40.0397 50.9155)" fill="#82A579"/>
<ellipse rx="1.41848" ry="0.472826" transform="matrix(-0.888025 0.459796 0.459796 0.888025 35.7162 66.0394)" fill="#82A579"/>
<ellipse rx="1.41848" ry="0.472826" transform="matrix(-0.888025 0.459796 0.459796 0.888025 27.2053 62.2568)" fill="#82A579"/>
<ellipse rx="1.41848" ry="0.472826" transform="matrix(0.185823 -0.982583 -0.982583 -0.185823 25.8885 58.1802)" fill="#82A579"/>
<ellipse rx="1.41848" ry="0.472826" transform="matrix(0.838944 -0.544218 -0.544218 -0.838944 31.2148 52.7871)" fill="#82A579"/>
<ellipse rx="1.41848" ry="0.472826" transform="matrix(-0.260768 -0.965402 -0.965402 0.260768 50.1959 59.0348)" fill="#DEF3BB"/>
<ellipse rx="1.41848" ry="0.472826" transform="matrix(-0.998644 -0.052062 -0.052062 0.998644 42.917 68.8754)" fill="#DEF3BB"/>
<ellipse rx="1.41848" ry="0.472826" transform="matrix(-0.998644 -0.052062 -0.052062 0.998644 47.956 54.0809)" fill="#DEF3BB"/>
<ellipse rx="1.41848" ry="0.472826" transform="matrix(0.285689 -0.958322 -0.958322 -0.285689 36.0432 50.5636)" fill="#DEF3BB"/>
<ellipse rx="1.41848" ry="0.472826" transform="matrix(-0.48778 0.872967 0.872967 0.48778 56.1482 60.7624)" fill="#DEF3BB"/>
<ellipse rx="1.41848" ry="0.472826" transform="matrix(-0.48778 0.872967 0.872967 0.48778 30.6156 64.545)" fill="#DEF3BB"/>
<ellipse rx="1.41848" ry="0.472826" transform="matrix(-0.386263 -0.922389 -0.922389 0.386263 21.9841 59.4531)" fill="#DEF3BB"/>
<ellipse rx="1.41848" ry="0.472826" transform="matrix(0.400309 -0.91638 -0.91638 -0.400309 27.5977 50.8425)" fill="#DEF3BB"/>
<ellipse rx="1.41848" ry="0.472826" transform="matrix(0.924364 -0.381511 -0.381511 -0.924364 51.92 54.5978)" fill="#77C065"/>
<ellipse rx="1.41848" ry="0.472826" transform="matrix(-0.0754552 -0.997149 -0.997149 0.0754552 39.2352 65.8582)" fill="#77C065"/>
<ellipse rx="1.41848" ry="0.472826" transform="matrix(-0.0754552 -0.997149 -0.997149 0.0754552 44.2742 51.0636)" fill="#77C065"/>
<ellipse rx="1.41848" ry="0.472826" transform="matrix(0.986888 0.161404 0.161404 -0.986888 39.8424 47.6955)" fill="#77C065"/>
<ellipse rx="1.41848" ry="0.472826" transform="matrix(-0.927946 -0.372714 -0.372714 0.927946 32.8896 67.6364)" fill="#77C065"/>
<ellipse rx="1.41848" ry="0.472826" transform="matrix(-0.927946 -0.372714 -0.372714 0.927946 25.3294 65.4424)" fill="#77C065"/>
<ellipse rx="1.41848" ry="0.472826" transform="matrix(0.86573 -0.500511 -0.500511 -0.86573 24.5381 54.7389)" fill="#77C065"/>
<ellipse rx="1.41848" ry="0.472826" transform="matrix(0.959875 0.280429 0.280429 -0.959875 32.7711 49.4338)" fill="#77C065"/>
<path fill-rule="evenodd" clip-rule="evenodd" d="M69 77.2935H45.3587C43.5471 81.5206 43.5471 86.3055 45.3587 90.5326L45.3779 90.5402C45.8821 96.8458 56.2652 101.88 69 101.88C81.7348 101.88 92.1179 96.8458 92.6221 90.5402L92.6413 90.5326C94.4529 86.3055 94.4529 81.5206 92.6413 77.2935H69Z" fill="url(#paint1_radial_125_591)"/>
<ellipse cx="68.9999" cy="77.7663" rx="23.6413" ry="11.8206" fill="#EECA9B"/>
<path d="M92.6412 77.7663C92.6412 84.2947 82.0566 89.587 68.9999 89.587C55.9432 89.587 45.3586 84.2947 45.3586 77.7663C45.3586 71.238 55.9432 65.9457 68.9999 65.9457C82.0566 65.9457 92.6412 71.238 92.6412 77.7663ZM59.0564 77.7663C59.0564 80.5121 63.5083 82.7381 68.9999 82.7381C74.4916 82.7381 78.9434 80.5121 78.9434 77.7663C78.9434 75.0205 74.4916 72.7946 68.9999 72.7946C63.5083 72.7946 59.0564 75.0205 59.0564 77.7663Z" fill="#F7DBB3"/>
<path d="M92.6412 77.7663C92.6412 79.9713 91.4338 82.0352 89.3314 83.8019C88.6372 84.3853 89.2639 88.1284 88.3858 88.6413C87.2597 89.299 88.3858 84.8587 83.187 87.2228C79.2354 88.7073 74.3231 89.5869 68.9999 89.5869C65.6402 89.5869 62.4366 89.2592 59.5434 88.6245C55.5455 87.7474 57.775 94.395 55.288 93.8424C52.801 93.2897 52.9239 90.8872 51.5054 90.5326C47.7228 89.5869 49.8309 84.7788 48.6684 83.8019C46.5661 82.0352 45.3586 79.9713 45.3586 77.7663C45.3586 71.2379 55.9432 65 68.9999 65C82.0566 65 92.6412 71.2379 92.6412 77.7663ZM59.0564 77.7663C59.0564 80.5121 63.5681 82.0217 69.0597 82.0217C74.5514 82.0217 78.9434 80.5121 78.9434 77.7663C78.9434 75.0205 74.4916 72.7945 68.9999 72.7945C65.2173 72.7945 67.5815 75.4022 65.2173 75.4022C63.326 75.4022 65.6901 73.038 62.4523 74.0245C60.3708 74.9358 59.0564 76.2743 59.0564 77.7663Z" fill="#F69D9D"/>
<ellipse cx="80.4076" cy="81.5489" rx="1.41848" ry="0.472826" fill="#FFD88D"/>
<ellipse cx="77.5706" cy="84.3859" rx="1.41848" ry="0.472826" transform="rotate(33.4313 77.5706 84.3859)" fill="#589EDD"/>
<ellipse cx="82.3247" cy="84.1435" rx="1.41848" ry="0.472826" transform="rotate(-49.257 82.3247 84.1435)" fill="#F76464"/>
<ellipse rx="1.41848" ry="0.472826" transform="matrix(0.314252 -0.94934 -0.94934 -0.314252 84.3458 76.1787)" fill="#FFD88D"/>
<ellipse rx="1.41848" ry="0.472826" transform="matrix(-0.804732 -0.593638 -0.593638 0.804732 72.8834 83.854)" fill="#FFD88D"/>
<ellipse rx="1.41848" ry="0.472826" transform="matrix(-0.804732 -0.593638 -0.593638 0.804732 77.9223 69.0595)" fill="#FFD88D"/>
<ellipse rx="1.41848" ry="0.472826" transform="matrix(0.766396 -0.642368 -0.642368 -0.766396 70.6049 69.8611)" fill="#FFD88D"/>
<ellipse rx="1.41848" ry="0.472826" transform="matrix(-0.888025 0.459796 0.459796 0.888025 66.2814 84.9851)" fill="#FFD88D"/>
<ellipse rx="1.41848" ry="0.472826" transform="matrix(-0.888025 0.459796 0.459796 0.888025 57.7705 81.2025)" fill="#FFD88D"/>
<ellipse rx="1.41848" ry="0.472826" transform="matrix(0.185823 -0.982583 -0.982583 -0.185823 56.4537 77.1259)" fill="#FFD88D"/>
<ellipse rx="1.41848" ry="0.472826" transform="matrix(0.838944 -0.544218 -0.544218 -0.838944 61.78 71.7328)" fill="#FFD88D"/>
<ellipse rx="1.41848" ry="0.472826" transform="matrix(-0.260768 -0.965402 -0.965402 0.260768 80.761 77.9805)" fill="#589EDD"/>
<ellipse rx="1.41848" ry="0.472826" transform="matrix(-0.998644 -0.052062 -0.052062 0.998644 73.4822 87.8211)" fill="#589EDD"/>
<ellipse rx="1.41848" ry="0.472826" transform="matrix(-0.998644 -0.052062 -0.052062 0.998644 78.5212 73.0266)" fill="#589EDD"/>
<ellipse rx="1.41848" ry="0.472826" transform="matrix(0.285689 -0.958322 -0.958322 -0.285689 66.6084 69.5093)" fill="#589EDD"/>
<ellipse rx="1.41848" ry="0.472826" transform="matrix(-0.48778 0.872967 0.872967 0.48778 86.7134 79.7081)" fill="#589EDD"/>
<ellipse rx="1.41848" ry="0.472826" transform="matrix(-0.48778 0.872967 0.872967 0.48778 61.1808 83.4906)" fill="#589EDD"/>
<ellipse rx="1.41848" ry="0.472826" transform="matrix(-0.386263 -0.922389 -0.922389 0.386263 52.5493 78.3988)" fill="#589EDD"/>
<ellipse rx="1.41848" ry="0.472826" transform="matrix(0.400309 -0.91638 -0.91638 -0.400309 58.1629 69.7882)" fill="#589EDD"/>
<ellipse rx="1.41848" ry="0.472826" transform="matrix(0.924364 -0.381511 -0.381511 -0.924364 82.4852 73.5434)" fill="#F76464"/>
<ellipse rx="1.41848" ry="0.472826" transform="matrix(-0.0754552 -0.997149 -0.997149 0.0754552 69.8004 84.8039)" fill="#F76464"/>
<ellipse rx="1.41848" ry="0.472826" transform="matrix(-0.0754552 -0.997149 -0.997149 0.0754552 74.8393 70.0093)" fill="#F76464"/>
<ellipse rx="1.41848" ry="0.472826" transform="matrix(0.986888 0.161404 0.161404 -0.986888 70.4076 66.6412)" fill="#F76464"/>
<ellipse rx="1.41848" ry="0.472826" transform="matrix(-0.927946 -0.372714 -0.372714 0.927946 63.4548 86.5821)" fill="#F76464"/>
<ellipse rx="1.41848" ry="0.472826" transform="matrix(-0.927946 -0.372714 -0.372714 0.927946 55.8946 84.388)" fill="#F76464"/>
<ellipse rx="1.41848" ry="0.472826" transform="matrix(0.86573 -0.500511 -0.500511 -0.86573 55.1033 73.6845)" fill="#F76464"/>
<ellipse rx="1.41848" ry="0.472826" transform="matrix(0.959875 0.280429 0.280429 -0.959875 63.3363 68.3795)" fill="#F76464"/>
</g>
<defs>
<radialGradient id="paint0_radial_125_591" cx="0" cy="0" r="1" gradientUnits="userSpaceOnUse" gradientTransform="translate(39 64.5) rotate(89.2733) scale(32.5678 66.2299)">
<stop offset="0.128927" stop-color="#FEE9C2"/>
<stop offset="0.655024" stop-color="#EECA9B"/>
</radialGradient>
<radialGradient id="paint1_radial_125_591" cx="0" cy="0" r="1" gradientUnits="userSpaceOnUse" gradientTransform="translate(69 89.5869) rotate(90.8937) scale(26.4815 53.8527)">
<stop offset="0.128927" stop-color="#FEE9C2"/>
<stop offset="1" stop-color="#EECA9B"/>
</radialGradient>
<clipPath id="clip0_125_591">
<rect width="109" height="114" fill="white"/>
</clipPath>
</defs>
</svg>
