<svg width="105" height="69" viewBox="0 0 105 69" fill="none" xmlns="http://www.w3.org/2000/svg">
<path d="M103.5 50.5C103.5 52.2596 102.432 54.1747 99.9458 56.1337C97.4771 58.0793 93.8117 59.897 89.1488 61.4513C79.8385 64.5548 66.8811 66.5 52.5 66.5C38.1189 66.5 25.1615 64.5548 15.8512 61.4513C11.1883 59.897 7.52295 58.0793 5.05417 56.1337C2.56849 54.1747 1.5 52.2596 1.5 50.5C1.5 48.7404 2.56849 46.8253 5.05417 44.8663C7.52295 42.9207 11.1883 41.103 15.8512 39.5487C25.1615 36.4452 38.1189 34.5 52.5 34.5C66.8811 34.5 79.8385 36.4452 89.1488 39.5487C93.8117 41.103 97.4771 42.9207 99.9458 44.8663C102.432 46.8253 103.5 48.7404 103.5 50.5Z" fill="#FFF6D8" stroke="#EEBF19" stroke-width="3"/>
<path d="M20.9293 42.4706C21.0085 41.9004 21.5999 41.4123 22.3519 41.2965L80.8356 32.2871C81.5876 32.1713 82.2984 32.4588 82.5455 32.9787L86.3075 57.4C86.6448 58.1096 85.9911 58.9328 84.9646 59.091L26.481 68.1003C25.4545 68.2584 24.5833 67.6701 24.6914 66.8919L20.9293 42.4706Z" fill="#EEF7FF"/>
<mask id="mask0_38_2041" style="mask-type:alpha" maskUnits="userSpaceOnUse" x="20" y="32" width="67" height="37">
<path d="M20.9294 42.4706C21.0086 41.9004 21.5999 41.4123 22.3519 41.2964L80.8356 32.2871C81.5876 32.1713 82.2984 32.4588 82.5455 32.9787L86.3076 57.3999C86.6449 58.1096 85.9911 58.9328 84.9647 59.0909L26.481 68.1002C25.4546 68.2584 24.5834 67.6701 24.6914 66.8918L20.9294 42.4706Z" fill="#E7D1CA"/>
</mask>
<g mask="url(#mask0_38_2041)">
<path d="M21.8529 40.7814L25.89 40.531L25.5706 69.4716L21.5334 69.722L21.8529 40.7814Z" fill="#589EDD" fill-opacity="0.31"/>
<path d="M29.8457 39.5501L33.8815 39.1941L34.9073 68.0337L30.8715 68.3897L29.8457 39.5501Z" fill="#589EDD" fill-opacity="0.31"/>
<path d="M37.8679 38.3143L41.8975 37.8531L44.2674 66.5565L40.2378 67.0177L37.8679 38.3143Z" fill="#589EDD" fill-opacity="0.31"/>
<path d="M45.0878 37.2021L49.1063 36.6363L52.8175 65.1685L48.799 65.7343L45.0878 37.2021Z" fill="#589EDD" fill-opacity="0.31"/>
<path d="M59.5278 34.9776L63.5094 34.2047L69.8877 62.2906L65.9061 63.0635L59.5278 34.9776Z" fill="#589EDD" fill-opacity="0.31"/>
<path d="M67.55 33.7418L71.5058 32.8667L79.2069 60.678L75.2511 61.5531L67.55 33.7418Z" fill="#589EDD" fill-opacity="0.31"/>
<path d="M75.6639 33.1017L79.5892 32.1254L88.6037 59.6281L84.6784 60.6044L75.6639 33.1017Z" fill="#589EDD" fill-opacity="0.31"/>
<path d="M52.3078 36.0899L56.3103 35.4201L61.3581 63.7464L57.3556 64.4162L52.3078 36.0899Z" fill="#589EDD" fill-opacity="0.31"/>
<path d="M15.154 45.472L14.6953 42.4938L86.0927 31.4951L86.5515 34.4733L15.154 45.472Z" fill="#589EDD" fill-opacity="0.31"/>
<path d="M16.0716 51.4284L15.6128 48.4502L87.0103 37.4515L87.4691 40.4297L16.0716 51.4284Z" fill="#589EDD" fill-opacity="0.31"/>
<path d="M16.9892 57.3848L16.5304 54.4066L87.9279 43.4079L88.3867 46.3861L16.9892 57.3848Z" fill="#589EDD" fill-opacity="0.31"/>
<path d="M15.5001 63.712L15.0413 60.7338L94.461 48.4993L94.9198 51.4775L15.5001 63.712Z" fill="#589EDD" fill-opacity="0.31"/>
<path d="M16.4177 69.6684L15.9589 66.6902L95.3786 54.4557L95.8374 57.4339L16.4177 69.6684Z" fill="#589EDD" fill-opacity="0.31"/>
</g>
<path d="M28.8383 8.29554C29.1355 6.21153 32.0363 5.94209 32.7123 7.9357L45.5398 45.766C45.8353 46.6375 45.498 47.5982 44.7225 48.0936L24.6721 60.9039C23.2309 61.8247 21.3738 60.6292 21.6153 58.9361L28.8383 8.29554Z" fill="#FCE2AF"/>
<path d="M33.8383 8.29554C34.1355 6.21153 37.0363 5.94209 37.7123 7.9357L50.5398 45.766C50.8353 46.6375 50.498 47.5982 49.7225 48.0936L29.6721 60.9039C28.2309 61.8247 26.3738 60.6292 26.6153 58.9361L33.8383 8.29554Z" fill="#F7DBB3"/>
<path d="M31 6.6L36 6.59998L28.5 61.2H23.5L31 6.6Z" fill="#FCE2AF"/>
<path d="M44.2939 35.1098C43.5035 42.396 41.9669 48.8925 40.1281 53.5037C39.2079 55.8113 38.2184 57.6303 37.2205 58.8395C36.2134 60.0599 35.2547 60.5938 34.3934 60.5004C33.5322 60.4069 32.7103 59.6799 31.9883 58.2719C31.2729 56.8768 30.6966 54.8879 30.2926 52.4366C29.4855 47.5384 29.3778 40.8636 30.1683 33.5773C30.9588 26.291 32.4953 19.7946 34.3342 15.1834C35.2544 12.8758 36.2439 11.0567 37.2418 9.84751C38.2489 8.6271 39.2076 8.09325 40.0688 8.18668C40.9301 8.28012 41.752 9.00714 42.474 10.4151C43.1893 11.8102 43.7657 13.7991 44.1696 16.2504C44.9768 21.1487 45.0844 27.8235 44.2939 35.1098Z" fill="#DB6363" stroke="#894211" stroke-width="0.6"/>
<path d="M37.831 30.875C37.6124 29.1037 35.0961 28.9672 34.6872 30.7045C34.5696 31.2041 34.2194 31.6169 33.7456 31.8143L30.216 33.285C29.2487 33.6881 28.7565 34.7694 29.0879 35.7636L30.6321 40.3962C30.8688 41.1063 30.8314 41.8792 30.5274 42.5633L27.7871 48.7289C27.3485 49.7159 27.7727 50.8729 28.7455 51.3424L31.0493 52.4543C31.7406 52.788 32.18 53.4879 32.18 54.2555V56.1159C32.18 57.8891 34.548 58.4878 35.3908 56.9277C36.0519 55.704 37.8204 55.7413 38.4292 56.9919L38.4808 57.0978C39.2671 58.7129 41.6815 58.2627 41.833 56.4728L42.1585 52.6261C42.2076 52.0459 42.5071 51.5159 42.9788 51.1746L45.4312 49.3997C46.2946 48.7748 46.5164 47.5827 45.9353 46.6892L42.7098 41.7288C42.4075 41.2639 42.3117 40.6944 42.4454 40.1563L43.6002 35.5082C43.9984 33.9054 42.0677 32.7663 40.8573 33.8901C39.864 34.8123 38.244 34.2212 38.078 32.876L37.831 30.875Z" fill="#77C065"/>
<path d="M42.831 32.9959C42.6124 34.7672 40.0961 34.9036 39.6872 33.1663C39.5696 32.6667 39.2194 32.2539 38.7456 32.0565L35.216 30.5859C34.2487 30.1828 33.7565 29.1014 34.0879 28.1072L35.6321 23.4747C35.8688 22.7646 35.8314 21.9916 35.5274 21.3076L32.7871 15.1419C32.3485 14.1549 32.7727 12.9979 33.7455 12.5284L36.0493 11.4166C36.7406 11.0829 37.18 10.383 37.18 9.61535V7.75497C37.18 5.98177 39.548 5.38301 40.3908 6.9431C41.0519 8.16685 42.8204 8.12951 43.4292 6.87893L43.4808 6.77306C44.2671 5.15799 46.6815 5.60817 46.833 7.3981L47.1585 11.2447C47.2076 11.8249 47.5071 12.3549 47.9788 12.6963L50.4312 14.4712C51.2946 15.096 51.5164 16.2882 50.9353 17.1817L47.7098 22.142C47.4075 22.6069 47.3117 23.1764 47.4454 23.7145L48.6002 28.3626C48.9984 29.9655 47.0677 31.1045 45.8573 29.9808C44.864 29.0586 43.244 29.6497 43.078 30.9949L42.831 32.9959Z" fill="#77C065"/>
<ellipse cx="35.4386" cy="46.7448" rx="3" ry="13.5" transform="rotate(6.1917 35.4386 46.7448)" fill="#F76464"/>
<ellipse cx="39.4386" cy="20.7448" rx="3" ry="13.5" transform="rotate(6.1917 39.4386 20.7448)" fill="#F76464"/>
<path d="M40.8383 8.29554C41.1355 6.21153 44.0363 5.94209 44.7123 7.9357L57.5398 45.766C57.8353 46.6375 57.498 47.5982 56.7225 48.0936L36.6721 60.9039C35.2309 61.8247 33.3738 60.6292 33.6153 58.9361L40.8383 8.29554Z" fill="#FCE2AF"/>
<path d="M45.8383 8.29554C46.1355 6.21153 49.0363 5.94209 49.7123 7.9357L62.5398 45.766C62.8353 46.6375 62.498 47.5982 61.7225 48.0936L41.6721 60.9039C40.2309 61.8247 38.3738 60.6292 38.6153 58.9361L45.8383 8.29554Z" fill="#FFEBC5"/>
<path d="M43 6.6L48 6.59998L40.5 61.2H35.5L43 6.6Z" fill="#FCE2AF"/>
<path d="M52.8383 8.29554C53.1355 6.21153 56.0363 5.94209 56.7123 7.9357L69.5398 45.766C69.8353 46.6375 69.498 47.5982 68.7225 48.0936L48.6721 60.9039C47.2309 61.8247 45.3738 60.6292 45.6153 58.9361L52.8383 8.29554Z" fill="#FCE2AF"/>
<path d="M57.8383 8.29554C58.1355 6.21153 61.0363 5.94209 61.7123 7.9357L74.5398 45.766C74.8353 46.6375 74.498 47.5982 73.7225 48.0936L53.6721 60.9039C52.2309 61.8247 50.3738 60.6292 50.6153 58.9361L57.8383 8.29554Z" fill="#F7DBB3"/>
<path d="M55 6.6L60 6.59998L52.5 61.2H47.5L55 6.6Z" fill="#FCE2AF"/>
<path d="M68.2939 35.1098C67.5035 42.396 65.9669 48.8925 64.1281 53.5037C63.2079 55.8113 62.2184 57.6303 61.2205 58.8395C60.2134 60.0599 59.2547 60.5938 58.3934 60.5004C57.5322 60.4069 56.7103 59.6799 55.9883 58.2719C55.2729 56.8768 54.6966 54.8879 54.2926 52.4366C53.4855 47.5384 53.3778 40.8636 54.1683 33.5773C54.9588 26.291 56.4953 19.7946 58.3342 15.1834C59.2544 12.8758 60.2439 11.0567 61.2418 9.84751C62.2489 8.6271 63.2076 8.09325 64.0688 8.18668C64.9301 8.28012 65.752 9.00714 66.474 10.4151C67.1893 11.8102 67.7657 13.7991 68.1696 16.2504C68.9768 21.1487 69.0844 27.8235 68.2939 35.1098Z" fill="#DB6363" stroke="#894211" stroke-width="0.6"/>
<path d="M59.1415 30.875C59.3601 29.1037 61.8765 28.9672 62.2853 30.7045C62.4029 31.2041 62.7531 31.6169 63.2269 31.8143L66.7565 33.285C67.7239 33.6881 68.2161 34.7694 67.8847 35.7636L66.3405 40.3962C66.1038 41.1063 66.1411 41.8792 66.4451 42.5633L69.1854 48.7289C69.6241 49.7159 69.1998 50.8729 68.2271 51.3424L65.9232 52.4543C65.2319 52.788 64.7925 53.4879 64.7925 54.2555V56.1159C64.7925 57.8891 62.4246 58.4878 61.5817 56.9277C60.9206 55.704 59.1522 55.7413 58.5433 56.9919L58.4917 57.0978C57.7054 58.7129 55.291 58.2627 55.1395 56.4728L54.814 52.6261C54.7649 52.0459 54.4654 51.5159 53.9937 51.1746L51.5413 49.3997C50.6779 48.7748 50.4562 47.5827 51.0372 46.6892L54.2628 41.7288C54.5651 41.2639 54.6608 40.6944 54.5271 40.1563L53.3724 35.5082C52.9741 33.9054 54.9048 32.7663 56.1152 33.8901C57.1085 34.8123 58.7286 34.2212 58.8946 32.876L59.1415 30.875Z" fill="#77C065"/>
<path d="M65.831 8.87499C65.6124 7.10367 63.0961 6.96721 62.6872 8.7045C62.5696 9.20411 62.2194 9.61691 61.7456 9.81432L58.216 11.285C57.2487 11.6881 56.7565 12.7694 57.0879 13.7636L58.6321 18.3962C58.8688 19.1063 58.8314 19.8792 58.5274 20.5633L55.7871 26.7289C55.3485 27.7159 55.7727 28.8729 56.7455 29.3424L59.0493 30.4543C59.7406 30.788 60.18 31.4879 60.18 32.2555V34.1159C60.18 35.8891 62.548 36.4878 63.3908 34.9277C64.0519 33.704 65.8204 33.7413 66.4292 34.9919L66.4808 35.0978C67.2671 36.7129 69.6815 36.2627 69.833 34.4728L70.1585 30.6261C70.2076 30.0459 70.5071 29.5159 70.9788 29.1746L73.4312 27.3997C74.2946 26.7748 74.5164 25.5827 73.9353 24.6892L70.7098 19.7288C70.4075 19.2639 70.3117 18.6944 70.4454 18.1563L71.6002 13.5082C71.9984 11.9054 70.0677 10.7663 68.8573 11.8901C67.864 12.8123 66.244 12.2212 66.078 10.876L65.831 8.87499Z" fill="#77C065"/>
<ellipse cx="59.4386" cy="46.7448" rx="3" ry="13.5" transform="rotate(6.1917 59.4386 46.7448)" fill="#F76464"/>
<ellipse cx="63.4386" cy="20.7448" rx="3" ry="13.5" transform="rotate(6.1917 63.4386 20.7448)" fill="#F76464"/>
<path d="M64.8383 8.29554C65.1355 6.21153 68.0363 5.94209 68.7123 7.9357L81.5398 45.766C81.8353 46.6375 81.498 47.5982 80.7225 48.0936L60.6721 60.9039C59.2309 61.8247 57.3738 60.6292 57.6153 58.9361L64.8383 8.29554Z" fill="#FCE2AF"/>
<path d="M69.8383 8.29554C70.1355 6.21153 73.0363 5.94209 73.7123 7.9357L86.5398 45.766C86.8353 46.6375 86.498 47.5982 85.7225 48.0936L65.6721 60.9039C64.2309 61.8247 62.3738 60.6292 62.6153 58.9361L69.8383 8.29554Z" fill="#FFEBC5"/>
<path d="M67 6.6L72 6.59998L64.5 61.2H59.5L67 6.6Z" fill="#FCE2AF"/>
</svg>
