<svg width="95" height="97" viewBox="0 0 95 97" fill="none" xmlns="http://www.w3.org/2000/svg">
<g clip-path="url(#clip0_120_353)">
<path d="M92.9 70.2692C92.9 71.9965 91.9979 73.8776 89.8544 75.8268C87.7102 77.7765 84.4905 79.6288 80.3337 81.2275C72.0342 84.4196 60.4264 86.4385 47.5 86.4385C34.5736 86.4385 22.9658 84.4196 14.6663 81.2275C10.5095 79.6288 7.28976 77.7765 5.1456 75.8268C3.00205 73.8776 2.1 71.9965 2.1 70.2692C2.1 68.542 3.00205 66.6609 5.1456 64.7117C7.28976 62.762 10.5095 60.9097 14.6663 59.311C22.9658 56.1189 34.5736 54.1 47.5 54.1C60.4264 54.1 72.0342 56.1189 80.3337 59.311C84.4905 60.9097 87.7102 62.762 89.8544 64.7117C91.9979 66.6609 92.9 68.542 92.9 70.2692Z" fill="#EEF7FF" stroke="#324F7A" stroke-width="4.2"/>
<path d="M21.7413 51.3777C21.8046 51.2486 21.8502 51.1117 21.8988 50.9764C22.2761 49.9235 23.4565 49.3177 24.6407 49.6078L84.1075 59.3991C85.3013 59.6916 86.0706 60.7898 85.9022 61.9072C85.8835 62.0315 85.8393 62.1503 85.787 62.2646L72.835 90.599C72.7828 90.7133 72.744 90.8334 72.7032 90.9523C72.3359 92.021 71.146 92.6391 69.9522 92.3465L10.2812 81.0366C9.09699 80.7464 8.33045 79.6635 8.48259 78.5554C8.50215 78.4129 8.55504 78.2778 8.61833 78.1487L21.7413 51.3777Z" fill="#FFFCE4"/>
<path fill-rule="evenodd" clip-rule="evenodd" d="M79.2602 58.2113L80.6859 58.5607L79.9961 61.3759L81.4218 61.7253L82.1116 58.9101L83.5373 59.2594L82.8475 62.0747L85.6988 62.7733L85.3537 64.1816L82.5024 63.4829L82.1575 64.8903L85.0088 65.589L84.6637 66.9973L81.8124 66.2986L71.1071 85.1673L73.9585 85.866L73.6134 87.2743L70.762 86.5755L70.4171 87.9829L73.2684 88.6816L72.9233 90.0898L70.072 89.3911L69.3821 92.2069L67.9564 91.8575L68.6463 89.0418L67.2206 88.6924L66.5307 91.5081L65.1049 91.1588L65.7949 88.3431L15.8187 79.4087L15.1287 82.2245L13.703 81.8751L14.393 79.0594L12.9674 78.7101L12.2774 81.5258L10.8517 81.1765L11.5417 78.3607L8.69001 77.6619L9.03509 76.2536L11.8868 76.9524L12.2316 75.5451L9.38008 74.8464L9.72517 73.4381L12.5767 74.1368L23.4864 56.7869L20.6347 56.0881L20.9797 54.6798L23.8314 55.3786L24.1763 53.9712L21.3246 53.2724L21.6697 51.8641L24.5214 52.5629L25.2112 49.7477L26.637 50.0971L25.9471 52.9123L27.3727 53.2616L28.0625 50.4464L29.4882 50.7957L28.7984 53.611L78.5703 61.0266L79.2602 58.2113ZM78.2253 62.4349L28.4533 55.0192L28.1084 56.4266L77.8804 63.8422L78.2253 62.4349ZM27.0276 54.6699L25.602 54.3206L25.2572 55.728L26.6827 56.0773L27.0276 54.6699ZM81.0767 63.1336L79.651 62.7842L79.3061 64.1916L80.7318 64.541L81.0767 63.1336ZM80.3867 65.9492L69.6814 84.8179L68.2556 84.4686L78.961 65.5999L80.3867 65.9492ZM77.5353 65.2505L66.8299 84.1192L16.8537 75.1849L27.7633 57.8349L77.5353 65.2505ZM66.4848 85.5275L16.5086 76.5931L16.1638 78.0005L66.14 86.9348L66.4848 85.5275ZM26.3376 57.4856L15.428 74.8355L14.0024 74.4862L24.9121 57.1362L26.3376 57.4856ZM15.0829 76.2438L13.6574 75.8945L13.3125 77.3018L14.7381 77.6511L15.0829 76.2438ZM69.3363 86.2262L67.9106 85.8768L67.5657 87.2842L68.9914 87.6335L69.3363 86.2262Z" fill="#9BC4E9"/>
<path fill-rule="evenodd" clip-rule="evenodd" d="M25.5925 43.0671C24.1427 44.0461 23.2749 45.6742 23.2749 47.4153V70.1674C23.2749 71.0703 23.731 71.8674 24.4269 72.3438L25.4812 73.4162C25.6364 73.6298 25.823 73.8196 26.0342 73.9786L27.2948 75.2608C27.3883 75.373 27.491 75.4774 27.6016 75.5729L29.2091 77.2079L29.2187 77.1985C29.6957 77.6484 30.3406 77.9246 31.0505 77.9246H70.0653C71.5344 77.9246 72.7254 76.7419 72.7254 75.283V52.5308C72.7254 50.7898 71.8576 49.1616 70.4078 48.1826C70.349 48.1429 70.2901 48.1034 70.2311 48.0641C69.8452 47.4431 69.328 46.8999 68.7025 46.4775C68.6439 46.4379 68.5851 46.3985 68.5263 46.3593C68.1404 45.7381 67.6231 45.1947 66.9975 44.7722C66.9387 44.7326 66.8798 44.6931 66.8209 44.6538C66.435 44.0328 65.9178 43.4895 65.2923 43.0671C53.3127 34.9776 37.5721 34.9776 25.5925 43.0671Z" fill="url(#paint0_linear_120_353)"/>
<path d="M30.9843 54.3582C30.9843 52.7424 31.8014 51.2314 33.1663 50.3229C44.4451 42.8155 59.2648 42.8155 70.5435 50.3229C71.9085 51.2314 72.7255 52.7424 72.7255 54.3582V75.4733C72.7255 76.8272 71.6042 77.9248 70.221 77.9248H33.4888C30.5972 77.9248 30.9843 78.2018 30.9843 75.4733V54.3582Z" fill="url(#paint1_radial_120_353)"/>
<path fill-rule="evenodd" clip-rule="evenodd" d="M72.6963 51.9789C69.7257 48.9745 64.2439 44.1429 49.0989 44.1429C34.6914 44.1429 30.2452 54.1042 28.5045 58.004C28.121 58.8633 27.8688 59.4283 27.6704 59.5275C26.3521 60.1866 26.1145 58.3402 25.8693 56.4353C25.6471 54.7087 25.4187 52.9341 24.3738 52.9341C23.9588 52.9341 23.5787 52.673 23.275 52.2165V47.4153C23.275 45.6743 24.1428 44.0461 25.5926 43.0671C37.5722 34.9777 53.3128 34.9777 65.2924 43.0671C65.9179 43.4896 66.4352 44.0328 66.821 44.6539C66.88 44.6932 66.9388 44.7326 66.9976 44.7723C67.6232 45.1948 68.1405 45.7382 68.5264 46.3594C68.5853 46.3986 68.644 46.438 68.7027 46.4776C69.3282 46.9 69.8453 47.4432 70.2312 48.0642C70.2902 48.1035 70.3491 48.143 70.4079 48.1827C71.7032 49.0574 72.534 50.4503 72.6963 51.9789Z" fill="url(#paint2_linear_120_353)"/>
</g>
<defs>
<linearGradient id="paint0_linear_120_353" x1="46.2341" y1="37" x2="26.022" y2="76.5604" gradientUnits="userSpaceOnUse">
<stop offset="0.721561" stop-color="#D08539"/>
<stop offset="1" stop-color="#A25A30"/>
</linearGradient>
<radialGradient id="paint1_radial_120_353" cx="0" cy="0" r="1" gradientUnits="userSpaceOnUse" gradientTransform="translate(51.7439 47.6832) rotate(89.3383) scale(46.584 58.511)">
<stop offset="0.561288" stop-color="#FEECAA"/>
<stop offset="0.988898" stop-color="#F4A86C"/>
</radialGradient>
<linearGradient id="paint2_linear_120_353" x1="47.9857" y1="37.0001" x2="23.8288" y2="58.4334" gradientUnits="userSpaceOnUse">
<stop offset="0.593793" stop-color="#FFFCE4"/>
<stop offset="1" stop-color="#FEECAA"/>
</linearGradient>
<clipPath id="clip0_120_353">
<rect width="95" height="97" fill="white"/>
</clipPath>
</defs>
</svg>
