<svg width="120" height="107" viewBox="0 0 120 107" fill="none" xmlns="http://www.w3.org/2000/svg">
<ellipse cx="60" cy="80.6" rx="60" ry="25.6" fill="#EEF7FF"/>
<path d="M4.2 71.172C4.57666 70.7665 4.9769 70.3661 5.4 69.9711V77.9726C4.96967 78.9383 4.8 79.8172 4.8 80.6001C4.8 81.383 4.96967 82.2619 5.4 83.2276V91.2291C4.9769 90.8341 4.57666 90.4337 4.2 90.0282V71.172Z" fill="#324F7A"/>
<path d="M1.2 75.4806C1.53375 74.779 1.93475 74.0878 2.4 73.4083V87.7919C1.93475 87.1124 1.53375 86.4212 1.2 85.7197V75.4806Z" fill="#324F7A"/>
<path d="M8.4 93.6714C7.98621 93.3747 7.58609 93.0741 7.2 92.7698V85.9679C7.44779 86.255 7.71834 86.5474 8.01321 86.8448C8.1386 86.9713 8.26753 87.0978 8.4 87.2242V93.6714Z" fill="#324F7A"/>
<path d="M12 95.9626C11.5909 95.7303 11.1908 95.4949 10.8 95.2565V89.2206C11.1823 89.5015 11.5823 89.7811 12 90.0589V95.9626Z" fill="#324F7A"/>
<path d="M15.6 97.8191C15.1933 97.6283 14.7932 97.4349 14.4 97.2389V91.5247C14.7886 91.7434 15.1886 91.9604 15.6 92.1755V97.8191Z" fill="#324F7A"/>
<path d="M19.2 99.3705C18.7948 99.2101 18.3947 99.0473 18 98.8822V93.349C18.3916 93.5282 18.7916 93.7057 19.2 93.8813V99.3705Z" fill="#324F7A"/>
<path d="M22.8 100.687C22.3957 100.551 21.9957 100.412 21.6 100.271V94.8543C21.9946 95.0052 22.3946 95.1538 22.8 95.3002V100.687Z" fill="#324F7A"/>
<path d="M26.4 101.813C25.9965 101.696 25.5964 101.577 25.2 101.457V96.1202C25.5956 96.2481 25.9957 96.3739 26.4 96.4976V101.813Z" fill="#324F7A"/>
<path d="M30 102.775C29.597 102.676 29.197 102.574 28.8 102.471V97.193C29.1964 97.3017 29.5964 97.4085 30 97.5132V102.775Z" fill="#324F7A"/>
<path d="M33.6 103.595C33.1974 103.511 32.7974 103.425 32.4 103.337V98.1025C32.7969 98.1946 33.197 98.2848 33.6 98.3731V103.595Z" fill="#324F7A"/>
<path d="M37.2 104.287C36.7978 104.216 36.3978 104.144 36 104.07V98.869C36.3974 98.9463 36.7974 99.0218 37.2 99.0954V104.287Z" fill="#324F7A"/>
<path d="M40.8 104.861C40.3981 104.803 39.9981 104.744 39.6 104.682V99.5071C39.9977 99.5709 40.3977 99.6329 40.8 99.6931V104.861Z" fill="#324F7A"/>
<path d="M44.4 105.326C43.9983 105.28 43.5983 105.233 43.2 105.183V100.027C43.598 100.079 43.998 100.128 44.4 100.176V105.326Z" fill="#324F7A"/>
<path d="M48 105.688C47.5985 105.653 47.1985 105.617 46.8 105.579V100.437C47.1983 100.477 47.5983 100.515 48 100.551V105.688Z" fill="#324F7A"/>
<path d="M51.6 105.951C51.1987 105.927 50.7987 105.902 50.4 105.874V100.743C50.7985 100.772 51.1985 100.798 51.6 100.823V105.951Z" fill="#324F7A"/>
<path d="M55.2 106.119C54.7989 106.106 54.3989 106.091 54 106.074V100.95C54.3987 100.967 54.7987 100.983 55.2 100.997V106.119Z" fill="#324F7A"/>
<path d="M58.8 106.195C58.399 106.192 57.999 106.187 57.6 106.18V101.059C57.9988 101.066 58.3988 101.071 58.8 101.075V106.195Z" fill="#324F7A"/>
<path d="M62.4 106.18C62.001 106.187 61.601 106.192 61.2 106.195V101.075C61.6011 101.071 62.0012 101.066 62.4 101.059V106.18Z" fill="#324F7A"/>
<path d="M66 106.074C65.6011 106.091 65.2011 106.106 64.8 106.119V100.997C65.2013 100.983 65.6013 100.967 66 100.95V106.074Z" fill="#324F7A"/>
<path d="M69.6 105.874C69.2013 105.902 68.8013 105.927 68.4 105.951V100.823C68.8015 100.798 69.2015 100.772 69.6 100.743V105.874Z" fill="#324F7A"/>
<path d="M73.2 105.579C72.8015 105.617 72.4015 105.653 72 105.688V100.551C72.4017 100.515 72.8017 100.477 73.2 100.437V105.579Z" fill="#324F7A"/>
<path d="M76.8 105.183C76.4017 105.233 76.0017 105.28 75.6 105.326V100.176C76.0019 100.128 76.402 100.079 76.8 100.027V105.183Z" fill="#324F7A"/>
<path d="M80.4 104.682C80.0019 104.744 79.6019 104.803 79.2 104.861V99.6931C79.6022 99.6329 80.0023 99.5709 80.4 99.5071V104.682Z" fill="#324F7A"/>
<path d="M84 104.07C83.6022 104.144 83.2022 104.216 82.8 104.287V99.0954C83.2026 99.0218 83.6026 98.9463 84 98.869V104.07Z" fill="#324F7A"/>
<path d="M87.6 103.337C87.2026 103.425 86.8025 103.511 86.4 103.595V98.3731C86.803 98.2848 87.203 98.1946 87.6 98.1025V103.337Z" fill="#324F7A"/>
<path d="M91.2 102.471C90.803 102.574 90.403 102.676 90 102.775V97.5132C90.4036 97.4085 90.8036 97.3017 91.2 97.193V102.471Z" fill="#324F7A"/>
<path d="M94.8 101.457C94.4035 101.577 94.0035 101.696 93.6 101.813V96.4976C94.0043 96.3739 94.4043 96.2481 94.8 96.1202V101.457Z" fill="#324F7A"/>
<path d="M98.4 100.271C98.0043 100.412 97.6042 100.551 97.2 100.687V95.3002C97.6053 95.1538 98.0054 95.0052 98.4 94.8543V100.271Z" fill="#324F7A"/>
<path d="M102 98.8822C101.605 99.0473 101.205 99.2101 100.8 99.3705V93.8813C101.208 93.7057 101.608 93.5282 102 93.349V98.8822Z" fill="#324F7A"/>
<path d="M105.6 97.2389C105.207 97.4349 104.807 97.6283 104.4 97.8191V92.1755C104.811 91.9604 105.211 91.7434 105.6 91.5247V97.2389Z" fill="#324F7A"/>
<path d="M109.2 95.2565C108.809 95.4949 108.409 95.7303 108 95.9626V90.0589C108.418 89.7811 108.818 89.5015 109.2 89.2206V95.2565Z" fill="#324F7A"/>
<path d="M112.8 92.7698C112.414 93.0741 112.014 93.3747 111.6 93.6714V87.2242C111.732 87.0978 111.861 86.9713 111.987 86.8448C112.282 86.5474 112.552 86.255 112.8 85.9679V92.7698Z" fill="#324F7A"/>
<path d="M115.8 90.0282C115.423 90.4337 115.023 90.8341 114.6 91.2291V83.2276C115.03 82.2619 115.2 81.383 115.2 80.6001C115.2 79.8172 115.03 78.9383 114.6 77.9726V69.9711C115.023 70.3661 115.423 70.7665 115.8 71.172V90.0282Z" fill="#324F7A"/>
<path d="M118.8 85.7197C118.466 86.4212 118.065 87.1124 117.6 87.7919V73.4083C118.065 74.0878 118.466 74.779 118.8 75.4806V85.7197Z" fill="#324F7A"/>
<path d="M111.6 67.5288C112.014 67.8255 112.414 68.1261 112.8 68.4304V75.2324C112.552 74.9452 112.282 74.6529 111.987 74.3554C111.861 74.2289 111.732 74.1025 111.6 73.9761V67.5288Z" fill="#324F7A"/>
<path d="M108 65.2376C108.409 65.47 108.809 65.7054 109.2 65.9437V71.9796C108.818 71.6987 108.418 71.4192 108 71.1414V65.2376Z" fill="#324F7A"/>
<path d="M104.4 63.3811C104.807 63.5719 105.207 63.7653 105.6 63.9613V69.6755C105.211 69.4568 104.811 69.2398 104.4 69.0247V63.3811Z" fill="#324F7A"/>
<path d="M100.8 61.8297C101.205 61.9902 101.605 62.1529 102 62.318V67.8512C101.608 67.672 101.208 67.4946 100.8 67.3189V61.8297Z" fill="#324F7A"/>
<path d="M97.2 60.513C97.6042 60.6495 98.0043 60.7881 98.4 60.9289V66.3459C98.0054 66.1951 97.6053 66.0464 97.2 65.9001V60.513Z" fill="#324F7A"/>
<path d="M93.6 59.3876C94.0035 59.5042 94.4035 59.6228 94.8 59.7435V65.08C94.4043 64.9521 94.0043 64.8263 93.6 64.7026V59.3876Z" fill="#324F7A"/>
<path d="M90 58.4249C90.403 58.5244 90.803 58.6258 91.2 58.7291V64.0072C90.8036 63.8985 90.4036 63.7918 90 63.687V58.4249Z" fill="#324F7A"/>
<path d="M86.4 57.605C86.8025 57.6892 87.2026 57.7754 87.6 57.8634V63.0977C87.203 63.0056 86.803 62.9154 86.4 62.8271V57.605Z" fill="#324F7A"/>
<path d="M82.8 56.9132C83.2022 56.9837 83.6022 57.0561 84 57.1303V62.3312C83.6026 62.2539 83.2026 62.1784 82.8 62.1048V56.9132Z" fill="#324F7A"/>
<path d="M79.2 56.3389C79.6019 56.3968 80.0019 56.4564 80.4 56.5178V61.6932C80.0023 61.6293 79.6022 61.5673 79.2 61.5071V56.3389Z" fill="#324F7A"/>
<path d="M75.6 55.8739C76.0017 55.92 76.4017 55.9677 76.8 56.0172V61.173C76.402 61.1217 76.0019 61.0722 75.6 61.0244V55.8739Z" fill="#324F7A"/>
<path d="M72 55.5122C72.4015 55.547 72.8015 55.5835 73.2 55.6216V60.7629C72.8017 60.7234 72.4017 60.6856 72 60.6496V55.5122Z" fill="#324F7A"/>
<path d="M68.4 55.249C68.8013 55.273 69.2013 55.2987 69.6 55.326V60.4569C69.2015 60.4286 68.8015 60.4021 68.4 60.3772V55.249Z" fill="#324F7A"/>
<path d="M64.8 55.0808C65.2011 55.0944 65.6011 55.1096 66 55.1265V60.2506C65.6013 60.2332 65.2013 60.2175 64.8 60.2035V55.0808Z" fill="#324F7A"/>
<path d="M61.2 55.0051C61.601 55.0085 62.001 55.0135 62.4 55.0202V60.1409C62.0012 60.1339 61.6011 60.1288 61.2 60.1253V55.0051Z" fill="#324F7A"/>
<path d="M57.6 55.0202C57.999 55.0135 58.399 55.0085 58.8 55.0051V60.1253C58.3988 60.1288 57.9988 60.1339 57.6 60.1409V55.0202Z" fill="#324F7A"/>
<path d="M54 55.1265C54.3989 55.1096 54.7989 55.0944 55.2 55.0808V60.2035C54.7987 60.2175 54.3987 60.2332 54 60.2506V55.1265Z" fill="#324F7A"/>
<path d="M50.4 55.326C50.7987 55.2987 51.1987 55.273 51.6 55.249V60.3772C51.1985 60.4021 50.7985 60.4286 50.4 60.4569V55.326Z" fill="#324F7A"/>
<path d="M46.8 55.6216C47.1985 55.5835 47.5985 55.547 48 55.5122V60.6496C47.5983 60.6856 47.1983 60.7234 46.8 60.7629V55.6216Z" fill="#324F7A"/>
<path d="M43.2 56.0172C43.5983 55.9677 43.9983 55.92 44.4 55.8739V61.0244C43.998 61.0722 43.598 61.1217 43.2 61.173V56.0172Z" fill="#324F7A"/>
<path d="M39.6 56.5178C39.9981 56.4564 40.3981 56.3968 40.8 56.3389V61.5071C40.3977 61.5673 39.9977 61.6293 39.6 61.6932V56.5178Z" fill="#324F7A"/>
<path d="M36 57.1303C36.3978 57.0561 36.7978 56.9837 37.2 56.9132V62.1048C36.7974 62.1784 36.3974 62.2539 36 62.3312V57.1303Z" fill="#324F7A"/>
<path d="M32.4 57.8634C32.7974 57.7754 33.1974 57.6892 33.6 57.605V62.8271C33.197 62.9154 32.7969 63.0056 32.4 63.0977V57.8634Z" fill="#324F7A"/>
<path d="M28.8 58.7291C29.197 58.6258 29.597 58.5244 30 58.4249V63.687C29.5964 63.7918 29.1964 63.8985 28.8 64.0072V58.7291Z" fill="#324F7A"/>
<path d="M25.2 59.7435C25.5964 59.6228 25.9965 59.5042 26.4 59.3876V64.7026C25.9957 64.8263 25.5956 64.9521 25.2 65.08V59.7435Z" fill="#324F7A"/>
<path d="M21.6 60.9289C21.9957 60.7881 22.3957 60.6495 22.8 60.513V65.9C22.3946 66.0464 21.9946 66.1951 21.6 66.3459V60.9289Z" fill="#324F7A"/>
<path d="M18 62.318C18.3947 62.1529 18.7948 61.9902 19.2 61.8297V67.3189C18.7916 67.4946 18.3916 67.672 18 67.8512V62.318Z" fill="#324F7A"/>
<path d="M14.4 63.9613C14.7932 63.7653 15.1933 63.5719 15.6 63.3811V69.0247C15.1886 69.2398 14.7886 69.4568 14.4 69.6755V63.9613Z" fill="#324F7A"/>
<path d="M10.8 65.9437C11.1908 65.7054 11.5909 65.47 12 65.2376V71.1414C11.5823 71.4192 11.1823 71.6987 10.8 71.9796V65.9437Z" fill="#324F7A"/>
<path d="M8.4 67.5288C7.98621 67.8255 7.58609 68.1261 7.2 68.4304V75.2324C7.44779 74.9452 7.71834 74.6529 8.01321 74.3554C8.1386 74.2289 8.26753 74.1025 8.4 73.9761V67.5288Z" fill="#324F7A"/>
<path d="M117.1 80.6C117.1 83.5994 115.582 86.5074 112.73 89.2049C109.876 91.9035 105.721 94.3567 100.544 96.4275C90.1926 100.568 75.8585 103.14 60 103.14C44.1415 103.14 29.8074 100.568 19.4563 96.4275C14.2794 94.3567 10.1235 91.9035 7.27005 89.2049C4.41762 86.5074 2.9 83.5994 2.9 80.6C2.9 77.6006 4.41762 74.6926 7.27005 71.9951C10.1235 69.2965 14.2794 66.8433 19.4563 64.7725C29.8074 60.6321 44.1415 58.06 60 58.06C75.8585 58.06 90.1926 60.6321 100.544 64.7725C105.721 66.8433 109.876 69.2965 112.73 71.9951C115.582 74.6926 117.1 77.6006 117.1 80.6Z" stroke="#324F7A"/>
<path d="M114.7 80.5999C114.7 83.2312 113.264 85.7993 110.532 88.1958C107.801 90.5915 103.821 92.7717 98.8584 94.6127C88.9379 98.2933 75.1995 100.58 60 100.58C44.8005 100.58 31.0621 98.2933 21.1416 94.6127C16.1795 92.7717 12.1987 90.5915 9.46761 88.1958C6.73558 85.7993 5.3 83.2312 5.3 80.5999C5.3 77.9687 6.73558 75.4006 9.46761 73.0041C12.1987 70.6084 16.1795 68.4282 21.1416 66.5872C31.0621 62.9065 44.8005 60.6199 60 60.6199C75.1995 60.6199 88.9379 62.9065 98.8584 66.5872C103.821 68.4282 107.801 70.6084 110.532 73.0041C113.264 75.4006 114.7 77.9687 114.7 80.5999Z" stroke="#324F7A"/>
<path d="M119.5 80.6C119.5 83.9647 117.904 87.2126 114.93 90.2127C111.954 93.2149 107.622 95.9414 102.23 98.242C91.448 102.842 76.5177 105.7 60 105.7C43.4823 105.7 28.552 102.842 17.7698 98.242C12.3778 95.9414 8.04633 93.2149 5.07019 90.2127C2.09612 87.2126 0.5 83.9647 0.5 80.6C0.5 77.2353 2.09612 73.9874 5.07019 70.9873C8.04633 67.9851 12.3778 65.2586 17.7698 62.958C28.552 58.3576 43.4823 55.5 60 55.5C76.5177 55.5 91.448 58.3576 102.23 62.958C107.622 65.2586 111.954 67.9851 114.93 70.9873C117.904 73.9874 119.5 77.2353 119.5 80.6Z" stroke="#324F7A"/>
<ellipse cx="3.36968" cy="3.7755" rx="3.36968" ry="3.7755" transform="matrix(0.989781 0.0235844 0.0913393 1.00898 93.5259 68.8997)" fill="#F66464"/>
<path d="M96.5937 69.2495C96.7211 68.8123 97.3335 68.8269 97.5407 69.2721L97.5563 69.3055C97.6406 69.4866 97.8207 69.6089 98.0094 69.6134L98.1467 69.6167C98.5693 69.6268 98.7766 70.1965 98.4362 70.4124V70.4124C98.2733 70.5157 98.2205 70.732 98.3109 70.9261L98.3185 70.9425C98.5059 71.345 98.1079 71.7019 97.7297 71.4705L97.5242 71.3448C97.3498 71.2381 97.1422 71.2332 96.9863 71.332L96.8028 71.4484C96.465 71.6627 96.0004 71.2853 96.1156 70.89L96.1203 70.8739C96.1759 70.6833 96.0836 70.4636 95.9012 70.352V70.352C95.5202 70.1189 95.6251 69.5566 96.0477 69.5667L96.1849 69.57C96.3737 69.5745 96.5323 69.4602 96.5841 69.2823L96.5937 69.2495Z" fill="#3A6130"/>
<ellipse cx="3.36968" cy="3.7755" rx="3.36968" ry="3.7755" transform="matrix(0.989781 0.0235844 0.0913393 1.00898 20.1382 67.1668)" fill="#F66464"/>
<path d="M23.206 67.5168C23.3334 67.0796 23.9458 67.0942 24.1531 67.5394L24.1686 67.5727C24.253 67.7538 24.433 67.8762 24.6218 67.8807L24.759 67.884C25.1816 67.8941 25.389 68.4638 25.0486 68.6797V68.6797C24.8856 68.783 24.8329 68.9993 24.9232 69.1934L24.9309 69.2098C25.1183 69.6123 24.7202 69.9691 24.342 69.7378L24.1366 69.6121C23.9622 69.5054 23.7545 69.5005 23.5987 69.5993L23.4152 69.7157C23.0773 69.93 22.6128 69.5526 22.728 69.1573L22.7327 69.1412C22.7882 68.9506 22.696 68.7308 22.5136 68.6193V68.6193C22.1326 68.3862 22.2374 67.8239 22.66 67.834L22.7972 67.8372C22.986 67.8417 23.1447 67.7274 23.1965 67.5496L23.206 67.5168Z" fill="#3A6130"/>
<ellipse cx="60.5639" cy="77.5267" rx="37.361" ry="12.1297" fill="#D7BB58"/>
<path d="M69.7284 70.4922C61.7754 71.6863 71.738 62.89 55.1693 65.3777C40.5889 67.5669 47.7493 85.1306 37.5872 86.6564C27.2059 93.122 46.3789 58.2988 54.4315 57.0897C62.484 55.8807 68.6281 58.1334 69.7284 70.4922Z" fill="#F4DC86"/>
<path d="M60.3881 72.225C52.4352 73.4191 62.3977 64.6228 45.8291 67.1105C35.2119 68.7046 37.8805 88.3892 28.2469 88.3892C27.1467 76.0304 37.0387 60.0316 45.0912 58.8225C53.1438 57.6135 59.2878 59.8662 60.3881 72.225Z" fill="#F4DC86"/>
<path d="M52.3822 73.9578C44.4292 75.1519 54.3918 66.3556 37.8231 68.8433C19.8672 71.5393 37.0853 93.122 23.2029 79.2594C19.4933 77.0609 29.0327 61.7644 37.0853 60.5553C45.1378 59.3463 51.2819 61.599 52.3822 73.9578Z" fill="#F4DC86"/>
<path d="M70.6779 64.0677C62.7249 65.2618 75.0031 60.7136 58.4344 63.2013C43.854 65.3905 53.2252 90.5228 41.5902 88.0397C40.4899 75.681 50.3819 59.6821 58.4344 58.4731C66.487 57.2641 70.0107 60.6021 70.6779 64.0677Z" fill="#D5B547"/>
<path d="M75.0657 72.225C67.1127 73.4191 77.0753 64.6228 60.5066 67.1105C45.9262 69.2997 53.0866 86.8634 42.9245 88.3892C41.8242 76.0304 51.7162 60.0316 59.7688 58.8225C67.8213 57.6135 73.9654 59.8662 75.0657 72.225Z" fill="#F4DC86"/>
<path d="M76.0151 64.0677C68.0622 65.2618 80.3404 60.7136 63.7717 63.2013C49.1913 65.3905 51.3302 88.0398 46.9274 88.0398C41.7486 88.0398 55.7192 59.6822 63.7717 58.4731C71.8243 57.2641 75.348 60.6021 76.0151 64.0677Z" fill="#D5B547"/>
<path d="M81.7373 72.2251C73.7843 73.4192 83.7469 64.6229 67.1782 67.1106C52.5978 69.2997 59.7582 86.8635 49.5961 88.3892C41.2163 89.6474 54.5595 59.3321 66.4404 58.8226C74.4929 57.6136 80.637 59.8663 81.7373 72.2251Z" fill="#F4DC86"/>
<path d="M81.3524 65.8004C73.3995 66.9945 85.6777 62.4463 69.109 64.934C54.5286 67.1232 63.8998 92.2555 52.2647 89.7724C47.2207 90.5227 61.0565 61.4148 69.109 60.2058C77.1616 58.9967 80.6853 62.3348 81.3524 65.8004Z" fill="#D5B547"/>
<path d="M85.7402 73.9577C77.7873 75.1518 87.7498 66.3556 71.1812 68.8432C56.6008 71.0324 65.9012 93.9883 51.8908 89.6562C47.633 88.3397 62.3908 61.7643 70.4433 60.5553C78.4959 59.3462 84.6399 61.599 85.7402 73.9577Z" fill="#F4DC86"/>
<path d="M90.4896 75.6906C82.5367 76.8847 92.4992 68.0884 75.9306 70.5761C61.3502 72.7653 67.982 91.8549 58.3484 91.8548C53.9716 91.8548 67.1402 63.4972 75.1927 62.2882C83.2453 61.0791 89.3893 63.3319 90.4896 75.6906Z" fill="#F4DC86"/>
<path d="M97.1612 75.6906C89.2083 76.8847 99.1708 68.0884 82.6022 70.5761C68.0218 72.7653 74.6536 91.8549 65.02 91.8548C60.6432 91.8548 73.8118 63.4972 81.8643 62.2882C89.9169 61.0791 96.0609 63.3319 97.1612 75.6906Z" fill="#F4DC86"/>
<path d="M97.8408 86.7135C90.4637 87.8211 100.626 90.0039 85.2567 92.3115C71.7321 94.3422 75.3505 83.5956 66.5969 85.6448C62.6199 86.5757 78.1621 97.6433 85.6316 96.5218C93.101 95.4003 98.3998 92.9917 97.8408 86.7135Z" fill="#F4DC86"/>
<path d="M97.2578 80.1258C90.1105 79.0527 101.473 73.6974 86.5832 71.4617C73.4799 69.4944 81.0354 89.2481 72.5728 87.0571C68.728 86.0617 78.0121 67.776 85.2489 68.8625C92.4856 69.9491 97.9578 72.2624 97.2578 80.1258Z" fill="#F4DC86"/>
<path d="M102.319 83.6551C95.1715 82.582 106.534 79.8259 91.6442 77.5902C78.5409 75.6228 86.0963 92.7773 77.6338 90.5863C73.789 89.5909 80.6808 70.3751 87.9175 71.4617C95.1543 72.5482 103.019 75.7916 102.319 83.6551Z" fill="#F4DC86"/>
<path d="M61.6984 83.1398C69.7543 84.3493 57.1623 85.0367 73.9454 87.5566C88.7145 89.7741 79.4253 79.1237 89.0081 81.0943C93.3619 81.9896 83.8473 91.931 75.6906 90.7063C67.5338 89.4816 61.2939 87.6829 61.6984 83.1398Z" fill="#F4DC86"/>
<path d="M63.7128 76.682C71.7686 77.8915 59.1767 78.5789 75.9597 81.0988C90.7288 83.3163 81.4397 72.6659 91.0225 74.6365C95.3762 75.5317 85.8617 85.4732 77.7049 84.2485C69.5482 83.0238 63.3083 81.2251 63.7128 76.682Z" fill="#F4DC86"/>
<path d="M77.9671 86.6906C73.759 81.5978 82.6321 85.0634 85.7679 85.0634C90.8999 85.0634 88.1683 75.108 97.7511 77.0786C102.105 77.9738 96.5932 89.7538 88.4365 88.5291C80.2797 87.3044 80.5435 89.8086 77.9671 86.6906Z" fill="#F4DC86"/>
<path d="M42.4422 84.4638C50.498 85.6734 37.869 86.7769 54.6521 89.2968C69.4212 91.5143 60.265 79.3699 69.8402 81.4263C74.1905 82.3605 64.5125 94.1373 56.3558 92.9126C48.199 91.6879 41.9715 89.7501 42.4422 84.4638Z" fill="#F4DC86"/>
<path d="M25.096 86.3416C33.1519 87.5511 20.5229 88.6547 37.3059 91.1745C52.075 93.392 42.9189 81.2476 52.494 83.304C56.8443 84.2383 47.1664 96.0151 39.0096 94.7904C30.8529 93.5657 24.6254 91.6279 25.096 86.3416Z" fill="#F4DC86"/>
<path d="M21.8686 78.1055C24.6457 76.2218 17.8542 83.4562 34.6373 85.9761C49.4064 88.1936 40.2502 76.0492 49.8254 78.1055C54.1757 79.0398 44.4977 90.8166 36.341 89.5919C28.1842 88.3672 17.2031 81.2703 21.8686 78.1055Z" fill="#F4DC86"/>
<path d="M61.5737 86.8604C66.0044 87.5257 58.7272 91.8543 67.9577 93.2402C76.0806 94.4598 72.2343 74.4188 77.4322 76.3174C79.7938 77.18 73.0097 100.071 68.5236 99.3976C64.0375 98.724 60.7232 96.4141 61.5737 86.8604Z" fill="#F4DC86"/>
<ellipse cx="3.36968" cy="3.7755" rx="3.36968" ry="3.7755" transform="matrix(0.989781 0.0235844 0.0913393 1.00898 45.8864 88.8743)" fill="#F66464"/>
<path d="M48.9542 89.2243C49.0816 88.787 49.694 88.8016 49.9013 89.2468L49.9168 89.2802C50.0011 89.4613 50.1812 89.5837 50.37 89.5882L50.5072 89.5914C50.9298 89.6015 51.1371 90.1712 50.7967 90.3871V90.3871C50.6338 90.4905 50.581 90.7067 50.6714 90.9008L50.6791 90.9173C50.8665 91.3197 50.4684 91.6766 50.0902 91.4452L49.8848 91.3196C49.7103 91.2129 49.5027 91.2079 49.3469 91.3067L49.1633 91.4232C48.8255 91.6375 48.361 91.26 48.4761 90.8648L48.4808 90.8486C48.5364 90.658 48.4442 90.4383 48.2618 90.3267V90.3267C47.8807 90.0936 47.9856 89.5314 48.4082 89.5414L48.5454 89.5447C48.7342 89.5492 48.8928 89.4349 48.9447 89.257L48.9542 89.2243Z" fill="#3A6130"/>
<path d="M62.2837 62.6518C62.3999 62.374 62.8027 62.3836 62.9698 62.6681L63.0019 62.7228C63.059 62.8201 63.1633 62.8832 63.2713 62.8857L63.4915 62.891C63.744 62.897 63.8515 63.2402 63.6327 63.3418V63.3418C63.5176 63.3953 63.4806 63.538 63.5509 63.6578L63.5615 63.6757C63.69 63.8945 63.4844 64.1207 63.2553 64.0125L62.8981 63.8437C62.7895 63.7924 62.6688 63.7895 62.569 63.8359L62.2409 63.9883C62.0304 64.086 61.7829 63.8491 61.8723 63.6355L61.8796 63.6179C61.9285 63.5011 61.8655 63.3559 61.7401 63.2967V63.2967C61.502 63.1842 61.5477 62.8447 61.8001 62.8507L62.0204 62.8559C62.1284 62.8585 62.2216 62.8001 62.2614 62.7051L62.2837 62.6518Z" fill="#FFFCE4"/>
<path d="M68.9553 67.8503C69.0715 67.5725 69.4743 67.5821 69.6414 67.8666L69.6735 67.9213C69.7307 68.0186 69.8349 68.0816 69.9429 68.0842L70.1632 68.0895C70.4156 68.0955 70.5231 68.4387 70.3043 68.5403V68.5403C70.1892 68.5938 70.1523 68.7365 70.2226 68.8562L70.2331 68.8742C70.3616 69.093 70.156 69.3192 69.9269 69.2109L69.5698 69.0422C69.4611 68.9909 69.3404 68.988 69.2406 69.0344L68.9125 69.1868C68.7021 69.2845 68.4545 69.0476 68.5439 68.8339L68.5512 68.8164C68.6001 68.6995 68.5371 68.5544 68.4117 68.4952V68.4952C68.1736 68.3827 68.2193 68.0431 68.4717 68.0492L68.692 68.0544C68.8 68.057 68.8932 67.9986 68.933 67.9036L68.9553 67.8503Z" fill="#FFFCE4"/>
<path d="M74.2926 66.1175C74.4088 65.8397 74.8116 65.8493 74.9787 66.1338L75.0108 66.1885C75.0679 66.2858 75.1722 66.3489 75.2802 66.3514L75.5004 66.3567C75.7529 66.3627 75.8603 66.7059 75.6416 66.8075V66.8075C75.5265 66.861 75.4895 67.0037 75.5598 67.1235L75.5704 67.1414C75.6989 67.3602 75.4933 67.5864 75.2642 67.4782L74.907 67.3094C74.7984 67.2581 74.6777 67.2552 74.5778 67.3016L74.2498 67.454C74.0393 67.5517 73.7918 67.3148 73.8811 67.1012L73.8885 67.0836C73.9374 66.9668 73.8743 66.8216 73.749 66.7624V66.7624C73.5109 66.6499 73.5566 66.3104 73.809 66.3164L74.0293 66.3216C74.1373 66.3242 74.2305 66.2658 74.2703 66.1708L74.2926 66.1175Z" fill="#FFFCE4"/>
<path d="M67.621 60.9189C67.7372 60.6411 68.14 60.6507 68.3071 60.9353L68.3392 60.9899C68.3963 61.0873 68.5006 61.1503 68.6086 61.1529L68.8288 61.1581C69.0813 61.1641 69.1887 61.5073 68.97 61.6089V61.6089C68.8549 61.6624 68.8179 61.8052 68.8882 61.9249L68.8988 61.9429C69.0273 62.1617 68.8217 62.3878 68.5926 62.2796L68.2354 62.1109C68.1268 62.0596 68.0061 62.0567 67.9062 62.1031L67.5782 62.2554C67.3677 62.3532 67.1202 62.1162 67.2095 61.9026L67.2169 61.8851C67.2658 61.7682 67.2027 61.6231 67.0774 61.5638V61.5638C66.8393 61.4514 66.885 61.1118 67.1374 61.1178L67.3577 61.1231C67.4657 61.1256 67.5589 61.0673 67.5986 60.9723L67.621 60.9189Z" fill="#FFFCE4"/>
<path d="M55.6121 67.8503C55.7283 67.5725 56.1311 67.5821 56.2982 67.8666L56.3303 67.9213C56.3874 68.0186 56.4917 68.0816 56.5997 68.0842L56.8199 68.0895C57.0724 68.0955 57.1798 68.4387 56.9611 68.5403V68.5403C56.846 68.5938 56.809 68.7365 56.8793 68.8562L56.8899 68.8742C57.0184 69.093 56.8128 69.3192 56.5837 69.2109L56.2265 69.0422C56.1179 68.9909 55.9972 68.988 55.8974 69.0344L55.5693 69.1868C55.3588 69.2845 55.1113 69.0476 55.2007 68.8339L55.208 68.8164C55.2569 68.6995 55.1938 68.5544 55.0685 68.4952V68.4952C54.8304 68.3827 54.8761 68.0431 55.1285 68.0492L55.3488 68.0544C55.4568 68.057 55.55 67.9986 55.5898 67.9036L55.6121 67.8503Z" fill="#FFFCE4"/>
<path d="M51.6091 62.6518C51.7253 62.374 52.1281 62.3836 52.2952 62.6681L52.3273 62.7228C52.3845 62.8201 52.4887 62.8832 52.5967 62.8857L52.817 62.891C53.0694 62.897 53.1769 63.2402 52.9582 63.3418V63.3418C52.843 63.3953 52.8061 63.538 52.8764 63.6578L52.8869 63.6757C53.0154 63.8945 52.8098 64.1207 52.5807 64.0125L52.2236 63.8437C52.1149 63.7924 51.9942 63.7895 51.8944 63.8359L51.5663 63.9883C51.3559 64.086 51.1083 63.8491 51.1977 63.6355L51.205 63.6179C51.2539 63.5011 51.1909 63.3559 51.0656 63.2967V63.2967C50.8274 63.1842 50.8731 62.8447 51.1256 62.8507L51.3458 62.8559C51.4538 62.8585 51.5471 62.8001 51.5868 62.7051L51.6091 62.6518Z" fill="#FFFCE4"/>
<path d="M46.2718 64.3846C46.388 64.1068 46.7909 64.1164 46.9579 64.401L46.99 64.4556C47.0472 64.553 47.1514 64.616 47.2594 64.6186L47.4797 64.6238C47.7321 64.6298 47.8396 64.973 47.6209 65.0746V65.0746C47.5057 65.1281 47.4688 65.2709 47.5391 65.3906L47.5496 65.4086C47.6781 65.6274 47.4725 65.8535 47.2434 65.7453L46.8863 65.5766C46.7776 65.5253 46.6569 65.5224 46.5571 65.5688L46.229 65.7211C46.0186 65.8189 45.771 65.5819 45.8604 65.3683L45.8677 65.3508C45.9166 65.2339 45.8536 65.0887 45.7283 65.0295V65.0295C45.4902 64.9171 45.5358 64.5775 45.7883 64.5835L46.0085 64.5888C46.1165 64.5913 46.2098 64.533 46.2495 64.438L46.2718 64.3846Z" fill="#FFFCE4"/>
<path d="M40.9346 66.1175C41.0507 65.8397 41.4536 65.8493 41.6207 66.1338L41.6528 66.1885C41.7099 66.2858 41.8142 66.3489 41.9222 66.3514L42.1424 66.3567C42.3948 66.3627 42.5023 66.7059 42.2836 66.8075V66.8075C42.1685 66.861 42.1315 67.0037 42.2018 67.1235L42.2124 67.1414C42.3409 67.3602 42.1352 67.5864 41.9062 67.4782L41.549 67.3094C41.4403 67.2581 41.3197 67.2552 41.2198 67.3016L40.8917 67.454C40.6813 67.5517 40.4338 67.3148 40.5231 67.1012L40.5305 67.0836C40.5793 66.9668 40.5163 66.8216 40.391 66.7624V66.7624C40.1529 66.6499 40.1986 66.3104 40.451 66.3164L40.6712 66.3216C40.7792 66.3242 40.8725 66.2658 40.9122 66.1708L40.9346 66.1175Z" fill="#FFFCE4"/>
<path d="M35.5973 64.3846C35.7135 64.1068 36.1163 64.1164 36.2834 64.401L36.3155 64.4556C36.3726 64.553 36.4769 64.616 36.5849 64.6186L36.8051 64.6238C37.0576 64.6298 37.165 64.973 36.9463 65.0746V65.0746C36.8312 65.1281 36.7942 65.2709 36.8645 65.3906L36.8751 65.4086C37.0036 65.6274 36.798 65.8535 36.5689 65.7453L36.2117 65.5766C36.1031 65.5253 35.9824 65.5224 35.8825 65.5688L35.5545 65.7211C35.344 65.8189 35.0965 65.5819 35.1858 65.3683L35.1932 65.3508C35.2421 65.2339 35.179 65.0887 35.0537 65.0295V65.0295C34.8156 64.9171 34.8613 64.5775 35.1137 64.5835L35.334 64.5888C35.442 64.5913 35.5352 64.533 35.5749 64.438L35.5973 64.3846Z" fill="#FFFCE4"/>
<path d="M43.6032 60.9189C43.7194 60.6411 44.1222 60.6507 44.2893 60.9353L44.3214 60.9899C44.3785 61.0873 44.4828 61.1503 44.5908 61.1529L44.811 61.1581C45.0635 61.1641 45.171 61.5073 44.9522 61.6089V61.6089C44.8371 61.6624 44.8001 61.8052 44.8705 61.9249L44.881 61.9429C45.0095 62.1617 44.8039 62.3878 44.5748 62.2796L44.2176 62.1109C44.109 62.0596 43.9883 62.0567 43.8885 62.1031L43.5604 62.2554C43.35 62.3532 43.1024 62.1162 43.1918 61.9026L43.1991 61.8851C43.248 61.7682 43.185 61.6231 43.0596 61.5638V61.5638C42.8215 61.4514 42.8672 61.1118 43.1196 61.1178L43.3399 61.1231C43.4479 61.1256 43.5411 61.0673 43.5809 60.9723L43.6032 60.9189Z" fill="#FFFCE4"/>
<path d="M54.2778 59.1861C54.3939 58.9084 54.7968 58.918 54.9639 59.2025L54.996 59.2572C55.0531 59.3545 55.1574 59.4175 55.2654 59.4201L55.4856 59.4253C55.7381 59.4314 55.8455 59.7746 55.6268 59.8762V59.8762C55.5117 59.9296 55.4747 60.0724 55.545 60.1921L55.5556 60.2101C55.6841 60.4289 55.4785 60.655 55.2494 60.5468L54.8922 60.3781C54.7836 60.3268 54.6629 60.3239 54.563 60.3703L54.235 60.5227C54.0245 60.6204 53.777 60.3835 53.8663 60.1698L53.8737 60.1523C53.9226 60.0354 53.8595 59.8903 53.7342 59.8311V59.8311C53.4961 59.7186 53.5418 59.379 53.7942 59.385L54.0145 59.3903C54.1225 59.3929 54.2157 59.3345 54.2554 59.2395L54.2778 59.1861Z" fill="#FFFCE4"/>
<path d="M64.9523 66.1175C65.0685 65.8397 65.4714 65.8493 65.6384 66.1338L65.6705 66.1885C65.7277 66.2858 65.8319 66.3489 65.9399 66.3514L66.1602 66.3567C66.4126 66.3627 66.5201 66.7059 66.3014 66.8075V66.8075C66.1862 66.861 66.1493 67.0037 66.2196 67.1235L66.2301 67.1414C66.3586 67.3602 66.153 67.5864 65.9239 67.4782L65.5668 67.3094C65.4581 67.2581 65.3374 67.2552 65.2376 67.3016L64.9095 67.454C64.6991 67.5517 64.4515 67.3148 64.5409 67.1012L64.5482 67.0836C64.5971 66.9668 64.5341 66.8216 64.4088 66.7624V66.7624C64.1707 66.6499 64.2163 66.3104 64.4688 66.3164L64.689 66.3216C64.797 66.3242 64.8903 66.2658 64.93 66.1708L64.9523 66.1175Z" fill="#FFFCE4"/>
<path d="M72.9583 62.6518C73.0744 62.374 73.4773 62.3836 73.6444 62.6681L73.6765 62.7228C73.7336 62.8201 73.8379 62.8832 73.9459 62.8857L74.1661 62.891C74.4185 62.897 74.526 63.2402 74.3073 63.3418V63.3418C74.1922 63.3953 74.1552 63.538 74.2255 63.6578L74.2361 63.6757C74.3646 63.8945 74.1589 64.1207 73.9299 64.0125L73.5727 63.8437C73.464 63.7924 73.3434 63.7895 73.2435 63.8359L72.9154 63.9883C72.705 64.086 72.4575 63.8491 72.5468 63.6355L72.5542 63.6179C72.603 63.5011 72.54 63.3559 72.4147 63.2967V63.2967C72.1766 63.1842 72.2223 62.8447 72.4747 62.8507L72.6949 62.8559C72.8029 62.8585 72.8962 62.8001 72.9359 62.7051L72.9583 62.6518Z" fill="#FFFCE4"/>
<path d="M37.5328 67.0226C37.5618 68.0227 37.0583 69.3324 36.7598 69.5188C36.4613 69.7053 36.4808 68.698 36.4519 67.6979C36.423 66.6978 36.6357 65.5346 36.9342 65.3482C37.2327 65.1617 37.5039 66.0225 37.5328 67.0226Z" fill="#36652A"/>
<path d="M36.1745 68.971C36.2034 69.9711 35.6999 71.2807 35.4014 71.4672C35.1029 71.6537 35.1225 70.6464 35.0935 69.6462C35.0646 68.6461 35.2773 67.483 35.5758 67.2965C35.8743 67.1101 36.1456 67.9708 36.1745 68.971Z" fill="#36652A"/>
<path d="M34.8161 70.9193C34.845 71.9194 34.3415 73.229 34.043 73.4155C33.7445 73.602 33.7641 72.5947 33.7351 71.5945C33.7062 70.5944 33.9189 69.4313 34.2174 69.2448C34.5159 69.0584 34.7871 69.9191 34.8161 70.9193Z" fill="#36652A"/>
<path d="M38.1895 68.175C37.6614 67.9853 36.8959 68.7355 36.756 69.2607C36.6162 69.7859 37.1548 69.8872 37.6829 70.0769C38.2111 70.2666 38.8589 70.0327 38.9988 69.5075C39.1387 68.9823 38.7177 68.3646 38.1895 68.175Z" fill="#36652A"/>
<path d="M36.8311 70.1233C36.303 69.9336 35.5376 70.6838 35.3977 71.209C35.2578 71.7342 35.7964 71.8355 36.3245 72.0252C36.8527 72.2149 37.5005 71.981 37.6404 71.4558C37.7803 70.9306 37.3593 70.313 36.8311 70.1233Z" fill="#36652A"/>
<path d="M35.4727 72.0712C34.9445 71.8815 34.1791 72.6318 34.0392 73.157C33.8993 73.6822 34.4379 73.7835 34.9661 73.9731C35.4942 74.1628 36.1421 73.929 36.282 73.4038C36.4219 72.8786 36.0009 72.2609 35.4727 72.0712Z" fill="#36652A"/>
<path d="M35.7531 71.4184C36.3471 70.9842 36.869 69.6912 36.8361 69.2037C36.8031 68.7162 36.3007 70.529 35.7067 70.9632C35.1126 71.3975 34.0866 72.9588 34.1195 73.4464C34.1525 73.9339 35.1591 71.8527 35.7531 71.4184Z" fill="#36652A"/>
<path d="M56.6938 61.3111C56.6057 62.3678 57.1056 63.6809 57.4346 63.8382C57.7635 63.9955 57.7969 62.9376 57.8849 61.8808C57.9729 60.8241 57.7954 59.6273 57.4665 59.47C57.1375 59.3126 56.7818 60.2543 56.6938 61.3111Z" fill="#36652A"/>
<path d="M58.1299 63.1848C58.0419 64.2416 58.5418 65.5546 58.8707 65.712C59.1996 65.8693 59.233 64.8113 59.321 63.7546C59.4091 62.6979 59.2315 61.5011 58.9026 61.3438C58.5737 61.1864 58.2179 62.1281 58.1299 63.1848Z" fill="#36652A"/>
<path d="M59.5661 65.0586C59.4781 66.1153 59.978 67.4284 60.3069 67.5858C60.6358 67.7431 60.6692 66.6851 60.7572 65.6284C60.8453 64.5717 60.6677 63.3749 60.3388 63.2175C60.0099 63.0602 59.6541 64.0019 59.5661 65.0586Z" fill="#36652A"/>
<path d="M55.884 62.6101C56.4946 62.3414 57.3231 63.0314 57.4531 63.566C57.5831 64.1007 56.9654 64.2777 56.3548 64.5463C55.7441 64.815 55.0209 64.6534 54.8909 64.1188C54.7609 63.5841 55.2733 62.8788 55.884 62.6101Z" fill="#36652A"/>
<path d="M57.3201 64.4838C57.9308 64.2152 58.7592 64.9051 58.8892 65.4397C59.0192 65.9744 58.4016 66.1514 57.7909 66.4201C57.1803 66.6887 56.457 66.5272 56.327 65.9925C56.197 65.4578 56.7095 64.7525 57.3201 64.4838Z" fill="#36652A"/>
<path d="M58.7564 66.3573C59.3671 66.0886 60.1955 66.7785 60.3255 67.3132C60.4555 67.8478 59.8379 68.0248 59.2272 68.2935C58.6166 68.5622 57.8933 68.4006 57.7633 67.8659C57.6333 67.3312 58.1458 66.6259 58.7564 66.3573Z" fill="#36652A"/>
<path d="M58.4738 65.7067C57.8227 65.327 57.3009 64.034 57.3653 63.5164C57.4296 62.9988 57.9005 64.8417 58.5516 65.2214C59.2027 65.601 60.2826 67.1108 60.2182 67.6284C60.1539 68.146 59.1249 66.0863 58.4738 65.7067Z" fill="#36652A"/>
<path d="M78.75 72.5061C78.7664 71.5494 79.2726 70.2424 79.5478 70.0336C79.8229 69.8247 79.7628 70.7932 79.7464 71.7499C79.73 72.7066 79.4903 73.8439 79.2152 74.0527C78.94 74.2615 78.7336 73.4628 78.75 72.5061Z" fill="#36652A"/>
<path d="M80.0487 70.5007C80.0651 69.544 80.5713 68.237 80.8465 68.0282C81.1216 67.8194 81.0615 68.7878 81.0451 69.7445C81.0287 70.7012 80.789 71.8385 80.5139 72.0473C80.2387 72.2561 80.0322 71.4574 80.0487 70.5007Z" fill="#36652A"/>
<path d="M81.3474 68.4952C81.3638 67.5385 81.87 66.2315 82.1452 66.0227C82.4204 65.8139 82.3603 66.7823 82.3438 67.739C82.3274 68.6957 82.0878 69.833 81.8126 70.0418C81.5374 70.2506 81.331 69.4519 81.3474 68.4952Z" fill="#36652A"/>
<path d="M78.2107 71.4662C78.6756 71.5953 79.3927 70.7988 79.5402 70.2808C79.6877 69.7629 79.2097 69.7197 78.7448 69.5906C78.2799 69.4615 77.69 69.7508 77.5425 70.2687C77.395 70.7867 77.7459 71.3371 78.2107 71.4662Z" fill="#36652A"/>
<path d="M79.5094 69.461C79.9743 69.59 80.6914 68.7935 80.8389 68.2756C80.9864 67.7576 80.5084 67.7144 80.0435 67.5854C79.5786 67.4563 78.9887 67.7455 78.8412 68.2635C78.6937 68.7814 79.0446 69.3319 79.5094 69.461Z" fill="#36652A"/>
<path d="M80.8082 67.4557C81.2731 67.5848 81.9902 66.7883 82.1377 66.2703C82.2851 65.7524 81.8072 65.7092 81.3423 65.5801C80.8774 65.451 80.2875 65.7403 80.14 66.2582C79.9925 66.7762 80.3433 67.3266 80.8082 67.4557Z" fill="#36652A"/>
<path d="M80.5295 68.1101C79.9792 68.5863 79.4572 69.8791 79.4661 70.3436C79.475 70.808 80.0015 69.0184 80.5518 68.5422C81.1021 68.066 82.0869 66.4651 82.078 66.0007C82.0691 65.5362 81.0798 67.6339 80.5295 68.1101Z" fill="#36652A"/>
<ellipse cx="0.717997" cy="0.412385" rx="0.717997" ry="0.412385" transform="matrix(0.815126 0.579283 -0.38832 0.921525 70.1462 65.0342)" fill="#444444"/>
<ellipse cx="0.717997" cy="0.412385" rx="0.717997" ry="0.412385" transform="matrix(0.815126 0.579283 -0.38832 0.921525 76.8961 63.6641)" fill="#444444"/>
<ellipse cx="0.717997" cy="0.412385" rx="0.717997" ry="0.412385" transform="matrix(0.815126 0.579283 -0.38832 0.921525 50.2097 67.1298)" fill="#444444"/>
<ellipse cx="0.717997" cy="0.412385" rx="0.717997" ry="0.412385" transform="matrix(0.815126 0.579283 -0.38832 0.921525 47.541 60.1984)" fill="#444444"/>
<ellipse cx="0.717997" cy="0.412385" rx="0.717997" ry="0.412385" transform="matrix(0.815126 0.579283 -0.38832 0.921525 39.5351 63.6641)" fill="#444444"/>
<ellipse cx="0.717997" cy="0.412385" rx="0.717997" ry="0.412385" transform="matrix(0.815126 0.579283 -0.38832 0.921525 31.5292 67.1298)" fill="#444444"/>
<ellipse cx="0.717997" cy="0.412385" rx="0.717997" ry="0.412385" transform="matrix(0.815126 0.579283 -0.38832 0.921525 62.2185 60.1984)" fill="#444444"/>
<path fill-rule="evenodd" clip-rule="evenodd" d="M73.4173 70.7443C73.4266 70.6173 73.2592 70.5738 73.1858 70.6707C72.4662 71.6216 70.5203 72.0628 68.2894 71.6749C66.0584 71.287 64.2256 70.1888 63.662 69.0148C63.6045 68.8952 63.435 68.8801 63.4257 69.007V69.007C63.319 70.4594 65.4693 72.0256 68.2284 72.5053C70.9875 72.9851 73.3107 72.1966 73.4173 70.7443V70.7443Z" fill="#FFFEF5" fill-opacity="0.92"/>
<path fill-rule="evenodd" clip-rule="evenodd" d="M86.7565 65.077C86.7743 65.2038 86.6113 65.2658 86.5313 65.1767C85.7519 64.309 83.7835 64.0862 81.5859 64.7216C79.3883 65.357 77.6345 66.6561 77.1511 67.889C77.1015 68.0154 76.9345 68.0489 76.9166 67.9222V67.9222C76.7143 66.4871 78.7531 64.6868 81.4703 63.9011C84.1875 63.1155 86.5542 63.6419 86.7565 65.077V65.077Z" fill="#FFFEF5" fill-opacity="0.92"/>
<path fill-rule="evenodd" clip-rule="evenodd" d="M51.4595 60.8806C51.4757 61.0204 51.2939 61.0625 51.1959 60.9642C50.3248 60.0909 47.9704 59.7065 45.2856 60.096C42.6008 60.4854 40.4118 61.5289 39.7684 62.6219C39.696 62.7449 39.5107 62.7561 39.4945 62.6163V62.6163C39.34 61.2825 41.8933 59.8128 45.1973 59.3335C48.5014 58.8542 51.305 59.5469 51.4595 60.8806V60.8806Z" fill="#FFFEF5" fill-opacity="0.92"/>
</svg>
