<svg width="90" height="85" viewBox="0 0 90 85" fill="none" xmlns="http://www.w3.org/2000/svg">
<ellipse cx="45" cy="65.7872" rx="45" ry="19.1489" fill="#EEF2E0"/>
<path d="M87.1999 65.7872C87.1999 67.8022 86.1804 69.8236 84.1189 71.768C82.0554 73.7143 79.0157 75.5131 75.1764 77.0447C67.5035 80.1057 56.8349 82.0212 44.9999 82.0212C33.165 82.0212 22.4964 80.1057 14.8235 77.0447C10.9842 75.5131 7.94444 73.7143 5.88094 71.768C3.81944 69.8236 2.79993 67.8022 2.79993 65.7872C2.79993 63.7723 3.81944 61.7508 5.88094 59.8064C7.94444 57.8601 10.9842 56.0613 14.8235 54.5297C22.4964 51.4687 33.165 49.5532 44.9999 49.5532C56.8349 49.5532 67.5035 51.4687 75.1764 54.5297C79.0157 56.0613 82.0554 57.8601 84.1189 59.8064C86.1804 61.7508 87.1999 63.7723 87.1999 65.7872Z" stroke="#889A6B" stroke-width="2"/>
<path d="M89.5 65.7872C89.5 68.2607 88.3241 70.6599 86.1091 72.8883C83.892 75.1188 80.6589 77.1505 76.624 78.8674C68.5562 82.3006 57.3757 84.4361 45 84.4361C32.6243 84.4361 21.4438 82.3006 13.376 78.8674C9.3411 77.1505 6.10799 75.1188 3.89094 72.8883C1.67594 70.6599 0.5 68.2607 0.5 65.7872C0.5 63.3136 1.67594 60.9145 3.89094 58.686C6.10799 56.4555 9.3411 54.4239 13.376 52.7069C21.4438 49.2738 32.6243 47.1382 45 47.1382C57.3757 47.1382 68.5562 49.2738 76.624 52.7069C80.6589 54.4239 83.892 56.4555 86.1091 58.686C88.3241 60.9145 89.5 63.3136 89.5 65.7872Z" stroke="#889A6B"/>
<path fill-rule="evenodd" clip-rule="evenodd" d="M20.4734 38.8699C20.343 39.4694 20.2126 40.069 20.0126 40.6453L19.6874 41.5821C17.4588 48.0017 17.7282 55.0249 20.4421 61.2548C20.5631 61.5326 20.6238 61.8312 20.6844 62.1289L20.6844 62.129L20.6844 62.1291C20.6981 62.1965 20.7118 62.2639 20.7262 62.331C20.8718 63.0092 21.2765 63.5922 21.8325 63.9728L22.899 65.0576C23.0559 65.2735 23.2444 65.4651 23.4578 65.6259L24.7309 66.9209C24.8265 67.0358 24.9316 67.1427 25.045 67.2403L26.6689 68.8921L26.6786 68.8826C27.161 69.3377 27.8133 69.6171 28.5313 69.6171H67.991C69.4769 69.6171 70.6814 68.4209 70.6814 66.9453V43.9337C70.6814 42.1729 69.8037 40.5261 68.3374 39.536C68.2778 39.4957 68.2181 39.4557 68.1584 39.4159C67.7681 38.7879 67.2451 38.2386 66.6125 37.8114C66.5534 37.7715 66.4942 37.7318 66.435 37.6923C66.0446 37.0638 65.5213 36.5141 64.8884 36.0867C64.8289 36.0465 64.7693 36.0065 64.7096 35.9667C64.3193 35.3387 63.7963 34.7893 63.1636 34.3621C51.0474 26.1804 35.1274 26.1804 23.0112 34.3621C22.1084 34.9717 21.4287 35.8303 21.0396 36.8111C20.7774 37.4722 20.6254 38.171 20.4734 38.8699Z" fill="url(#paint0_radial_120_353)"/>
<path d="M26.9845 46.9446C27.37 45.7601 27.4584 44.479 27.9166 43.3207C28.2893 42.3783 28.946 41.5531 29.8202 40.9684C41.4704 33.1763 56.7782 33.1763 68.4284 40.9684C69.3005 41.5517 69.956 42.3742 70.3293 43.3138C70.7906 44.475 70.8922 45.7593 71.3033 46.9393V46.9393C73.3734 52.881 73.3734 59.3483 71.3033 65.29L70.8493 66.5932C70.7387 66.9105 70.6987 67.2476 70.6314 67.5769C70.3935 68.7406 69.3485 69.617 68.0953 69.617H30.1533C28.7246 69.617 27.5664 68.4778 27.5664 67.0726L26.9845 65.2847C25.0449 59.3252 25.0449 52.9041 26.9845 46.9446V46.9446Z" fill="#FEECAA"/>
<path fill-rule="evenodd" clip-rule="evenodd" d="M70.6815 45.5678C70.2795 45.1769 69.873 44.6412 69.3989 44.0166C68.196 42.4316 66.5585 40.2738 63.4571 38.4548C60.0794 36.4736 54.9653 34.8942 46.7854 34.8942C32.226 34.8942 27.7243 45.3245 25.9607 49.4108C25.5702 50.3155 25.314 50.9093 25.1125 51.01C23.7239 51.7042 23.2885 50.891 22.817 50.01C22.4253 49.2783 22.0086 48.5 21 48.5C19.9001 48.5 19.0271 46.9122 18.8291 44.6133C19.055 43.5918 19.341 42.5796 19.6873 41.582L20.0125 40.6452C20.2126 40.069 20.343 39.4693 20.4733 38.8699C20.6253 38.1709 20.7773 37.4722 21.0395 36.811C21.4286 35.8302 22.1083 34.9717 23.0111 34.362C35.1273 26.1803 51.0474 26.1803 63.1636 34.362C63.7962 34.7893 64.3193 35.3387 64.7096 35.9668C64.7692 36.0066 64.8288 36.0465 64.8882 36.0866C65.5212 36.514 66.0444 37.0638 66.4348 37.6922C66.494 37.7317 66.5532 37.7715 66.6123 37.8114C67.2448 38.2385 67.7678 38.7877 68.158 39.4155C68.1834 39.4325 68.2088 39.4494 68.2341 39.4664C68.2686 39.4895 68.303 39.5127 68.3374 39.5359C69.8037 40.5261 70.6815 42.1728 70.6815 43.9337V45.5678Z" fill="url(#paint1_linear_120_353)"/>
<path fill-rule="evenodd" clip-rule="evenodd" d="M35.2465 58.298C35.3103 56.4065 35.6113 54.5426 36.1374 52.7896C36.7341 50.8016 37.6087 48.9952 38.7112 47.4737C39.8137 45.9521 41.1225 44.7452 42.563 43.9217C43.9186 43.1468 45.3658 42.7258 46.8311 42.6789V42.6745C46.8812 42.6745 46.9313 42.6748 46.9814 42.6754C47.0231 42.6747 47.0649 42.6744 47.1066 42.6744V42.6773C49.5511 42.7253 51.9676 43.413 54.2277 44.705C56.5727 46.0455 58.7034 48.0103 60.4982 50.4873C62.293 52.9642 63.7167 55.9048 64.688 59.1411C65.6593 62.3773 66.1593 65.846 66.1593 69.3489H61.265C61.265 66.733 60.8917 64.1427 60.1663 61.7259C59.4409 59.3091 58.3777 57.1131 57.0374 55.2634C55.6971 53.4137 54.1059 51.9464 52.3547 50.9453C50.6268 49.9576 48.7765 49.4428 46.9068 49.4293C46.0581 49.4628 45.2204 49.7098 44.435 50.1587C43.588 50.6429 42.8184 51.3526 42.1701 52.2473C41.5218 53.142 41.0076 54.2041 40.6567 55.373C40.3077 56.5359 40.1272 57.7817 40.1253 59.0402C40.2191 59.6568 40.4287 60.2333 40.7374 60.7091C41.1675 61.3719 41.7596 61.7926 42.4004 61.8905C43.0411 61.9884 43.6856 61.7567 44.2103 61.2397C45.1232 60.3402 46.3372 59.4267 47.5615 59.8055L47.9306 59.9197C49.096 60.2802 49.8437 61.4558 49.4565 62.6127C48.9173 64.2235 48.0813 65.6263 47.0203 66.6717C45.5267 68.1433 43.6923 68.8029 41.8682 68.5242C40.0442 68.2455 38.3587 67.0481 37.1345 65.1613C36.0336 63.4645 35.3753 61.3173 35.2539 59.0601H35.2336C35.2336 58.9202 35.2349 58.7804 35.2375 58.6407C35.2348 58.5267 35.2334 58.4124 35.2334 58.298H35.2465Z" fill="#F9CA93"/>
<path d="M29.5593 31.9728C29.5593 33.6157 36.277 34.8944 44.5637 34.8944C52.8503 34.8944 59.568 33.6157 59.568 31.9728C59.568 30.9929 49.8413 29.2815 45.3534 27.7228C44.1624 27.3091 45.4411 26.7779 45.4649 25.8893C45.4847 25.1514 44.5491 24.8675 43.813 24.9229C37.8914 25.3689 29.5593 30.4324 29.5593 31.9728Z" fill="url(#paint2_radial_120_353)"/>
<path d="M32.8947 58.2342C32.9646 56.2639 32.7036 53.9254 33.2795 52.0994C33.9326 50.0286 34.8898 48.147 36.0965 46.562C37.3033 44.9771 39.9448 43.7198 41.5214 42.8621C43.005 42.0549 44.5888 41.6164 46.1924 41.5674L46.3594 41.5637C46.4151 41.5637 46.3038 41.5632 46.3594 41.5637C46.4045 41.5631 46.3594 41.5637 46.4946 41.5628V41.5657C49.1699 41.6159 51.8146 42.3322 54.2882 43.6779C56.8549 45.0743 59.1871 47.121 61.1515 49.7011C63.116 52.2813 64.6743 55.3443 65.7375 58.7155C66.8006 62.0866 67.3478 65.6997 67.3478 69.3486H61.9909C61.9909 66.6237 61.5822 63.9255 60.7883 61.408C59.9943 58.8905 58.8306 56.603 57.3636 54.6762C55.8966 52.7494 54.155 51.221 52.2382 50.1782C50.3475 49.1496 48.3229 48.6134 46.277 48.599C45.3477 48.6338 44.4304 48.8911 43.5704 49.3589C42.6433 49.8633 41.8009 50.6026 41.0914 51.5345C40.7524 52.1214 40.5714 52.4183 40.4893 52.6788C40.1074 53.8896 39.9098 55.1869 39.9076 56.4974C40.0101 57.1402 40.2397 57.7413 40.5778 58.2372C41.0485 58.9277 41.6966 59.3659 42.398 59.4679C43.0993 59.5699 43.2003 58.7728 43.7746 58.2342C44.7787 57.2927 46.6398 56.7207 48.0057 57.1228C49.2636 57.4932 51.6323 59.3457 50.4234 62.68C49.2145 66.0142 48.5848 66.0158 47.4012 67.1257C45.7664 68.6586 42.7577 68.78 40.7612 68.4897C38.7647 68.1994 36.9199 66.9521 35.5799 64.9866C34.375 63.2191 33.0276 60.5855 32.8947 58.2342C32.8947 58.0868 32.8918 58.3815 32.8947 58.2342C32.8918 58.1172 32.8947 58.3517 32.8947 58.2342Z" fill="#FFFCE4"/>
<path fill-rule="evenodd" clip-rule="evenodd" d="M38.6272 16.1004C39.0121 15.8972 39.488 16.0113 39.739 16.3668L42.7595 20.645C43.0899 21.1129 43.36 21.6205 43.5636 22.1557C43.334 22.6122 43.1521 23.1881 43.0347 23.9005C42.7184 23.4225 42.3986 23.0461 42.0802 22.7588C41.9076 22.2953 41.67 21.8584 41.3743 21.4614L38.337 17.3837C38.0195 16.9574 38.1572 16.3485 38.6272 16.1004Z" fill="#B1CF7F"/>
<path d="M37.2861 27.2498C38.0301 30.27 41.4079 32.0349 44.8308 31.1918C48.2537 30.3486 50.4254 27.2168 49.6814 24.1966C48.9375 21.1765 43.965 18.2576 43.0348 23.9004C39.9548 19.2454 36.5422 24.2296 37.2861 27.2498Z" fill="#DE2E2E"/>
<defs>
<radialGradient id="paint0_radial_120_353" cx="0" cy="0" r="1" gradientUnits="userSpaceOnUse" gradientTransform="translate(43.7351 32.1852) rotate(137.391) scale(47.6232 59.3793)">
<stop offset="0.128802" stop-color="#FCE2AF"/>
<stop offset="0.57833" stop-color="#F9CA93"/>
<stop offset="0.9999" stop-color="#F4A86C"/>
<stop offset="1" stop-color="#F4A86C"/>
</radialGradient>
<linearGradient id="paint1_linear_120_353" x1="44.7554" y1="28.2258" x2="20.1117" y2="50.7866" gradientUnits="userSpaceOnUse">
<stop offset="0.51966" stop-color="#CD8344"/>
<stop offset="1" stop-color="#894211"/>
</linearGradient>
<radialGradient id="paint2_radial_120_353" cx="0" cy="0" r="1" gradientUnits="userSpaceOnUse" gradientTransform="translate(44.7039 27.657) rotate(91.2615) scale(6.36967 23.1354)">
<stop offset="0.0001" stop-color="#FFF5F0"/>
<stop offset="0.648177" stop-color="#FFF5F0"/>
<stop offset="1" stop-color="#FAE3D7"/>
</radialGradient>
</defs>
</svg>
